<svg version="1.1" viewBox="0.0 0.0 302.9501312335958 251.07874015748033" fill="none" stroke="none" stroke-linecap="square" stroke-miterlimit="10" xmlns:xlink="http://www.w3.org/1999/xlink" xmlns="http://www.w3.org/2000/svg"><clipPath id="p.0"><path d="m0 0l302.95013 0l0 251.07874l-302.95013 0l0 -251.07874z" clip-rule="nonzero"/></clipPath><g clip-path="url(#p.0)"><path fill="#000000" d="m0 0l302.95013 0l0 251.07874l-302.95013 0z" fill-rule="evenodd"/><path fill="#f1c27d" d="m102.28224 19.929863l-10.169098 7.852478l-14.356529 12.083813l-10.768059 12.081146l-7.775902 14.497906l-8.97382 11.476295l-5.3827095 7.2502823l-8.374859 7.852478l-5.9816685 -1.2070465l-5.9816666 -10.8741l-8.97382 -4.8335266l-8.971182 1.2097168l-6.580625 6.6454315l1.7942362 12.081146l0.5989584 10.269241l-0.039578676 12.686005l2.9895139 11.476288l12.6018715 12.081146l12.580763 1.2097168l5.364237 18.12172l9.572781 9.667038l15.551804 4.228668l11.965973 -1.8145599l5.3827057 10.8741l5.981674 12.685989l7.1795807 7.8524933l10.166458 2.416748l11.367012 0l7.1795883 -3.0189514l4.1874313 7.852478l9.570129 4.228668l7.7759094 4.228668l8.973816 3.6238098l14.95285 -5.4357147l7.778549 -8.457336l10.166458 -25.37201l10.770691 -31.412567l13.757568 -23.560104l5.9790344 -8.457336l8.374863 0l9.572769 9.667053l8.973816 13.893051l6.5779877 10.269241l8.976471 4.228668l12.562286 3.0216064l9.570129 0l11.367035 -4.8335114l9.570129 -6.6454315l1.79422 -8.457336l-11.965973 -10.269241l-12.562286 -7.852478l-7.3009644 -5.438385l-5.261322 -9.664383l-4.7837524 -7.852478l-6.583252 -7.852478l-3.7467957 -6.040573l-7.1954193 -15.102768l0 -9.062195l-5.992218 -16.30981l-5.992218 -10.269241l-5.994858 -12.081146l-13.184998 -7.250286l-14.984512 -9.062193l-23.372574 -5.4357166l-13.786591 -3.623811l-21.573044 4.8308597z" fill-rule="evenodd"/><path fill="#000000" fill-opacity="0.0" d="m198.74055 111.147316l-4.6359863 2.414093l-6.7283783 -0.90595245l-11.963333 -6.341667" fill-rule="evenodd"/><path stroke="#dab176" stroke-width="2.0" stroke-linejoin="round" stroke-linecap="butt" d="m198.74055 111.147316l-4.6359863 2.414093l-6.7283783 -0.90595245l-11.963333 -6.341667" fill-rule="evenodd"/><path fill="#000000" fill-opacity="0.0" d="m165.69232 96.9505l5.8681946 3.9275742l5.1980133 3.0189514l9.757477 4.228668" fill-rule="evenodd"/><path stroke="#dab176" stroke-width="2.0" stroke-linejoin="round" stroke-linecap="butt" d="m165.69232 96.9505l5.8681946 3.9275742l5.1980133 3.0189514l9.757477 4.228668" fill-rule="evenodd"/><path fill="#000000" fill-opacity="0.0" d="m150.43867 153.88431l-5.984314 1.5108032l-3.1399078 2.5686493l-2.2427979 4.8308563l3.4407043 4.6816406l4.6360016 9.214081l7.176941 11.780045l-2.6913605 -6.496216l1.0475159 -1.8119049l5.084549 0.6048584l5.6835175 4.8335266" fill-rule="evenodd"/><path stroke="#dab176" stroke-width="2.0" stroke-linejoin="round" stroke-linecap="butt" d="m150.43867 153.88431l-5.984314 1.5108032l-3.1399078 2.5686493l-2.2427979 4.8308563l3.4407043 4.6816406l4.6360016 9.214081l7.176941 11.780045l-2.6913605 -6.496216l1.0475159 -1.8119049l5.084549 0.6048584l5.6835175 4.8335266" fill-rule="evenodd"/><path fill="#000000" fill-opacity="0.0" d="m127.707275 147.39075l-6.132065 -1.9637756l-4.039665 -0.6021881l-5.981674 -0.45298767l-1.643837 1.6600342l-3.1399078 3.0216064l-0.5989609 3.0189667" fill-rule="evenodd"/><path stroke="#dab176" stroke-width="2.0" stroke-linejoin="round" stroke-linecap="butt" d="m127.707275 147.39075l-6.132065 -1.9637756l-4.039665 -0.6021881l-5.981674 -0.45298767l-1.643837 1.6600342l-3.1399078 3.0216064l-0.5989609 3.0189667" fill-rule="evenodd"/><path fill="#fbcf8f" d="m33.770264 96.95139l-6.274828 6.9465256l4.1814613 13.290863l1.7954464 15.100098l-0.59848404 10.8741l-13.150776 0.3037567l-14.044544 -11.780045l-3.5882535 -12.083809l1.1969633 -17.817963l-3.2876942 -16.914673l4.1840987 -7.2502823l10.759487 -1.5108109l10.161005 3.9275742z" fill-rule="evenodd"/><path fill="#fbd9b6" d="m4.0808144 104.50276l5.3827085 0.60219574l3.8892708 -1.5081482l2.9895144 -0.3037567l-0.5963192 -6.341675l-1.7942362 -7.2502823l-2.0950356 0.90595245l-4.1874304 -0.60219574l-2.6913543 -1.5108109l-3.5884724 -0.60485077l1.1952779 4.5297623l1.1952779 7.551384z" fill-rule="evenodd"/><path fill="#fbcf8f" d="m65.74433 124.740135l-4.482952 8.7584305l7.83395 14.732391l1.7942352 15.100098l-0.59895325 10.8741l-10.22451 1.8811951l-13.448856 -4.8335266l-10.161182 -12.987106l-5.3800697 -38.662865l-3.5858326 -16.00605l6.2771893 -7.551384l11.952778 0.30109406l14.058369 9.968147z" fill-rule="evenodd"/><path fill="#fbd9b6" d="m34.357773 125.947174l5.2276573 0.30109406l4.6295357 -0.45298004l3.0512238 -2.3314896l0.98018646 -5.219887l-3.4332848 -8.7584305l-2.5400543 0.4529724l-3.13554 -0.30109406l-3.2198563 -0.9725723l-6.0392094 -1.2923126l1.0460567 5.2838364l2.0894814 7.7032623z" fill-rule="evenodd"/><path fill="#fbcf8f" d="m69.63004 125.0412l-5.3810577 4.52977l-1.4948883 6.6454163l2.0933685 6.946533l3.585617 6.946533l1.7928085 8.156235l0.89640045 7.5513763l2.6918564 10.269241l4.4820175 10.570343l4.4820175 7.25029l6.5753937 7.852478l7.471794 3.6238098l12.254372 2.4167633l7.7697144 -1.5108185l1.1943283 -4.8308563l-5.3784256 -10.8741l-4.782585 -8.156235l-6.274826 -6.341675l-2.3912888 -3.6238098l3.585617 -5.7394714l4.4820175 -5.7394867l1.1969681 -3.6238098l-2.0933685 -12.686005l-4.7799454 -8.457336l-8.966682 -6.946518l-8.368195 -4.228668l-7.471794 -1.5108109z" fill-rule="evenodd"/><path fill="#fbd9b6" d="m72.290665 157.05861l5.7414627 1.74263l3.9681702 -0.53556824l1.9392929 -1.6600342l-2.0894775 -9.062195l-1.941925 -6.34433l-3.5834808 0.9059601l-2.8377914 -0.1492157l-4.1816025 -1.2097168l-3.5834732 -2.1130066l-0.59812164 3.0189514l4.9272766 9.214081z" fill-rule="evenodd"/><path fill="#fbcf8f" d="m153.6081 184.8447l-2.3879242 -5.134613l-3.5884705 -6.040573l-2.9868774 -4.52977l-5.0792694 -4.532425l-5.979019 -4.228668l-7.1716766 -3.320053l-9.863022 -0.9086151l-7.7706223 -0.30110168l-4.1847916 7.25029l-3.5858383 5.134613l-0.89447784 5.1346283l5.0792694 6.341675l7.171669 10.572998l4.4855957 9.965485l3.8813553 7.2502747l6.8761444 6.341675l10.757507 5.134613l10.760132 3.62648l9.564865 0.6021881l7.76799 -4.228668l4.5805817 -5.736801l-0.39579773 -6.6454315l-9.863022 -12.384903l-2.9895172 -4.228668z" fill-rule="evenodd"/><path fill="#fbd9b6" d="m115.45145 186.2036l2.2396774 1.2097168l4.331787 0.6021881l3.88385 0l4.9272842 -2.414093l-0.15019226 -2.2675476l-3.4332886 -4.681656l-1.7917328 0.9086304l-5.9733353 0.75405884l-11.053444 -0.9059448l1.0460587 1.6600189l2.389862 3.1735077z" fill-rule="evenodd"/><path fill="#6d9eeb" d="m190.2071 105.79527l-18.492737 6.9553375l10.305527 -24.936646zm-0.04220581 -47.970493l-8.156052 17.997875l-10.345642 -24.919647zm-33.942047 -33.88777l6.9553375 18.49274l-24.936646 -10.305519zm-47.96827 0.03685379l17.995651 8.161415l-24.91964 10.345631zm-33.88999 33.9474l18.492744 -6.9553375l-10.305527 24.93665zm0.03907013 47.962917l8.159195 -17.990295l10.345634 24.919647zm33.945183 33.895348l-6.9553375 -18.492737l24.936653 10.305511zm47.965134 -0.044433594l-17.992508 -8.153839l24.919647 -10.345627zm-67.46907 -75.82958l0 0c9.915031 -23.991768 37.40193 -35.40322 61.393707 -25.488186c23.99176 9.915031 35.403214 37.401928 25.488174 61.393696c-9.915024 23.991776 -37.401917 35.40323 -61.393692 25.48819c-23.991776 -9.915031 -35.40322 -37.401924 -25.48819 -61.3937z" fill-rule="evenodd"/><path fill="#6d9eeb" d="m194.9656 81.86328l-14.435318 13.492104l0 -26.9842zm-18.362091 -44.320877l-0.66371155 19.749966l-19.080444 -19.080448zm-44.31508 -18.356285l13.492111 14.435326l-26.9842 0zm-44.320877 18.356285l19.74997 0.6695175l-19.080452 19.080448zm-18.356285 44.320877l14.435326 -13.492096l0 26.9842zm18.356285 44.31508l0.6695175 -19.744164l19.080452 19.080452zm44.320877 18.362091l-13.492088 -14.435333l26.9842 0zm44.31508 -18.362091l-19.744156 -0.66371155l19.080444 -19.080452zm-91.322945 -44.31508l0 0c0 -25.961727 21.046143 -47.00787 47.007866 -47.00787c25.961746 0 47.007874 21.046143 47.007874 47.00787c0 25.961739 -21.046127 47.007874 -47.007874 47.007874c-25.961723 0 -47.007866 -21.046135 -47.007866 -47.007874z" fill-rule="evenodd"/><defs><radialGradient id="p.1" gradientUnits="userSpaceOnUse" gradientTransform="matrix(8.552331740456452 0.0 0.0 8.552331740456452 0.0 0.0)" spreadMethod="pad" cx="15.467587175044102" cy="9.571532445084875" fx="15.467587175044102" fy="9.571532445084875" r="8.552331924438477"><stop offset="0.0" stop-color="#3177ee"/><stop offset="1.4E-45" stop-color="#4a86e8"/><stop offset="0.99999994" stop-color="#194ca3"/><stop offset="1.0" stop-color="#113d8a"/></radialGradient></defs><path fill="url(#p.1)" d="m81.11858 81.85892l0 0c0 -28.866661 22.907509 -52.267715 51.16535 -52.267715l0 0c13.5699005 0 26.584 5.5067616 36.179367 15.308859c9.595367 9.802101 14.985992 23.096596 14.985992 36.958855l0 0c0 28.866669 -22.907516 52.267715 -51.16536 52.267715l0 0c-28.257843 0 -51.16535 -23.401047 -51.16535 -52.267715z" fill-rule="evenodd"/><path stroke="#3c78d8" stroke-width="4.0" stroke-linejoin="round" stroke-linecap="butt" d="m81.11858 81.85892l0 0c0 -28.866661 22.907509 -52.267715 51.16535 -52.267715l0 0c13.5699005 0 26.584 5.5067616 36.179367 15.308859c9.595367 9.802101 14.985992 23.096596 14.985992 36.958855l0 0c0 28.866669 -22.907516 52.267715 -51.16536 52.267715l0 0c-28.257843 0 -51.16535 -23.401047 -51.16535 -52.267715z" fill-rule="evenodd"/><path fill="#ffffff" d="m70.21739 231.03899c-0.20200348 0 -0.37565613 0.09829712 -0.52095795 0.2948761l-5.8705177 8.759186l-5.836014 -8.759186c-0.07487869 -0.10386658 -0.16786957 -0.17753601 -0.27898788 -0.2210083c-0.11110687 -0.045898438 -0.2185936 -0.068847656 -0.322464 -0.068847656c-0.1932373 0 -0.35266113 0.06762695 -0.47826004 0.20289612c-0.12560272 0.13285828 -0.1884079 0.2886505 -0.1884079 0.46739197l0 14.246399c0 0.17633057 0.059181213 0.3321228 0.17753601 0.46739197c0.1183548 0.13284302 0.27415466 0.19926453 0.46739197 0.19926453c0.19324112 0 0.35266113 -0.06642151 0.47826385 -0.19926453c0.12559891 -0.13526917 0.18840408 -0.2910614 0.18840408 -0.46739197l0 -12.289017l5.2318916 7.970169c0.05796814 0.08937073 0.13526535 0.16062927 0.231884 0.21376038c0.07246399 0.03805542 0.14696503 0.05706787 0.22350311 0.05706787c0.025512695 0 0.051250458 -0.002105713 0.07722092 -0.0063323975c0.029586792 0.0042266846 0.0582695 0.0063323975 0.08605194 0.0063323975c0.08333206 0 0.15851212 -0.019012451 0.22554398 -0.05706787c0.08937073 -0.053131104 0.15699768 -0.12438965 0.20289612 -0.21376038l5.228264 -7.9164124l0 12.23526c0 0.17633057 0.06642914 0.3321228 0.19927979 0.46739197c0.13526917 0.13284302 0.30677032 0.19926453 0.51449585 0.19926453c0.1932373 0 0.35627747 -0.06642151 0.4891281 -0.19926453c0.13526917 -0.13526917 0.20289612 -0.2910614 0.20289612 -0.46739197l0 -14.246399c0 -0.1932373 -0.06400299 -0.35266113 -0.19202423 -0.47825623c-0.12560272 -0.12802124 -0.27777863 -0.19203186 -0.4565277 -0.19203186c-0.027313232 -0.0033416748 -0.054145813 -0.0050201416 -0.08049011 -0.0050201416z" fill-rule="evenodd"/><path fill="#ffffff" d="m79.24748 236.2759c0.59420013 0 1.1618347 0.1268158 1.7028961 0.38043213c0.54106903 0.2512207 1.004837 0.621994 1.3913116 1.11232c0.38646698 0.4879303 0.6171417 1.0809326 0.69202423 1.7789917l0 0.17753601l-7.6035843 0c0.05898285 -0.32363892 0.1442337 -0.6231537 0.25575256 -0.8985443c0.23671722 -0.58695984 0.544693 -1.0700531 0.92391205 -1.4492798c0.37922668 -0.37922668 0.8019333 -0.65701294 1.2681198 -0.8333435c0.46860504 -0.17874146 0.9251251 -0.26811218 1.3695679 -0.26811218zm0 -1.289856c-0.8888931 0 -1.7306824 0.24154663 -2.5253677 0.7246399c-0.79468536 0.48068237 -1.4408264 1.1666718 -1.9384079 2.0579681c-0.4975891 0.88890076 -0.74637604 1.9649811 -0.74637604 3.2282715c0 1.1714935 0.2451706 2.1956482 0.7355118 3.072464c0.4903412 0.8744049 1.1727066 1.5567627 2.0470963 2.047104c0.8768158 0.4879303 1.8864746 0.7318878 3.0289917 0.7318878c0.8454132 0 1.6243973 -0.1956482 2.3369598 -0.58695984c0.71255493 -0.39372253 1.2910614 -0.8574829 1.7355118 -1.3913116c0.14975739 -0.1352539 0.22463226 -0.2910614 0.22463226 -0.46739197c0 -0.14974976 -0.05555725 -0.28381348 -0.16666412 -0.40216064c-0.11110687 -0.11836243 -0.24878693 -0.17753601 -0.41304016 -0.17753601c-0.1473465 0 -0.30313873 0.06642151 -0.46739197 0.19926453c-0.20773315 0.26812744 -0.47101593 0.52415466 -0.78985596 0.76812744c-0.31884766 0.24395752 -0.685997 0.44081116 -1.1014557 0.5905762c-0.41545868 0.14733887 -0.8756027 0.2210083 -1.3804321 0.2210083c-0.9492798 0 -1.758461 -0.20773315 -2.4275436 -0.6231842c-0.6666641 -0.4154663 -1.1787415 -0.97946167 -1.536232 -1.6920319c-0.35212708 -0.7066498 -0.5296478 -1.4928894 -0.5325699 -2.3587036l8.413017 0c0.17874146 0 0.33454132 -0.06278992 0.46739197 -0.18840027c0.13526154 -0.12561035 0.20289612 -0.277771 0.20289612 -0.4565277c-0.016906738 -0.8598938 -0.17391205 -1.6159363 -0.47101593 -2.2681122c-0.29468536 -0.6545868 -0.6799545 -1.2077332 -1.1557999 -1.6594238c-0.47584534 -0.45410156 -1.0217361 -0.79589844 -1.63768 -1.0253601c-0.613533 -0.22947693 -1.2475891 -0.34420776 -1.9021759 -0.34420776z" fill-rule="evenodd"/><path fill="#ffffff" d="m92.537575 234.98604c-0.5338135 0 -1.064003 0.100250244 -1.5905762 0.3007202c-0.5265732 0.20048523 -1.0060501 0.4746399 -1.4384079 0.82247925c-0.4003601 0.3238678 -0.73368835 0.6875458 -1.0 1.0910034l0 0l0 -1.2142029c0 -0.17874146 -0.062805176 -0.3345337 -0.1884079 -0.46739197c-0.12560272 -0.13284302 -0.28502655 -0.19926453 -0.47826385 -0.19926453c-0.1932373 0 -0.35386658 0.06642151 -0.4818802 0.19926453c-0.12560272 0.13285828 -0.1884079 0.2886505 -0.1884079 0.46739197l0 9.974655c0 0.17633057 0.059181213 0.3321228 0.17753601 0.46739197c0.120773315 0.13284302 0.28502655 0.19926453 0.49275208 0.19926453c0.17633057 0 0.33091736 -0.06642151 0.463768 -0.19926453c0.13526917 -0.13526917 0.20290375 -0.2910614 0.20290375 -0.46739197l0 -6.4782715c0 -0.59420776 0.17753601 -1.1352692 0.53260803 -1.6231842c0.3574829 -0.4903412 0.8212509 -0.8840637 1.391304 -1.1811676c0.572464 -0.29710388 1.177536 -0.4456482 1.8152161 -0.4456482c0.71256256 0 1.2874451 0.14854431 1.7246399 0.4456482c0.43961334 0.29710388 0.7548294 0.6908264 0.9456558 1.1811676c0.1932373 0.48791504 0.28985596 1.0289764 0.28985596 1.6231842l0 6.4782715c0 0.17633057 0.059173584 0.3321228 0.17753601 0.46739197c0.120773315 0.13284302 0.28501892 0.19926453 0.49275208 0.19926453c0.17633057 0 0.330925 -0.06642151 0.463768 -0.19926453c0.13526917 -0.13526917 0.20290375 -0.2910614 0.20290375 -0.46739197l0 -6.547119c0 -0.8164215 -0.13043976 -1.5615845 -0.39130402 -2.2355042c-0.25845337 -0.67633057 -0.6811676 -1.210144 -1.2681198 -1.6014557c-0.5845413 -0.39370728 -1.3671494 -0.5905762 -2.3478317 -0.5905762z" fill-rule="evenodd"/><path fill="#ffffff" d="m101.59639 232.15633c-0.19081879 0 -0.3502426 0.06762695 -0.47825623 0.20289612c-0.12561035 0.13285828 -0.1884079 0.2886505 -0.1884079 0.46739197l0 2.4710236l-1.6231918 0c-0.17874146 0 -0.3321228 0.059173584 -0.46014404 0.17753601c-0.12560272 0.11836243 -0.1884079 0.26690674 -0.1884079 0.4456482c0 0.16183472 0.062805176 0.3067627 0.1884079 0.43478394c0.12802124 0.12561035 0.28139496 0.18840027 0.46014404 0.18840027l1.6231918 0l0 7.521759c0 0.66908264 0.09299469 1.1823578 0.27898407 1.539856c0.18598938 0.35507202 0.41908264 0.6038666 0.6992798 0.7463684c0.28260803 0.1401062 0.5567627 0.22102356 0.822464 0.24275208c0.26811218 0.021743774 0.46980286 0.032608032 0.605072 0.032608032c0.32608795 0 0.60749054 -0.07003784 0.84420013 -0.21014404c0.23671722 -0.14250183 0.35507202 -0.31762695 0.35507202 -0.5253601c0 -0.16183472 -0.048301697 -0.29467773 -0.14492035 -0.3985443c-0.09420776 -0.10386658 -0.2089386 -0.1558075 -0.34420776 -0.1558075c-0.1183548 0 -0.22584534 0.018127441 -0.322464 0.054351807c-0.09661865 0.036239624 -0.20410919 0.054351807 -0.322464 0.054351807c-0.17874146 0 -0.3574829 -0.032608032 -0.536232 -0.0978241c-0.17633057 -0.06764221 -0.3200531 -0.20532227 -0.43115997 -0.41304016c-0.1111145 -0.20773315 -0.16666412 -0.5193329 -0.16666412 -0.93478394l0 -7.456543l2.22464 0c0.17874146 0 0.3272934 -0.059173584 0.4456482 -0.17753601c0.11836243 -0.120773315 0.17753601 -0.2620697 0.17753601 -0.42390442c0 -0.17874146 -0.059173584 -0.33091736 -0.17753601 -0.4565277c-0.1183548 -0.1255951 -0.26690674 -0.18840027 -0.4456482 -0.18840027l-2.22464 0l0 -2.4710236c0 -0.17874146 -0.06401062 -0.3345337 -0.19203186 -0.46739197c-0.12560272 -0.13526917 -0.28502655 -0.20289612 -0.47826385 -0.20289612z" fill-rule="evenodd"/><path fill="#ffffff" d="m112.35037 236.23242c0.83091736 0 1.56884 0.20410156 2.213768 0.61231995c0.6473465 0.40820312 1.1557999 0.9649811 1.5253677 1.6702881c0.37197876 0.7028961 0.55796814 1.5072479 0.55796814 2.4130402c0 0.9058075 -0.18598938 1.7077332 -0.55796814 2.4058075c-0.36956787 0.6956482 -0.87802124 1.2475891 -1.5253677 1.6557922c-0.644928 0.40821838 -1.3828506 0.61231995 -2.213768 0.61231995c-0.8164215 0 -1.5483093 -0.20410156 -2.1956558 -0.61231995c-0.644928 -0.40820312 -1.1570053 -0.96014404 -1.536232 -1.6557922c-0.37680817 -0.69807434 -0.56521606 -1.5 -0.56521606 -2.4058075c0 -0.90579224 0.1884079 -1.710144 0.56521606 -2.4130402c0.37922668 -0.70532227 0.891304 -1.262085 1.536232 -1.6702881c0.6473465 -0.40821838 1.3792343 -0.61231995 2.1956558 -0.61231995zm0 -1.2463837c-1.0531387 0 -2.007248 0.2596588 -2.86232 0.7789917c-0.85266113 0.5193176 -1.5277786 1.2246399 -2.0253677 2.1159363c-0.49758148 0.88890076 -0.74637604 1.904602 -0.74637604 3.047104c0 1.1280212 0.24879456 2.1413116 0.74637604 3.0398712c0.4975891 0.8985443 1.1727066 1.6038513 2.0253677 2.1159363c0.855072 0.5096588 1.8091812 0.76449585 2.86232 0.76449585c1.0676346 0 2.0241623 -0.25483704 2.8695679 -0.76449585c0.8478317 -0.51208496 1.5193253 -1.217392 2.0144958 -2.1159363c0.49758148 -0.8985596 0.74637604 -1.91185 0.74637604 -3.0398712c0 -1.1425018 -0.24879456 -2.1582031 -0.74637604 -3.047104c-0.4951706 -0.8912964 -1.1666641 -1.5966187 -2.0144958 -2.1159363c-0.8454056 -0.5193329 -1.8019333 -0.7789917 -2.8695679 -0.7789917z" fill-rule="evenodd"/><path fill="#ffffff" d="m126.04125 234.98604c-0.6376877 0 -1.2125626 0.13406372 -1.7246399 0.4021759c-0.51207733 0.2657013 -0.9541092 0.6135254 -1.326088 1.0434875c-0.3719864 0.4299469 -0.6654587 0.9009552 -0.88043976 1.4130402c-0.01876831 0.044708252 -0.036880493 0.08944702 -0.054344177 0.13421631l0 0l0 -1.9929199c0 -0.17874146 -0.062805176 -0.3345337 -0.1884079 -0.46739197c-0.12560272 -0.13284302 -0.28501892 -0.19926453 -0.47826385 -0.19926453c-0.1932373 0 -0.35385895 0.06642151 -0.4818802 0.19926453c-0.12561035 0.13285828 -0.1884079 0.2886505 -0.1884079 0.46739197l0 9.974655c0 0.17633057 0.059173584 0.3321228 0.17753601 0.46739197c0.120773315 0.13284302 0.28501892 0.19926453 0.49275208 0.19926453c0.17633057 0 0.33091736 -0.06642151 0.463768 -0.19926453c0.13526917 -0.13526917 0.20290375 -0.2910614 0.20290375 -0.46739197l0 -5.5000153c0 -0.5193176 0.100234985 -1.0350189 0.3007202 -1.5471039c0.20048523 -0.5120697 0.47101593 -0.97584534 0.81159973 -1.3912964c0.3429947 -0.4154663 0.7222214 -0.7451782 1.13768 -0.98913574c0.41545868 -0.24636841 0.83091736 -0.36956787 1.246376 -0.36956787c0.25121307 0 0.4541092 0.03744507 0.608696 0.11231995c0.15700531 0.07489014 0.3019333 0.11231995 0.43478394 0.11231995c0.16425323 0 0.30555725 -0.059173584 0.42391205 -0.17753601c0.11836243 -0.120773315 0.17753601 -0.29226685 0.17753601 -0.51449585c0 -0.25120544 -0.12680817 -0.4323578 -0.38043213 -0.5434723c-0.25120544 -0.1111145 -0.50966644 -0.16667175 -0.7753601 -0.16667175z" fill-rule="evenodd"/><path fill="#ffffff" d="m140.73003 233.20494l3.1156464 7.6108093l-6.1776123 0l3.061966 -7.6108093zm0.092941284 -2.2261505c-0.14976501 0 -0.28019714 0.033813477 -0.39131165 0.10145569c-0.11109924 0.065216064 -0.20410156 0.1799469 -0.27897644 0.3441925l-5.876816 14.380447c-0.0289917 0.10386658 -0.036239624 0.19203186 -0.021743774 0.26449585c0.01449585 0.16426086 0.07366943 0.30194092 0.17753601 0.41305542c0.10386658 0.11109924 0.2596588 0.1666565 0.46739197 0.1666565c0.13526917 0 0.25483704 -0.036224365 0.3587036 -0.108688354c0.10385132 -0.07489014 0.18476868 -0.18719482 0.24275208 -0.33695984l1.6384125 -4.072464l7.245163 0l1.66716 4.072464c0.06037903 0.13526917 0.14613342 0.24395752 0.25724792 0.32608032c0.11109924 0.079711914 0.24154663 0.11956787 0.3912964 0.11956787c0.17633057 0 0.33091736 -0.05555725 0.46377563 -0.1666565c0.1352539 -0.1111145 0.20289612 -0.27053833 0.20289612 -0.47827148c0 -0.08937073 -0.01449585 -0.17874146 -0.04348755 -0.26811218l-5.855072 -14.311615c-0.06037903 -0.13526917 -0.14613342 -0.24275208 -0.25724792 -0.322464c-0.1111145 -0.0821228 -0.24034119 -0.123184204 -0.38768005 -0.123184204z" fill-rule="evenodd"/><path fill="#ffffff" d="m155.06996 236.40996c0.7850189 0 1.4782562 0.19685364 2.079712 0.5905762c0.6014557 0.39372253 1.0797119 0.93237305 1.4347839 1.6159515c0.3574829 0.68115234 0.5362396 1.4589386 0.5362396 2.3333282c0 0.8768158 -0.17875671 1.6642609 -0.5362396 2.36232c-0.35507202 0.6956482 -0.83332825 1.2403412 -1.4347839 1.6340637c-0.6014557 0.39372253 -1.294693 0.5905762 -2.079712 0.5905762c-0.8019409 0 -1.5072479 -0.19685364 -2.1159515 -0.5905762c-0.60868835 -0.39372253 -1.0881653 -0.9384155 -1.4384003 -1.6340637c-0.3478241 -0.6980591 -0.5217438 -1.4855042 -0.5217438 -2.36232c0 -0.8888855 0.17391968 -1.6702881 0.5217438 -2.3442078c0.350235 -0.67633057 0.8297119 -1.2113495 1.4384003 -1.605072c0.6087036 -0.39372253 1.3140106 -0.5905762 2.1159515 -0.5905762zm0.108688354 -1.2463837c-0.5048218 0 -0.9867096 0.06642151 -1.4456482 0.19927979c-0.4589386 0.13284302 -0.8816376 0.3297119 -1.2681122 0.5905762c-0.3864746 0.25845337 -0.7246399 0.5700531 -1.0144958 0.93478394c-0.12879944 0.16207886 -0.24354553 0.33346558 -0.34420776 0.5141449l0 0l0 -1.5032806c0 -0.1932373 -0.062805176 -0.35627747 -0.18840027 -0.48912048c-0.12561035 -0.13526917 -0.28503418 -0.20289612 -0.47827148 -0.20289612c-0.2077179 0 -0.37197876 0.06762695 -0.49275208 0.20289612c-0.11834717 0.13284302 -0.17753601 0.29588318 -0.17753601 0.48912048l0 14.510895c0 0.17874146 0.062805176 0.3345337 0.18841553 0.46739197c0.12802124 0.13526917 0.2886505 0.20289612 0.48187256 0.20289612c0.1932373 0 0.35266113 -0.06762695 0.47827148 -0.20289612c0.1255951 -0.13285828 0.18840027 -0.2886505 0.18840027 -0.46739197l0 -5.8660736l0 0c0.09541321 0.1472168 0.19927979 0.2897644 0.31159973 0.42765808c0.29710388 0.36231995 0.63768005 0.677536 1.0217438 0.9456482c0.3864746 0.2657013 0.8127899 0.47706604 1.2789764 0.6340637c0.4685974 0.15458679 0.96377563 0.23188782 1.4855194 0.23188782c0.9782562 0 1.8598938 -0.2524109 2.644928 -0.7572479c0.7874298 -0.50483704 1.4106293 -1.1944427 1.8695679 -2.0688477c0.4613495 -0.8768158 0.69203186 -1.8792267 0.69203186 -3.007248c0 -1.1280212 -0.23068237 -2.1256104 -0.69203186 -2.992752c-0.4589386 -0.8695679 -1.0785065 -1.5519409 -1.8587036 -2.047104c-0.777771 -0.4975891 -1.6714935 -0.74638367 -2.6811676 -0.74638367z" fill-rule="evenodd"/><path fill="#ffffff" d="m168.47101 236.40996c0.7850189 0 1.4782715 0.19685364 2.079712 0.5905762c0.6014557 0.39372253 1.0797119 0.93237305 1.4347839 1.6159515c0.3574829 0.68115234 0.5362396 1.4589386 0.5362396 2.3333282c0 0.8768158 -0.17875671 1.6642609 -0.5362396 2.36232c-0.35507202 0.6956482 -0.83332825 1.2403412 -1.4347839 1.6340637c-0.6014404 0.39372253 -1.294693 0.5905762 -2.079712 0.5905762c-0.80192566 0 -1.5072479 -0.19685364 -2.1159363 -0.5905762c-0.6087036 -0.39372253 -1.0881653 -0.9384155 -1.4384155 -1.6340637c-0.3478241 -0.6980591 -0.5217438 -1.4855042 -0.5217438 -2.36232c0 -0.8888855 0.17391968 -1.6702881 0.5217438 -2.3442078c0.35025024 -0.67633057 0.8297119 -1.2113495 1.4384155 -1.605072c0.60868835 -0.39372253 1.3140106 -0.5905762 2.1159363 -0.5905762zm0.10870361 -1.2463837c-0.50483704 0 -0.98672485 0.06642151 -1.4456635 0.19927979c-0.4589386 0.13284302 -0.8816376 0.3297119 -1.2681122 0.5905762c-0.3864746 0.25845337 -0.7246399 0.5700531 -1.0144958 0.93478394c-0.12879944 0.16207886 -0.24354553 0.33346558 -0.34420776 0.5141449l0 0l0 -1.5032806c0 -0.1932373 -0.06278992 -0.35627747 -0.18840027 -0.48912048c-0.12561035 -0.13526917 -0.28501892 -0.20289612 -0.47825623 -0.20289612c-0.20773315 0 -0.37197876 0.06762695 -0.49276733 0.20289612c-0.11834717 0.13284302 -0.17753601 0.29588318 -0.17753601 0.48912048l0 14.510895c0 0.17874146 0.062805176 0.3345337 0.18841553 0.46739197c0.12802124 0.13526917 0.2886505 0.20289612 0.48188782 0.20289612c0.1932373 0 0.35264587 -0.06762695 0.47825623 -0.20289612c0.12561035 -0.13285828 0.18840027 -0.2886505 0.18840027 -0.46739197l0 -5.8660736l0 0c0.09541321 0.1472168 0.19927979 0.2897644 0.31159973 0.42765808c0.29710388 0.36231995 0.63768005 0.677536 1.0217438 0.9456482c0.3864746 0.2657013 0.8128052 0.47706604 1.2789764 0.6340637c0.46861267 0.15458679 0.96377563 0.23188782 1.4855194 0.23188782c0.9782562 0 1.859909 -0.2524109 2.644928 -0.7572479c0.78744507 -0.50483704 1.4106293 -1.1944427 1.8695679 -2.0688477c0.4613495 -0.8768158 0.69203186 -1.8792267 0.69203186 -3.007248c0 -1.1280212 -0.23068237 -2.1256104 -0.69203186 -2.992752c-0.4589386 -0.8695679 -1.0785065 -1.5519409 -1.8587036 -2.047104c-0.777771 -0.4975891 -1.6714935 -0.74638367 -2.6811523 -0.74638367z" fill-rule="evenodd"/><path fill="#ffffff" d="m177.37569 230.1527c-0.17874146 0 -0.3357544 0.06764221 -0.47102356 0.20291138c-0.13284302 0.13284302 -0.19926453 0.28863525 -0.19926453 0.46739197l0 15.137695c0 0.17633057 0.062805176 0.3321228 0.18840027 0.46739197c0.12802124 0.13284302 0.2886505 0.19926453 0.48188782 0.19926453c0.17633057 0 0.33091736 -0.06642151 0.46376038 -0.19926453c0.13526917 -0.13526917 0.20291138 -0.2910614 0.20291138 -0.46739197l0 -15.137695c0 -0.17875671 -0.06401062 -0.33454895 -0.19203186 -0.46739197c-0.12561035 -0.13526917 -0.28381348 -0.20291138 -0.4746399 -0.20291138z" fill-rule="evenodd"/><path fill="#ffffff" d="m182.23482 231.66719c-0.29467773 0 -0.527771 0.071258545 -0.6992645 0.21377563c-0.17150879 0.14009094 -0.25724792 0.34420776 -0.25724792 0.61231995l0 0.2210083c0 0.26812744 0.07728577 0.472229 0.23188782 0.61231995c0.15699768 0.1401062 0.3912964 0.21014404 0.7028961 0.21014404c0.29710388 0 0.5229492 -0.07003784 0.677536 -0.21014404c0.15699768 -0.14009094 0.23550415 -0.3441925 0.23550415 -0.61231995l0 -0.2210083c0 -0.26811218 -0.07850647 -0.472229 -0.23550415 -0.61231995c-0.15458679 -0.14251709 -0.37319946 -0.21377563 -0.6558075 -0.21377563zm0.079711914 3.3840637c-0.19081116 0 -0.350235 0.06764221 -0.47825623 0.20289612c-0.12561035 0.13285828 -0.18840027 0.28744507 -0.18840027 0.46377563l0 10.242767c0 0.17633057 0.06278992 0.3321228 0.18840027 0.46739197c0.12802124 0.13284302 0.28744507 0.19926453 0.47825623 0.19926453c0.17874146 0 0.33454895 -0.06642151 0.46739197 -0.19926453c0.13526917 -0.13526917 0.20289612 -0.2910614 0.20289612 -0.46739197l0 -10.242767c0 -0.17633057 -0.06401062 -0.33091736 -0.1920166 -0.46377563c-0.12561035 -0.1352539 -0.28503418 -0.20289612 -0.47827148 -0.20289612z" fill-rule="evenodd"/><path fill="#ffffff" d="m191.37547 234.98604c-1.1425171 0 -2.1364746 0.27053833 -2.9818878 0.81159973c-0.8454132 0.5410614 -1.5060425 1.2572479 -1.9818878 2.1485443c-0.47584534 0.88890076 -0.7137604 1.8756104 -0.7137604 2.9601593c0 1.1280212 0.2342987 2.1412964 0.7028961 3.039856c0.4685974 0.8961334 1.1219788 1.6038666 1.960144 2.1231842c0.8381653 0.5193329 1.8055573 0.7789917 2.902176 0.7789917c0.80192566 0 1.5072479 -0.10748291 2.1159515 -0.322464c0.60868835 -0.21498108 1.0869446 -0.46618652 1.4347839 -0.7536316c0.350235 -0.28985596 0.5253601 -0.55433655 0.5253601 -0.7934723c0 -0.17633057 -0.051940918 -0.3200531 -0.1558075 -0.4311676c-0.10386658 -0.11352539 -0.24516296 -0.17028809 -0.42390442 -0.17028809c-0.20773315 0 -0.3744049 0.07850647 -0.5 0.23551941c-0.12561035 0.15458679 -0.33695984 0.31399536 -0.6340637 0.47825623c-0.22221375 0.13284302 -0.50120544 0.25120544 -0.83695984 0.35507202c-0.33332825 0.10386658 -0.7971039 0.15579224 -1.3912964 0.15579224c-0.85990906 0 -1.6207733 -0.20410156 -2.2826233 -0.61231995c-0.65940857 -0.40820312 -1.1714935 -0.96739197 -1.5362244 -1.677536c-0.36231995 -0.71255493 -0.54348755 -1.5144958 -0.54348755 -2.4057922c0 -0.8768158 0.1932373 -1.6666718 0.5797119 -2.3695679c0.3864746 -0.70532227 0.9130554 -1.2657013 1.5797119 -1.6811676c0.66908264 -0.41545105 1.4190979 -0.6231842 2.2500153 -0.6231842c0.44444275 0 0.8478241 0.03742981 1.210144 0.11231995c0.36473083 0.07246399 0.64372253 0.15338135 0.8369446 0.24275208c0.20773315 0.10386658 0.36354065 0.21498108 0.46739197 0.33332825c0.10386658 0.11836243 0.21136475 0.222229 0.322464 0.31159973c0.1111145 0.08937073 0.2632904 0.13406372 0.4565277 0.13406372c0.1642456 0 0.30194092 -0.0700531 0.41304016 -0.2101593c0.1111145 -0.14250183 0.16667175 -0.2874298 0.16667175 -0.43478394c0 -0.31158447 -0.18235779 -0.600235 -0.5471039 -0.8659363c-0.36231995 -0.26811218 -0.8405762 -0.47946167 -1.4347839 -0.6340637c-0.59420776 -0.15699768 -1.2475891 -0.23550415 -1.960144 -0.23550415z" fill-rule="evenodd"/><path fill="#ffffff" d="m202.50598 236.23242c0.7874298 0 1.4855042 0.20773315 2.0941925 0.6231842c0.6087036 0.4154663 1.0869598 0.972229 1.4347839 1.6702881c0.34783936 0.69566345 0.5217438 1.4818878 0.5217438 2.3587036c0 0.8888855 -0.17390442 1.6932373 -0.5217438 2.4130402c-0.3478241 0.7198181 -0.8260803 1.2838287 -1.4347839 1.6920319c-0.60868835 0.40821838 -1.3067627 0.61231995 -2.0941925 0.61231995c-0.7850342 0 -1.4855194 -0.20410156 -2.1014557 -0.61231995c-0.61595154 -0.40820312 -1.0954132 -0.97221375 -1.4384155 -1.6920319c-0.34057617 -0.71980286 -0.51086426 -1.5241547 -0.51086426 -2.4130402c0 -0.90579224 0.17391968 -1.7065277 0.5217438 -2.402176c0.350235 -0.69807434 0.83332825 -1.2475891 1.4492798 -1.6485596c0.6159363 -0.4009552 1.3091736 -0.6014404 2.079712 -0.6014404zm-0.1558075 -1.2463837c-0.9782562 0 -1.8611145 0.2524109 -2.6485443 0.7572479c-0.78744507 0.5024109 -1.4118347 1.1956482 -1.8731995 2.079712c-0.4589386 0.8840637 -0.68840027 1.9045868 -0.68840027 3.0615997c0 1.1280212 0.22584534 2.144928 0.677536 3.0507202c0.45410156 0.9033966 1.0785065 1.6147461 1.8731842 2.1340637c0.794693 0.5193329 1.6884155 0.7789917 2.6811676 0.7789917c0.64009094 0 1.2306824 -0.114730835 1.7717438 -0.34420776c0.5410614 -0.22946167 1.0120697 -0.52897644 1.4130402 -0.8985443c0.38230896 -0.35466003 0.6866455 -0.735672 0.91304016 -1.1430359l0 0l0 1.4981079c0 0.17633057 0.059188843 0.3321228 0.17753601 0.46739197c0.11836243 0.13284302 0.2814026 0.19926453 0.48913574 0.19926453c0.17874146 0 0.33454895 -0.06642151 0.46739197 -0.19926453c0.13285828 -0.13526917 0.19927979 -0.2910614 0.19927979 -0.46739197l0 -10.018127c0 -0.1932373 -0.062805176 -0.35627747 -0.18841553 -0.48913574c-0.1255951 -0.13526917 -0.28501892 -0.20289612 -0.47825623 -0.20289612c-0.20773315 0 -0.37077332 0.06762695 -0.48913574 0.20289612c-0.11834717 0.13285828 -0.17753601 0.29589844 -0.17753601 0.48913574l0 1.399292l0 0c-0.22453308 -0.41130066 -0.51438904 -0.7811127 -0.8695526 -1.109436c-0.4154663 -0.3864746 -0.9021759 -0.6908264 -1.4601593 -0.91304016c-0.555542 -0.222229 -1.1521759 -0.3333435 -1.789856 -0.3333435z" fill-rule="evenodd"/><path fill="#ffffff" d="m212.85631 232.15633c-0.19082642 0 -0.35025024 0.06762695 -0.47827148 0.20289612c-0.1255951 0.13285828 -0.18840027 0.2886505 -0.18840027 0.46739197l0 2.4710236l-1.6231842 0c-0.17874146 0 -0.3321228 0.059173584 -0.46014404 0.17753601c-0.12561035 0.11836243 -0.18841553 0.26690674 -0.18841553 0.4456482c0 0.16183472 0.062805176 0.3067627 0.18841553 0.43478394c0.12800598 0.12561035 0.28138733 0.18840027 0.46014404 0.18840027l1.6231842 0l0 7.521759c0 0.66908264 0.09298706 1.1823578 0.2789917 1.539856c0.18598938 0.35507202 0.41908264 0.6038666 0.6992645 0.7463684c0.28260803 0.1401062 0.5567627 0.22102356 0.822464 0.24275208c0.26812744 0.021743774 0.46981812 0.032608032 0.605072 0.032608032c0.32609558 0 0.60749817 -0.07003784 0.84420776 -0.21014404c0.23672485 -0.14250183 0.35507202 -0.31762695 0.35507202 -0.5253601c0 -0.16183472 -0.048309326 -0.29467773 -0.14492798 -0.3985443c-0.094192505 -0.10386658 -0.20892334 -0.1558075 -0.3441925 -0.1558075c-0.11836243 0 -0.22584534 0.018127441 -0.322464 0.054351807c-0.09661865 0.036239624 -0.20410156 0.054351807 -0.322464 0.054351807c-0.17875671 0 -0.35749817 -0.032608032 -0.5362396 -0.0978241c-0.17633057 -0.06764221 -0.32003784 -0.20532227 -0.43115234 -0.41304016c-0.1111145 -0.20773315 -0.16667175 -0.5193329 -0.16667175 -0.93478394l0 -7.456543l2.22464 0c0.17874146 0 0.32730103 -0.059173584 0.4456482 -0.17753601c0.11836243 -0.120773315 0.17753601 -0.2620697 0.17753601 -0.42390442c0 -0.17874146 -0.059173584 -0.33091736 -0.17753601 -0.4565277c-0.11834717 -0.1255951 -0.26690674 -0.18840027 -0.4456482 -0.18840027l-2.22464 0l0 -2.4710236c0 -0.17874146 -0.06401062 -0.3345337 -0.19203186 -0.46739197c-0.1255951 -0.13526917 -0.28501892 -0.20289612 -0.47825623 -0.20289612z" fill-rule="evenodd"/><path fill="#ffffff" d="m219.38826 231.66719c-0.294693 0 -0.52778625 0.071258545 -0.6992798 0.21377563c-0.17150879 0.14009094 -0.25724792 0.34420776 -0.25724792 0.61231995l0 0.2210083c0 0.26812744 0.077301025 0.472229 0.23188782 0.61231995c0.15699768 0.1401062 0.3912964 0.21014404 0.7028961 0.21014404c0.29710388 0 0.5229492 -0.07003784 0.677536 -0.21014404c0.15701294 -0.14009094 0.23550415 -0.3441925 0.23550415 -0.61231995l0 -0.2210083c0 -0.26811218 -0.07849121 -0.472229 -0.23550415 -0.61231995c-0.15458679 -0.14251709 -0.3731842 -0.21377563 -0.65579224 -0.21377563zm0.079711914 3.3840637c-0.19082642 0 -0.35025024 0.06764221 -0.47827148 0.20289612c-0.1255951 0.13285828 -0.18840027 0.28744507 -0.18840027 0.46377563l0 10.242767c0 0.17633057 0.062805176 0.3321228 0.18840027 0.46739197c0.12802124 0.13284302 0.28744507 0.19926453 0.47827148 0.19926453c0.17874146 0 0.3345337 -0.06642151 0.46739197 -0.19926453c0.1352539 -0.13526917 0.20289612 -0.2910614 0.20289612 -0.46739197l0 -10.242767c0 -0.17633057 -0.06401062 -0.33091736 -0.19203186 -0.46377563c-0.12561035 -0.1352539 -0.28501892 -0.20289612 -0.47825623 -0.20289612z" fill-rule="evenodd"/><path fill="#ffffff" d="m228.48543 236.23242c0.83091736 0 1.5688324 0.20410156 2.2137604 0.61231995c0.6473541 0.40820312 1.1558075 0.9649811 1.5253754 1.6702881c0.37197876 0.7028961 0.55796814 1.5072479 0.55796814 2.4130402c0 0.9058075 -0.18598938 1.7077332 -0.55796814 2.4058075c-0.36956787 0.6956482 -0.87802124 1.2475891 -1.5253754 1.6557922c-0.644928 0.40821838 -1.382843 0.61231995 -2.2137604 0.61231995c-0.81643677 0 -1.5483093 -0.20410156 -2.1956635 -0.61231995c-0.644928 -0.40820312 -1.1569977 -0.96014404 -1.5362244 -1.6557922c-0.3768158 -0.69807434 -0.56521606 -1.5 -0.56521606 -2.4058075c0 -0.90579224 0.18840027 -1.710144 0.56521606 -2.4130402c0.37922668 -0.70532227 0.8912964 -1.262085 1.5362244 -1.6702881c0.6473541 -0.40821838 1.3792267 -0.61231995 2.1956635 -0.61231995zm0 -1.2463837c-1.0531464 0 -2.007248 0.2596588 -2.86232 0.7789917c-0.85266113 0.5193176 -1.5277863 1.2246399 -2.0253754 2.1159363c-0.4975891 0.88890076 -0.7463684 1.904602 -0.7463684 3.047104c0 1.1280212 0.2487793 2.1413116 0.7463684 3.0398712c0.4975891 0.8985443 1.1727142 1.6038513 2.0253754 2.1159363c0.855072 0.5096588 1.8091736 0.76449585 2.86232 0.76449585c1.067627 0 2.0241547 -0.25483704 2.8695679 -0.76449585c0.8478241 -0.51208496 1.5193176 -1.217392 2.0144958 -2.1159363c0.4975891 -0.8985596 0.7463684 -1.91185 0.7463684 -3.0398712c0 -1.1425018 -0.2487793 -2.1582031 -0.7463684 -3.047104c-0.49517822 -0.8912964 -1.1666718 -1.5966187 -2.0144958 -2.1159363c-0.8454132 -0.5193329 -1.8019409 -0.7789917 -2.8695679 -0.7789917z" fill-rule="evenodd"/><path fill="#ffffff" d="m242.21979 234.98604c-0.53382874 0 -1.0640106 0.100250244 -1.5905762 0.3007202c-0.5265808 0.20048523 -1.0060577 0.4746399 -1.4384155 0.82247925c-0.4003601 0.3238678 -0.73368835 0.6875458 -1.0 1.0910034l0 0l0 -1.2142029c0 -0.17874146 -0.062805176 -0.3345337 -0.18840027 -0.46739197c-0.12561035 -0.13284302 -0.28503418 -0.19926453 -0.47827148 -0.19926453c-0.1932373 0 -0.35386658 0.06642151 -0.48187256 0.19926453c-0.12561035 0.13285828 -0.18841553 0.2886505 -0.18841553 0.46739197l0 9.974655c0 0.17633057 0.059188843 0.3321228 0.17753601 0.46739197c0.120773315 0.13284302 0.28503418 0.19926453 0.49275208 0.19926453c0.17633057 0 0.33091736 -0.06642151 0.46377563 -0.19926453c0.13526917 -0.13526917 0.20289612 -0.2910614 0.20289612 -0.46739197l0 -6.4782715c0 -0.59420776 0.17753601 -1.1352692 0.53260803 -1.6231842c0.3574829 -0.4903412 0.82125854 -0.8840637 1.3913116 -1.1811676c0.572464 -0.29710388 1.177536 -0.4456482 1.8152161 -0.4456482c0.71255493 0 1.2874298 0.14854431 1.7246399 0.4456482c0.43962097 0.29710388 0.75483704 0.6908264 0.9456482 1.1811676c0.1932373 0.48791504 0.28985596 1.0289764 0.28985596 1.6231842l0 6.4782715c0 0.17633057 0.059188843 0.3321228 0.17753601 0.46739197c0.120773315 0.13284302 0.28503418 0.19926453 0.49275208 0.19926453c0.17633057 0 0.33091736 -0.06642151 0.46377563 -0.19926453c0.13526917 -0.13526917 0.20289612 -0.2910614 0.20289612 -0.46739197l0 -6.547119c0 -0.8164215 -0.13043213 -1.5615845 -0.3912964 -2.2355042c-0.25846863 -0.67633057 -0.6811676 -1.210144 -1.2681274 -1.6014557c-0.58454895 -0.39370728 -1.367157 -0.5905762 -2.347824 -0.5905762z" fill-rule="evenodd"/></g></svg>