<svg version="1.1" viewBox="0.0 0.0 301.48818897637796 224.7244094488189" fill="none" stroke="none" stroke-linecap="square" stroke-miterlimit="10" xmlns:xlink="http://www.w3.org/1999/xlink" xmlns="http://www.w3.org/2000/svg"><clipPath id="p.0"><path d="m0 0l301.4882 0l0 224.72441l-301.4882 0l0 -224.72441z" clip-rule="nonzero"/></clipPath><g clip-path="url(#p.0)"><path fill="#000000" fill-opacity="0.0" d="m0 0l301.4882 0l0 224.72441l-301.4882 0z" fill-rule="evenodd"/><path fill="#f1c27d" d="m102.28224 19.929863l-10.169098 7.852478l-14.356529 12.083813l-10.768059 12.081146l-7.775902 14.497906l-8.97382 11.476295l-5.3827095 7.2502823l-8.374859 7.852478l-5.9816685 -1.2070465l-5.9816666 -10.8741l-8.97382 -4.8335266l-8.971182 1.2097168l-6.580625 6.6454315l1.7942362 12.081146l0.5989584 10.269241l-0.039578676 12.686005l2.9895139 11.476288l12.6018715 12.081146l12.580763 1.2097168l5.364237 18.12172l9.572781 9.667038l15.551804 4.228668l11.965973 -1.8145599l5.3827057 10.8741l5.981674 12.685989l7.1795807 7.8524933l10.166458 2.416748l11.367012 0l7.1795883 -3.0189514l4.1874313 7.852478l9.570129 4.228668l7.7759094 4.228668l8.973816 3.6238098l14.95285 -5.4357147l7.778549 -8.457336l10.166458 -25.37201l10.770691 -31.412567l13.757568 -23.560104l5.9790344 -8.457336l8.374863 0l9.572769 9.667053l8.973816 13.893051l6.5779877 10.269241l8.976471 4.228668l12.562286 3.0216064l9.570129 0l11.367035 -4.8335114l9.570129 -6.6454315l1.79422 -8.457336l-11.965973 -10.269241l-12.562286 -7.852478l-7.3009644 -5.438385l-5.261322 -9.664383l-4.7837524 -7.852478l-6.583252 -7.852478l-3.7467957 -6.040573l-7.1954193 -15.102768l0 -9.062195l-5.992218 -16.30981l-5.992218 -10.269241l-5.994858 -12.081146l-13.184998 -7.250286l-14.984512 -9.062193l-23.372574 -5.4357166l-13.786591 -3.623811l-21.573044 4.8308597z" fill-rule="evenodd"/><path fill="#000000" fill-opacity="0.0" d="m198.74055 111.147316l-4.6359863 2.414093l-6.7283783 -0.90595245l-11.963333 -6.341667" fill-rule="evenodd"/><path stroke="#dab176" stroke-width="2.0" stroke-linejoin="round" stroke-linecap="butt" d="m198.74055 111.147316l-4.6359863 2.414093l-6.7283783 -0.90595245l-11.963333 -6.341667" fill-rule="evenodd"/><path fill="#000000" fill-opacity="0.0" d="m165.69232 96.9505l5.8681946 3.9275742l5.1980133 3.0189514l9.757477 4.228668" fill-rule="evenodd"/><path stroke="#dab176" stroke-width="2.0" stroke-linejoin="round" stroke-linecap="butt" d="m165.69232 96.9505l5.8681946 3.9275742l5.1980133 3.0189514l9.757477 4.228668" fill-rule="evenodd"/><path fill="#000000" fill-opacity="0.0" d="m150.43867 153.88431l-5.984314 1.5108032l-3.1399078 2.5686493l-2.2427979 4.8308563l3.4407043 4.6816406l4.6360016 9.214081l7.176941 11.780045l-2.6913605 -6.496216l1.0475159 -1.8119049l5.084549 0.6048584l5.6835175 4.8335266" fill-rule="evenodd"/><path stroke="#dab176" stroke-width="2.0" stroke-linejoin="round" stroke-linecap="butt" d="m150.43867 153.88431l-5.984314 1.5108032l-3.1399078 2.5686493l-2.2427979 4.8308563l3.4407043 4.6816406l4.6360016 9.214081l7.176941 11.780045l-2.6913605 -6.496216l1.0475159 -1.8119049l5.084549 0.6048584l5.6835175 4.8335266" fill-rule="evenodd"/><path fill="#000000" fill-opacity="0.0" d="m127.707275 147.39075l-6.132065 -1.9637756l-4.039665 -0.6021881l-5.981674 -0.45298767l-1.643837 1.6600342l-3.1399078 3.0216064l-0.5989609 3.0189667" fill-rule="evenodd"/><path stroke="#dab176" stroke-width="2.0" stroke-linejoin="round" stroke-linecap="butt" d="m127.707275 147.39075l-6.132065 -1.9637756l-4.039665 -0.6021881l-5.981674 -0.45298767l-1.643837 1.6600342l-3.1399078 3.0216064l-0.5989609 3.0189667" fill-rule="evenodd"/><path fill="#fbcf8f" d="m33.770264 96.95139l-6.274828 6.9465256l4.1814613 13.290863l1.7954464 15.100098l-0.59848404 10.8741l-13.150776 0.3037567l-14.044544 -11.780045l-3.5882535 -12.083809l1.1969633 -17.817963l-3.2876942 -16.914673l4.1840987 -7.2502823l10.759487 -1.5108109l10.161005 3.9275742z" fill-rule="evenodd"/><path fill="#fbd9b6" d="m4.0808144 104.50276l5.3827085 0.60219574l3.8892708 -1.5081482l2.9895144 -0.3037567l-0.5963192 -6.341675l-1.7942362 -7.2502823l-2.0950356 0.90595245l-4.1874304 -0.60219574l-2.6913543 -1.5108109l-3.5884724 -0.60485077l1.1952779 4.5297623l1.1952779 7.551384z" fill-rule="evenodd"/><path fill="#fbcf8f" d="m65.74433 124.740135l-4.482952 8.7584305l7.83395 14.732391l1.7942352 15.100098l-0.59895325 10.8741l-10.22451 1.8811951l-13.448856 -4.8335266l-10.161182 -12.987106l-5.3800697 -38.662865l-3.5858326 -16.00605l6.2771893 -7.551384l11.952778 0.30109406l14.058369 9.968147z" fill-rule="evenodd"/><path fill="#fbd9b6" d="m34.357773 125.947174l5.2276573 0.30109406l4.6295357 -0.45298004l3.0512238 -2.3314896l0.98018646 -5.219887l-3.4332848 -8.7584305l-2.5400543 0.4529724l-3.13554 -0.30109406l-3.2198563 -0.9725723l-6.0392094 -1.2923126l1.0460567 5.2838364l2.0894814 7.7032623z" fill-rule="evenodd"/><path fill="#fbcf8f" d="m69.63004 125.0412l-5.3810577 4.52977l-1.4948883 6.6454163l2.0933685 6.946533l3.585617 6.946533l1.7928085 8.156235l0.89640045 7.5513763l2.6918564 10.269241l4.4820175 10.570343l4.4820175 7.25029l6.5753937 7.852478l7.471794 3.6238098l12.254372 2.4167633l7.7697144 -1.5108185l1.1943283 -4.8308563l-5.3784256 -10.8741l-4.782585 -8.156235l-6.274826 -6.341675l-2.3912888 -3.6238098l3.585617 -5.7394714l4.4820175 -5.7394867l1.1969681 -3.6238098l-2.0933685 -12.686005l-4.7799454 -8.457336l-8.966682 -6.946518l-8.368195 -4.228668l-7.471794 -1.5108109z" fill-rule="evenodd"/><path fill="#fbd9b6" d="m72.290665 157.05861l5.7414627 1.74263l3.9681702 -0.53556824l1.9392929 -1.6600342l-2.0894775 -9.062195l-1.941925 -6.34433l-3.5834808 0.9059601l-2.8377914 -0.1492157l-4.1816025 -1.2097168l-3.5834732 -2.1130066l-0.59812164 3.0189514l4.9272766 9.214081z" fill-rule="evenodd"/><path fill="#fbcf8f" d="m153.6081 184.8447l-2.3879242 -5.134613l-3.5884705 -6.040573l-2.9868774 -4.52977l-5.0792694 -4.532425l-5.979019 -4.228668l-7.1716766 -3.320053l-9.863022 -0.9086151l-7.7706223 -0.30110168l-4.1847916 7.25029l-3.5858383 5.134613l-0.89447784 5.1346283l5.0792694 6.341675l7.171669 10.572998l4.4855957 9.965485l3.8813553 7.2502747l6.8761444 6.341675l10.757507 5.134613l10.760132 3.62648l9.564865 0.6021881l7.76799 -4.228668l4.5805817 -5.736801l-0.39579773 -6.6454315l-9.863022 -12.384903l-2.9895172 -4.228668z" fill-rule="evenodd"/><path fill="#fbd9b6" d="m115.45145 186.2036l2.2396774 1.2097168l4.331787 0.6021881l3.88385 0l4.9272842 -2.414093l-0.15019226 -2.2675476l-3.4332886 -4.681656l-1.7917328 0.9086304l-5.9733353 0.75405884l-11.053444 -0.9059448l1.0460587 1.6600189l2.389862 3.1735077z" fill-rule="evenodd"/><defs><radialGradient id="p.1" gradientUnits="userSpaceOnUse" gradientTransform="matrix(8.552331740456452 0.0 0.0 8.552331740456452 0.0 0.0)" spreadMethod="pad" cx="15.467587175044102" cy="9.571532445084875" fx="15.467587175044102" fy="9.571532445084875" r="8.552331924438477"><stop offset="0.0" stop-color="#3177ee"/><stop offset="1.4E-45" stop-color="#4a86e8"/><stop offset="0.99999994" stop-color="#194ca3"/><stop offset="1.0" stop-color="#113d8a"/></radialGradient></defs><path fill="url(#p.1)" d="m81.11858 81.85892l0 0c0 -28.866661 22.907509 -52.267715 51.16535 -52.267715l0 0c13.5699005 0 26.584 5.5067616 36.179367 15.308859c9.595367 9.802101 14.985992 23.096596 14.985992 36.958855l0 0c0 28.866669 -22.907516 52.267715 -51.16536 52.267715l0 0c-28.257843 0 -51.16535 -23.401047 -51.16535 -52.267715z" fill-rule="evenodd"/><path stroke="#3c78d8" stroke-width="4.0" stroke-linejoin="round" stroke-linecap="butt" d="m81.11858 81.85892l0 0c0 -28.866661 22.907509 -52.267715 51.16535 -52.267715l0 0c13.5699005 0 26.584 5.5067616 36.179367 15.308859c9.595367 9.802101 14.985992 23.096596 14.985992 36.958855l0 0c0 28.866669 -22.907516 52.267715 -51.16536 52.267715l0 0c-28.257843 0 -51.16535 -23.401047 -51.16535 -52.267715z" fill-rule="evenodd"/></g></svg>