<?xml version="1.0" encoding="UTF-8" standalone="no"?>
<svg
   xmlns:dc="http://purl.org/dc/elements/1.1/"
   xmlns:cc="http://creativecommons.org/ns#"
   xmlns:rdf="http://www.w3.org/1999/02/22-rdf-syntax-ns#"
   xmlns:svg="http://www.w3.org/2000/svg"
   xmlns="http://www.w3.org/2000/svg"
   xmlns:sodipodi="http://sodipodi.sourceforge.net/DTD/sodipodi-0.dtd"
   xmlns:inkscape="http://www.inkscape.org/namespaces/inkscape"
   id="Layer_1"
   viewBox="-28.5 11 56 16"
   version="1.1"
   inkscape:version="0.91 r13725"
   sodipodi:docname="hasuranew.svg"
   width="56"
   height="16">
  <metadata
     id="metadata19">
    <rdf:RDF>
      <cc:Work
         rdf:about="">
        <dc:format>image/svg+xml</dc:format>
        <dc:type
           rdf:resource="http://purl.org/dc/dcmitype/StillImage" />
        <dc:title>Asset 1</dc:title>
      </cc:Work>
    </rdf:RDF>
  </metadata>
  <defs
     id="defs17" />
  <sodipodi:namedview
     pagecolor="#ffffff"
     bordercolor="#666666"
     borderopacity="1"
     objecttolerance="10"
     gridtolerance="10"
     guidetolerance="10"
     inkscape:pageopacity="0"
     inkscape:pageshadow="2"
     inkscape:window-width="640"
     inkscape:window-height="480"
     id="namedview15"
     showgrid="false"
     inkscape:zoom="4.1560562"
     inkscape:cx="46.588097"
     inkscape:cy="12.621658"
     inkscape:window-x="0"
     inkscape:window-y="0"
     inkscape:window-maximized="0"
     inkscape:current-layer="Layer_1" />
  <style
     id="style3">.st0{fill:#4d4d4d}.st1{fill:#ffc627}.st2{fill:#232323}</style>
  <title
     id="title5">Asset 1</title>
  <g
     id="Layer_2"
     transform="matrix(0.5668284,0,0,0.5668284,-12.222902,6.505613)">
    <path
       class="st0"
       d="m 4,13.7 2.7,0 0,7.9 3.3,0 0,-7.9 2.7,0 0,18.5 -2.8,0 0,-8.2 -3.2,0 0,8.2 -2.7,0 0,-18.5 z m 14.2,0 2.2,0 4.1,18.5 -2.7,0 -0.8,-4 -3.6,0 -0.8,4 -2.6,0 4.2,-18.5 z m 1.1,5.3 -1.3,6.7 2.7,0 -1.4,-6.7 z m 15.2,0 -2.7,0 0,-0.6 c 0,-0.6 -0.1,-1.1 -0.4,-1.6 -0.3,-0.5 -0.9,-0.7 -1.4,-0.7 -0.3,0 -0.6,0.1 -0.9,0.2 -0.2,0.1 -0.4,0.3 -0.5,0.5 -0.1,0.2 -0.2,0.5 -0.3,0.8 -0.1,0.3 -0.1,0.6 -0.1,0.9 l 0,0.9 c 0,0.2 0.1,0.4 0.2,0.6 0.1,0.2 0.3,0.4 0.5,0.5 0.3,0.2 0.5,0.3 0.8,0.4 l 2,0.8 c 0.5,0.2 1,0.5 1.4,0.8 0.4,0.3 0.7,0.7 0.9,1.1 0.2,0.4 0.3,0.9 0.4,1.4 0.1,0.6 0.1,1.2 0.1,1.8 0,0.7 -0.1,1.5 -0.2,2.2 -0.1,0.6 -0.4,1.2 -0.8,1.7 -0.4,0.5 -0.9,0.9 -1.4,1.1 -0.7,0.3 -1.4,0.4 -2.2,0.4 -0.6,0 -1.2,-0.1 -1.8,-0.3 -1.1,-0.4 -1.9,-1.3 -2.4,-2.3 -0.2,-0.5 -0.4,-1.1 -0.4,-1.7 l 0,-1 2.7,0 0,0.8 c 0,0.5 0.1,0.9 0.4,1.3 0.4,0.4 0.9,0.6 1.5,0.6 0.4,0 0.7,0 1.1,-0.2 0.2,-0.1 0.4,-0.3 0.6,-0.6 0.1,-0.3 0.2,-0.6 0.2,-0.9 l 0,-2.3 c 0,-0.3 -0.1,-0.5 -0.2,-0.8 -0.1,-0.2 -0.3,-0.4 -0.5,-0.5 -0.3,-0.1 -0.5,-0.3 -0.8,-0.4 l -1.9,-0.8 c -1,-0.3 -1.8,-1 -2.3,-1.8 -0.4,-0.9 -0.6,-1.9 -0.6,-2.9 0,-0.7 0.1,-1.4 0.3,-2 0.2,-0.6 0.5,-1.1 0.9,-1.6 0.4,-0.5 0.9,-0.8 1.4,-1.1 0.6,-0.3 1.3,-0.4 2,-0.4 0.6,0 1.2,0.1 1.8,0.4 0.5,0.2 1,0.6 1.4,1 0.4,0.4 0.7,0.8 0.9,1.3 0.2,0.5 0.3,1 0.3,1.5 l 0,1.5 z m 10.7,9.1 c 0,0.6 -0.1,1.2 -0.3,1.7 -0.4,1 -1.3,1.9 -2.3,2.3 -1.1,0.5 -2.3,0.5 -3.3,0 -1,-0.4 -1.8,-1.3 -2.3,-2.3 -0.2,-0.5 -0.3,-1.1 -0.3,-1.7 l 0,-14.4 2.7,0 0,14.1 c 0,0.5 0.1,1.1 0.5,1.5 0.7,0.6 1.7,0.6 2.3,0 0.3,-0.4 0.5,-0.9 0.5,-1.5 l 0,-14.1 2.7,0 -0.2,14.4 z m 2.6,-14.4 4.3,0 c 3.1,0 4.7,1.8 4.7,5.4 0,0.9 -0.2,1.9 -0.5,2.8 -0.4,0.8 -1,1.5 -1.8,1.9 l 2.9,8.5 -2.8,0 -2.5,-7.9 -1.6,0 0,7.9 -2.7,0 0,-18.6 z m 2.7,8.3 1.5,0 c 0.4,0 0.8,-0.1 1.1,-0.2 0.3,-0.1 0.5,-0.3 0.6,-0.6 0.2,-0.3 0.3,-0.6 0.3,-0.9 0.1,-0.4 0.1,-0.8 0.1,-1.2 0,-0.4 0,-0.8 -0.1,-1.2 C 54,17.6 53.8,17.3 53.7,17 53.5,16.7 53.3,16.6 53,16.4 52.6,16.3 52.2,16.2 51.8,16.2 l -1.4,0 0,5.8 z m 11.5,-8.3 2.2,0 4.1,18.5 -2.6,0 -0.8,-4 -3.6,0 -0.8,4 -2.7,0 4.2,-18.5 z m 1.1,5.3 -1.3,6.7 2.6,0 -1.3,-6.7 z"
       id="Layer_1-2"
       inkscape:connector-curvature="0"
       style="fill:#4d4d4d" />
  </g>
  <circle
     class="st1"
     cx="-21.518887"
     cy="20.789688"
     r="4.534627"
     id="circle9"
     style="fill:#ffc627" />
  <path
     class="st2"
     d="m -19.705037,22.150077 -1.700485,-3.344288 c -0.170048,-0.283414 -0.510145,-0.39678 -0.79356,-0.283414 -0.283414,0.170048 -0.39678,0.510146 -0.283414,0.79356 l 0.736877,1.360388 -1.247022,1.247022 c -0.226732,0.226732 -0.226732,0.623512 0,0.850243 0.113365,0.113366 0.283414,0.170048 0.396779,0.170048 0.170049,0 0.283415,-0.05668 0.39678,-0.170048 l 1.020291,-1.020291 0.39678,0.850242 c 0.113366,0.226732 0.340097,0.340097 0.510146,0.340097 0.113366,0 0.170048,0 0.283414,-0.05668 0.340097,-0.05668 0.453463,-0.39678 0.283414,-0.736877"
     id="path11"
     inkscape:connector-curvature="0"
     style="fill:#232323" />
  <path
     class="st2"
     d="m -17.437723,12.910774 c -0.340097,0.226731 0.226731,2.153948 -1.133657,3.344287 -0.850243,-0.566828 -1.870534,-0.906925 -2.947508,-0.906925 -1.076974,0 -2.097265,0.340097 -2.947507,0.850243 -1.360388,-1.133657 -0.79356,-3.117557 -1.133657,-3.344288 -0.566829,-0.340097 -1.58712,1.700485 -1.473754,2.947508 0.05668,0.680194 0.226731,1.700485 0.736877,2.494045 -0.39678,0.736877 -0.566828,1.530436 -0.566828,2.437362 0,3.00419 2.437362,5.441552 5.441552,5.441552 3.004191,0 5.441553,-2.437362 5.441553,-5.441552 0,-0.850243 -0.226732,-1.700485 -0.566829,-2.437362 0.510146,-0.79356 0.680195,-1.813851 0.736877,-2.494045 0,-1.247023 -1.020291,-3.230922 -1.587119,-2.890825 m -4.081165,12.073445 c -2.323996,0 -4.19453,-1.870534 -4.19453,-4.251213 0,-2.323997 1.870534,-4.19453 4.19453,-4.19453 2.323997,0 4.251213,1.870533 4.251213,4.19453 0,2.380679 -1.927216,4.251213 -4.251213,4.251213"
     id="path13"
     inkscape:connector-curvature="0"
     style="fill:#232323" />
</svg>
