<svg version="1.1" viewBox="0.0 0.0 302.9527559055118 251.08136482939634" fill="none" stroke="none" stroke-linecap="square" stroke-miterlimit="10" xmlns:xlink="http://www.w3.org/1999/xlink" xmlns="http://www.w3.org/2000/svg"><clipPath id="p.0"><path d="m0 0l302.95276 0l0 251.08136l-302.95276 0l0 -251.08136z" clip-rule="nonzero"/></clipPath><g clip-path="url(#p.0)"><path fill="#000000" d="m0 0l302.95276 0l0 251.08136l-302.95276 0z" fill-rule="evenodd"/><path fill="#f1c27d" d="m199.17155 19.911123l10.1689 7.8424225l14.353302 12.068338l10.768936 12.065674l7.774048 14.479347l8.971466 11.461594l5.3844757 7.2409973l8.374084 7.84243l5.9792175 -1.2055054l5.981842 -10.860176l8.974121 -4.8273315l8.968842 1.2081604l6.579254 6.6369247l-1.7921753 12.065674l-0.6000366 10.256088l-2.392212 14.479347l-4.7844543 15.684853l-8.374084 6.032837l-12.57962 1.2081604l-5.363312 18.09851l-9.571503 9.654678l-15.550735 4.2232513l-11.96373 -1.8122559l-5.3818207 10.860184l-5.9818573 12.669754l-7.179291 7.8424225l-10.16626 2.4136658l-11.363693 0l-7.179291 -3.015091l-4.187042 7.8424225l-9.568863 4.2232513l-7.7766876 4.2232513l-8.971466 3.6191711l-14.953339 -5.4287567l-7.7766876 -8.446503l-10.16626 -25.339508l-10.768936 -31.37236l-13.755905 -23.529938l-5.9792175 -8.446495l-8.374084 0l-9.57151 9.654671l-8.97147 13.875259l-6.579254 10.256088l-8.974117 4.2232513l-12.561119 3.017746l-9.568863 0l-11.366333 -4.8273315l-9.568865 -6.636917l-1.794823 -8.446503l11.963725 -10.256088l12.561119 -7.84243l7.300886 -5.4314194l5.260233 -9.652008l4.7844315 -7.8424225l6.5818977 -7.8424225l3.748249 -6.032837l7.1925087 -15.083427l0 -9.050587l5.9924355 -16.288929l5.9924393 -10.256092l5.9924316 -12.065674l13.184944 -7.241003l14.982414 -9.050588l23.369705 -5.4287558l13.784988 -3.6191707l21.572235 4.8246737z" fill-rule="evenodd"/><path fill="#000000" fill-opacity="0.0" d="m102.72253 111.0131l4.6355286 2.411003l6.7277145 -0.9047928l11.962143 -6.3335495" fill-rule="evenodd"/><path stroke="#dab176" stroke-width="2.0" stroke-linejoin="round" stroke-linecap="butt" d="m102.72253 111.0131l4.6355286 2.411003l6.7277145 -0.9047928l11.962143 -6.3335495" fill-rule="evenodd"/><path fill="#000000" fill-opacity="0.0" d="m135.76749 96.834465l-5.86763 3.9225464l-5.197487 3.0150833l-9.756508 4.2232513" fill-rule="evenodd"/><path stroke="#dab176" stroke-width="2.0" stroke-linejoin="round" stroke-linecap="butt" d="m135.76749 96.834465l-5.86763 3.9225464l-5.197487 3.0150833l-9.756508 4.2232513" fill-rule="evenodd"/><path fill="#000000" fill-opacity="0.0" d="m151.01962 153.69536l5.9837036 1.5088806l3.1396027 2.5653534l2.242569 4.8246765l-3.4403687 4.675644l-4.6355286 9.2022705l-7.1762238 11.764969l2.6910858 -6.4879l-1.0474243 -1.8095856l-5.0840454 0.6040802l-5.6829376 4.827347" fill-rule="evenodd"/><path stroke="#dab176" stroke-width="2.0" stroke-linejoin="round" stroke-linecap="butt" d="m151.01962 153.69536l5.9837036 1.5088806l3.1396027 2.5653534l2.242569 4.8246765l-3.4403687 4.675644l-4.6355286 9.2022705l-7.1762238 11.764969l2.6910858 -6.4879l-1.0474243 -1.8095856l-5.0840454 0.6040802l-5.6829376 4.827347" fill-rule="evenodd"/><path fill="#000000" fill-opacity="0.0" d="m173.74875 147.21013l6.1314545 -1.9612732l4.039261 -0.6014252l5.981079 -0.45239258l1.6436768 1.657898l3.1396027 3.017746l0.5988922 3.015091" fill-rule="evenodd"/><path stroke="#dab176" stroke-width="2.0" stroke-linejoin="round" stroke-linecap="butt" d="m173.74875 147.21013l6.1314545 -1.9612732l4.039261 -0.6014252l5.981079 -0.45239258l1.6436768 1.657898l3.1396027 3.017746l0.5988922 3.015091" fill-rule="evenodd"/><path fill="#fbcf8f" d="m267.67963 96.831024l6.2792053 6.9376297l-4.184387 13.273842l-1.7966919 15.080765l0.5989075 10.860168l13.159943 0.30337524l10.16806 -6.9402924l4.7832947 -20.512177l1.4959106 -14.175972l3.2900085 -16.893013l-4.1870117 -7.241005l-10.766998 -1.508873l-10.168091 3.9225388z" fill-rule="evenodd"/><path fill="#fbd9b6" d="m297.28772 104.37262l-5.3821716 0.60141754l-3.8888855 -1.5062103l-2.9891968 -0.30337524l0.59625244 -6.333542l1.7940674 -7.241005l2.094818 0.9047928l4.1870117 -0.6014252l2.691101 -1.508873l3.5881042 -0.6040802l-1.1951599 4.523964l-1.1951599 7.54171z" fill-rule="evenodd"/><path fill="#fbcf8f" d="m234.78036 126.99501l2.9892273 6.032837l-5.4454956 15.016907l-1.7966919 15.080765l-2.9259033 10.929352l13.758835 1.8095856l13.458084 -4.8273315l10.766968 -9.351303l11.661377 -40.420273l-3.289978 -17.797806l-6.2792053 -7.54171l-17.943207 2.7143784l-10.832947 12.299858z" fill-rule="evenodd"/><path fill="#fbd9b6" d="m267.38077 125.7894l-5.234436 0.30070496l-4.6355286 -0.45239258l-3.0551605 -2.328514l-0.9814606 -5.2132034l3.4377441 -8.747215l2.543335 0.4524002l3.1395874 -0.3007126l3.2240295 -0.9713211l6.0470276 -1.290657l-1.0473938 5.277069l-2.0921936 7.6933975z" fill-rule="evenodd"/><path fill="#fbcf8f" d="m231.78627 124.88444l5.3848114 4.523964l1.4959259 6.636917l-2.094818 6.9376373l-3.5881195 6.937622l-1.7940521 8.145798l-0.8970337 7.5417175l-2.6937256 10.256088l-4.485153 10.556808l-4.485138 7.2409973l-6.5799713 7.8424225l-7.477005 3.6191711l-12.262909 2.4136658l-7.775131 -1.5088806l-1.1951599 -4.8246613l5.382187 -10.860184l4.785904 -8.145798l6.2792053 -6.333542l-0.8970337 -4.8273315l-0.29812622 -4.5239716l-4.485138 -5.7321167l-1.1977997 -3.6191711l3.289978 -6.6369324l3.5881195 -14.47934l8.972931 -6.937622l8.374023 -4.223259l7.477005 -1.508873z" fill-rule="evenodd"/><path fill="#fbd9b6" d="m229.3977 156.86072l-5.7489014 1.7404022l-3.9733124 -0.53489685l-1.941803 -1.657898l2.0921783 -9.050583l1.9444427 -6.336212l3.5881195 0.90478516l2.8414764 -0.14901733l4.1870117 -1.2081604l3.5881195 -2.1103058l0.5988922 3.015091l-4.933655 9.2022705z" fill-rule="evenodd"/><path fill="#fbcf8f" d="m149.24112 187.92953l2.9918518 -5.4287567l4.1870117 -7.2410126l3.289978 -5.4287567l2.0921936 -5.4314117l5.981079 -4.2232513l7.1788635 -3.315796l9.869949 -0.90745544l7.775131 -0.3007202l4.187027 7.2410126l3.5881042 5.1280365l0.8970337 5.1280518l-5.0840454 6.333542l-7.1762238 10.5594635l-4.487793 9.952728l-3.8862457 7.2409973l-6.8807373 6.333542l-10.764343 5.1280518l-11.964783 5.732132l-8.970291 -3.6191711l-6.281845 -2.1129608l-4.1870117 -4.8246765l-0.89701843 -7.5417023l9.869949 -12.369049l2.9918518 -4.2232513z" fill-rule="evenodd"/><path fill="#fbd9b6" d="m186.17963 185.96802l-2.242569 1.2081757l-4.3374023 0.6014099l-3.8888855 0l-4.933655 -2.4109955l0.15039062 -2.2646484l3.437729 -4.675644l1.7940521 0.90745544l5.981079 0.75309753l11.067749 -0.90478516l-1.047409 1.657898l-2.3929596 3.1694336z" fill-rule="evenodd"/><path fill="#e06666" d="m226.57982 105.698166l-18.492737 6.9553375l10.305511 -24.936653zm-0.04222107 -47.970497l-8.156052 17.997871l-10.345627 -24.919643zm-33.94203 -33.88777l6.9553375 18.492743l-24.936646 -10.305523zm-47.968277 0.03685379l17.995651 8.161413l-24.919647 10.345631zm-33.88999 33.947395l18.492744 -6.9553375l-10.305527 24.93665zm0.03907013 47.962917l8.159195 -17.990295l10.345642 24.919647zm33.945175 33.895355l-6.9553375 -18.492744l24.93666 10.305519zm47.965134 -0.044433594l-17.992508 -8.153839l24.919647 -10.345634zm-67.46906 -75.82959l0 0c9.915031 -23.991772 37.401924 -35.40322 61.3937 -25.48819c23.991776 9.915035 35.40323 37.401928 25.48819 61.393703c-9.915039 23.991768 -37.40193 35.403214 -61.393707 25.48819c-23.991768 -9.915039 -35.403214 -37.40193 -25.488182 -61.393703z" fill-rule="evenodd"/><path fill="#e06666" d="m231.33832 81.766174l-14.435333 13.492096l0 -26.9842zm-18.362091 -44.320885l-0.66371155 19.74997l-19.08046 -19.080452zm-44.31508 -18.356283l13.492096 14.435324l-26.984192 0zm-44.320885 18.356283l19.749977 0.6695175l-19.08046 19.080452zm-18.356285 44.320885l14.435326 -13.492104l0 26.9842zm18.356285 44.31508l0.6695175 -19.744171l19.08046 19.080452zm44.320885 18.362091l-13.492096 -14.435333l26.984192 0zm44.31508 -18.362091l-19.744171 -0.6637192l19.08046 -19.080452zm-91.32295 -44.31508l0 0c0 -25.961735 21.046143 -47.007877 47.007874 -47.007877c25.961731 0 47.007874 21.046143 47.007874 47.007877c0 25.961731 -21.046143 47.007874 -47.007874 47.007874c-25.961731 0 -47.007874 -21.046143 -47.007874 -47.007874z" fill-rule="evenodd"/><defs><radialGradient id="p.1" gradientUnits="userSpaceOnUse" gradientTransform="matrix(8.549700546167324 0.0 0.0 8.549700546167324 0.0 0.0)" spreadMethod="pad" cx="19.726877001759107" cy="9.563168817116662" fx="19.726877001759107" fy="9.563168817116662" r="8.549700736999512"><stop offset="0.0" stop-color="#ff0000"/><stop offset="0.91" stop-color="#aa0202"/><stop offset="0.99999994" stop-color="#7f0303"/><stop offset="1.0" stop-color="#540303"/></radialGradient></defs><path fill="url(#p.1)" d="m117.49354 81.76223l0 0c0 -28.831875 22.907509 -52.204727 51.16535 -52.204727l0 0c13.5699005 0 26.584 5.500124 36.179367 15.290411c9.595367 9.790283 14.985992 23.068764 14.985992 36.914314l0 0c0 28.831871 -22.907516 52.20472 -51.16536 52.20472l0 0c-28.257843 0 -51.16535 -23.372849 -51.16535 -52.20472z" fill-rule="evenodd"/><path stroke="#cc0000" stroke-width="4.0" stroke-linejoin="round" stroke-linecap="butt" d="m117.49354 81.76223l0 0c0 -28.831875 22.907509 -52.204727 51.16535 -52.204727l0 0c13.5699005 0 26.584 5.500124 36.179367 15.290411c9.595367 9.790283 14.985992 23.068764 14.985992 36.914314l0 0c0 28.831871 -22.907516 52.20472 -51.16536 52.20472l0 0c-28.257843 0 -51.16535 -23.372849 -51.16535 -52.20472z" fill-rule="evenodd"/><path fill="#ffffff" d="m52.595383 233.20757l3.1156502 7.6108093l-6.177616 0l3.061966 -7.6108093zm0.0929451 -2.2261505c-0.1497612 0 -0.28019714 0.033813477 -0.39130402 0.10145569c-0.11111069 0.065216064 -0.20410156 0.1799469 -0.27898788 0.3441925l-5.876816 14.380447c-0.028987885 0.10386658 -0.036231995 0.19203186 -0.02173996 0.26449585c0.014492035 0.16426086 0.07367325 0.30194092 0.17753601 0.41305542c0.10386276 0.11109924 0.2596588 0.1666565 0.46739197 0.1666565c0.13526917 0 0.25483322 -0.036224365 0.35869598 -0.108688354c0.10386276 -0.07489014 0.18478394 -0.18719482 0.24275208 -0.33695984l1.6384277 -4.072464l7.245159 0l1.6671524 4.072464c0.060382843 0.13526917 0.14612961 0.24395752 0.2572441 0.32608032c0.11111069 0.079711914 0.24154282 0.11956787 0.39130402 0.11956787c0.17632675 0 0.33091354 -0.05555725 0.46377182 -0.1666565c0.13526535 -0.1111145 0.20289612 -0.27053833 0.20289612 -0.47827148c0 -0.08937073 -0.014492035 -0.17874146 -0.043476105 -0.26811218l-5.8550797 -14.311615c-0.060382843 -0.13526917 -0.14612961 -0.24275208 -0.25724792 -0.322464c-0.11110687 -0.0821228 -0.24033356 -0.123184204 -0.38768005 -0.123184204z" fill-rule="evenodd"/><path fill="#ffffff" d="m63.081257 232.15895c-0.19081879 0 -0.3502388 0.06762695 -0.47826385 0.20289612c-0.12559891 0.13285828 -0.18840408 0.2886505 -0.18840408 0.46739197l0 2.4710236l-1.6231918 0c-0.17874527 0 -0.33213043 0.059173584 -0.46014404 0.17753601c-0.12560272 0.11836243 -0.18840408 0.26690674 -0.18840408 0.4456482c0 0.16183472 0.06280136 0.3067627 0.18840408 0.43478394c0.12802124 0.12561035 0.2814064 0.18840027 0.46014404 0.18840027l1.6231918 0l0 7.521759c0 0.66908264 0.092990875 1.1823578 0.27898407 1.539856c0.1859932 0.35507202 0.41909027 0.6038666 0.699276 0.7463684c0.28261185 0.1401062 0.5567627 0.22102356 0.8224678 0.24275208c0.26811218 0.021743774 0.46980286 0.032608032 0.605072 0.032608032c0.32608795 0 0.6074829 -0.07003784 0.84420013 -0.21014404c0.23671722 -0.14250183 0.35507965 -0.31762695 0.35507965 -0.5253601c0 -0.16183472 -0.048316956 -0.29467773 -0.14492798 -0.3985443c-0.09420776 -0.10386658 -0.2089386 -0.1558075 -0.34420776 -0.1558075c-0.1183548 0 -0.22583771 0.018127441 -0.322464 0.054351807c-0.09661865 0.036239624 -0.20410156 0.054351807 -0.322464 0.054351807c-0.17874908 0 -0.35749054 -0.032608032 -0.536232 -0.0978241c-0.17632294 -0.06764221 -0.32004547 -0.20532227 -0.43115997 -0.41304016c-0.11110687 -0.20773315 -0.16666794 -0.5193329 -0.16666794 -0.93478394l0 -7.456543l2.2246437 0c0.17874146 0 0.3272934 -0.059173584 0.4456482 -0.17753601c0.1183548 -0.120773315 0.17753601 -0.2620697 0.17753601 -0.42390442c0 -0.17874146 -0.059181213 -0.33091736 -0.17753601 -0.4565277c-0.1183548 -0.1255951 -0.26690674 -0.18840027 -0.4456482 -0.18840027l-2.2246437 0l0 -2.4710236c0 -0.17874146 -0.064006805 -0.3345337 -0.19202805 -0.46739197c-0.12560272 -0.13526917 -0.28502274 -0.20289612 -0.47826004 -0.20289612z" fill-rule="evenodd"/><path fill="#ffffff" d="m70.6277 232.15895c-0.19081879 0 -0.3502426 0.06762695 -0.47826385 0.20289612c-0.12560272 0.13285828 -0.1884079 0.2886505 -0.1884079 0.46739197l0 2.4710236l-1.6231842 0c-0.17874908 0 -0.33213043 0.059173584 -0.46014404 0.17753601c-0.12560272 0.11836243 -0.1884079 0.26690674 -0.1884079 0.4456482c0 0.16183472 0.062805176 0.3067627 0.1884079 0.43478394c0.12802124 0.12561035 0.2814026 0.18840027 0.46014404 0.18840027l1.6231842 0l0 7.521759c0 0.66908264 0.09299469 1.1823578 0.2789917 1.539856c0.18598938 0.35507202 0.41908264 0.6038666 0.69927216 0.7463684c0.28260803 0.1401062 0.5567627 0.22102356 0.822464 0.24275208c0.2681198 0.021743774 0.4698105 0.032608032 0.605072 0.032608032c0.32608795 0 0.60749054 -0.07003784 0.84420776 -0.21014404c0.23671722 -0.14250183 0.35507202 -0.31762695 0.35507202 -0.5253601c0 -0.16183472 -0.048309326 -0.29467773 -0.14492798 -0.3985443c-0.094200134 -0.10386658 -0.20893097 -0.1558075 -0.34420013 -0.1558075c-0.1183548 0 -0.22584534 0.018127441 -0.322464 0.054351807c-0.09661865 0.036239624 -0.20410156 0.054351807 -0.322464 0.054351807c-0.17874908 0 -0.35749817 -0.032608032 -0.536232 -0.0978241c-0.17633057 -0.06764221 -0.32004547 -0.20532227 -0.43115997 -0.41304016c-0.1111145 -0.20773315 -0.16667175 -0.5193329 -0.16667175 -0.93478394l0 -7.456543l2.22464 0c0.17874908 0 0.32730103 -0.059173584 0.44565582 -0.17753601c0.1183548 -0.120773315 0.17753601 -0.2620697 0.17753601 -0.42390442c0 -0.17874146 -0.059181213 -0.33091736 -0.17753601 -0.4565277c-0.1183548 -0.1255951 -0.26690674 -0.18840027 -0.44565582 -0.18840027l-2.22464 0l0 -2.4710236c0 -0.17874146 -0.06400299 -0.3345337 -0.19202423 -0.46739197c-0.12560272 -0.13526917 -0.28502655 -0.20289612 -0.47826385 -0.20289612z" fill-rule="evenodd"/><path fill="#ffffff" d="m80.95777 236.27852c0.59420013 0 1.1618347 0.1268158 1.7028961 0.38043213c0.54106903 0.2512207 1.004837 0.621994 1.391304 1.11232c0.3864746 0.4879303 0.61714935 1.0809326 0.69203186 1.7789917l0 0.17753601l-7.6035843 0c0.05898285 -0.32363892 0.1442337 -0.6231537 0.25575256 -0.8985443c0.23671722 -0.58695984 0.54468536 -1.0700531 0.92391205 -1.4492798c0.37922668 -0.37922668 0.80192566 -0.65701294 1.2681198 -0.8333435c0.4685974 -0.17874146 0.9251251 -0.26811218 1.3695679 -0.26811218zm0 -1.289856c-0.8888931 0 -1.7306824 0.24154663 -2.5253677 0.7246399c-0.794693 0.48068237 -1.4408264 1.1666718 -1.9384079 2.0579681c-0.4975891 0.88890076 -0.74637604 1.9649811 -0.74637604 3.2282715c0 1.1714935 0.24516296 2.1956482 0.73550415 3.072464c0.4903412 0.8744049 1.1727142 1.5567627 2.047104 2.047104c0.8768158 0.4879303 1.8864746 0.7318878 3.0289917 0.7318878c0.8454132 0 1.6243973 -0.1956482 2.3369598 -0.58695984c0.71255493 -0.39372253 1.2910538 -0.8574829 1.7355042 -1.3913116c0.14976501 -0.1352539 0.2246399 -0.2910614 0.2246399 -0.46739197c0 -0.14974976 -0.05555725 -0.28381348 -0.16666412 -0.40216064c-0.1111145 -0.11836243 -0.24879456 -0.17753601 -0.4130478 -0.17753601c-0.14733887 0 -0.30313873 0.06642151 -0.46739197 0.19926453c-0.20773315 0.26812744 -0.47101593 0.52415466 -0.78985596 0.76812744c-0.31884003 0.24395752 -0.6859894 0.44081116 -1.101448 0.5905762c-0.41545868 0.14733887 -0.8756027 0.2210083 -1.3804398 0.2210083c-0.94927216 0 -1.7584534 -0.20773315 -2.427536 -0.6231842c-0.6666641 -0.4154663 -1.1787491 -0.97946167 -1.536232 -1.6920319c-0.35212708 -0.7066498 -0.52965546 -1.4928894 -0.5325775 -2.3587036l8.413017 0c0.17874908 0 0.33454895 -0.06278992 0.46739197 -0.18840027c0.13526917 -0.12561035 0.20290375 -0.277771 0.20290375 -0.4565277c-0.016906738 -0.8598938 -0.17391968 -1.6159363 -0.47101593 -2.2681122c-0.294693 -0.6545868 -0.67996216 -1.2077332 -1.1557999 -1.6594238c-0.47584534 -0.45410156 -1.0217438 -0.79589844 -1.63768 -1.0253601c-0.613533 -0.22947693 -1.2475891 -0.34420776 -1.9021759 -0.34420776z" fill-rule="evenodd"/><path fill="#ffffff" d="m94.24786 234.98866c-0.5338135 0 -1.0640106 0.100250244 -1.5905838 0.3007202c-0.5265732 0.20048523 -1.0060425 0.4746399 -1.4384079 0.82247925c-0.40035248 0.3238678 -0.73368835 0.6875458 -1.0 1.0910034l0 0l0 -1.2142029c0 -0.17874146 -0.062805176 -0.3345337 -0.1884079 -0.46739197c-0.1255951 -0.13284302 -0.28501892 -0.19926453 -0.47825623 -0.19926453c-0.1932373 0 -0.3538742 0.06642151 -0.48188782 0.19926453c-0.12560272 0.13285828 -0.1884079 0.2886505 -0.1884079 0.46739197l0 9.974655c0 0.17633057 0.059181213 0.3321228 0.17754364 0.46739197c0.120773315 0.13284302 0.28502655 0.19926453 0.49275208 0.19926453c0.17632294 0 0.33090973 -0.06642151 0.463768 -0.19926453c0.13526917 -0.13526917 0.20289612 -0.2910614 0.20289612 -0.46739197l0 -6.4782715c0 -0.59420776 0.17753601 -1.1352692 0.53260803 -1.6231842c0.35749054 -0.4903412 0.82125854 -0.8840637 1.3913116 -1.1811676c0.572464 -0.29710388 1.177536 -0.4456482 1.8152161 -0.4456482c0.71256256 0 1.2874451 0.14854431 1.7246399 0.4456482c0.43961334 0.29710388 0.7548294 0.6908264 0.9456558 1.1811676c0.19322968 0.48791504 0.28985596 1.0289764 0.28985596 1.6231842l0 6.4782715c0 0.17633057 0.059173584 0.3321228 0.17753601 0.46739197c0.120765686 0.13284302 0.28501892 0.19926453 0.49275208 0.19926453c0.17633057 0 0.33091736 -0.06642151 0.463768 -0.19926453c0.13526154 -0.13526917 0.20289612 -0.2910614 0.20289612 -0.46739197l0 -6.547119c0 -0.8164215 -0.13043213 -1.5615845 -0.39130402 -2.2355042c-0.25845337 -0.67633057 -0.68116 -1.210144 -1.2681122 -1.6014557c-0.5845413 -0.39370728 -1.367157 -0.5905762 -2.3478317 -0.5905762z" fill-rule="evenodd"/><path fill="#ffffff" d="m106.35741 236.23505c0.78743744 0 1.4855118 0.20410156 2.0942078 0.61231995c0.608696 0.40820312 1.0869522 0.9649811 1.4347839 1.6702881c0.3478241 0.7028961 0.52173615 1.5 0.52173615 2.3913116c0 0.90579224 -0.17391205 1.7113495 -0.52173615 2.4166718c-0.34783173 0.7028961 -0.82608795 1.2584534 -1.4347839 1.6666565c-0.608696 0.40821838 -1.3067703 0.61231995 -2.0942078 0.61231995c-0.7705307 0 -1.463768 -0.20410156 -2.079712 -0.61231995c-0.6159439 -0.40820312 -1.0990372 -0.96739197 -1.4492798 -1.677536c-0.3478241 -0.71255493 -0.52173615 -1.5144958 -0.52173615 -2.4057922c0 -0.89131165 0.17391205 -1.6884155 0.52173615 -2.3913116c0.3502426 -0.70532227 0.8333359 -1.262085 1.4492798 -1.6702881c0.6159439 -0.40821838 1.3091812 -0.61231995 2.079712 -0.61231995zm4.6304398 -6.079712c-0.20772552 0 -0.37077332 0.06762695 -0.4891281 0.20289612c-0.11836243 0.13284302 -0.17753601 0.28863525 -0.17753601 0.46739197l0 6.544052l0 0c-0.23271942 -0.42140198 -0.53344727 -0.7996063 -0.9021759 -1.1346283c-0.4227066 -0.3864746 -0.9094238 -0.6908264 -1.4601517 -0.91304016c-0.5483017 -0.222229 -1.1340561 -0.3333435 -1.7572479 -0.3333435c-0.9782562 0 -1.8611145 0.25604248 -2.648552 0.7681122c-0.78743744 0.51208496 -1.4118347 1.2174072 -1.8731918 2.1159515c-0.4589386 0.8961334 -0.68840027 1.9082184 -0.68840027 3.0362396c0 1.1425018 0.22946167 2.1594238 0.68840027 3.0507202c0.46135712 0.88890076 1.0893707 1.5930023 1.8840637 2.11232c0.79468536 0.5193329 1.68116 0.7789917 2.6594238 0.7789917c0.6400986 0 1.2306747 -0.11836243 1.7717361 -0.35507202c0.54106903 -0.23672485 1.0157013 -0.5483093 1.4239197 -0.93478394c0.38227844 -0.36192322 0.68299866 -0.7524414 0.9021759 -1.1715546l0 0l0 1.5737305c0 0.17633057 0.059173584 0.3321228 0.17753601 0.46739197c0.1183548 0.13284302 0.2814026 0.19926453 0.4891281 0.19926453c0.17874146 0 0.33454132 -0.06642151 0.46739197 -0.19926453c0.13285065 -0.13526917 0.19927216 -0.2910614 0.19927216 -0.46739197l0 -15.137695c0 -0.1932373 -0.06279755 -0.35266113 -0.18840027 -0.47827148c-0.12561035 -0.12802124 -0.28502655 -0.1920166 -0.47826385 -0.1920166z" fill-rule="evenodd"/><path fill="#ffffff" d="m119.60266 236.27852c0.59420013 0 1.1618347 0.1268158 1.7028961 0.38043213c0.5410614 0.2512207 1.0048294 0.621994 1.391304 1.11232c0.3864746 0.4879303 0.61714935 1.0809326 0.69203186 1.7789917l0 0.17753601l-7.603592 0c0.05898285 -0.32363892 0.1442337 -0.6231537 0.2557602 -0.8985443c0.2367096 -0.58695984 0.54468536 -1.0700531 0.92391205 -1.4492798c0.37922668 -0.37922668 0.8019333 -0.65701294 1.2681198 -0.8333435c0.4685974 -0.17874146 0.9251175 -0.26811218 1.3695679 -0.26811218zm0 -1.289856c-0.8888931 0 -1.7306747 0.24154663 -2.5253677 0.7246399c-0.79468536 0.48068237 -1.4408188 1.1666718 -1.9384079 2.0579681c-0.49758148 0.88890076 -0.74637604 1.9649811 -0.74637604 3.2282715c0 1.1714935 0.2451706 2.1956482 0.73550415 3.072464c0.4903412 0.8744049 1.1727066 1.5567627 2.047104 2.047104c0.8768158 0.4879303 1.8864822 0.7318878 3.0289917 0.7318878c0.8454132 0 1.6243973 -0.1956482 2.3369598 -0.58695984c0.71256256 -0.39372253 1.2910614 -0.8574829 1.7355042 -1.3913116c0.14976501 -0.1352539 0.2246399 -0.2910614 0.2246399 -0.46739197c0 -0.14974976 -0.05555725 -0.28381348 -0.16666412 -0.40216064c-0.1111145 -0.11836243 -0.24879456 -0.17753601 -0.4130478 -0.17753601c-0.14733887 0 -0.30313873 0.06642151 -0.46739197 0.19926453c-0.20772552 0.26812744 -0.47101593 0.52415466 -0.78985596 0.76812744c-0.31884003 0.24395752 -0.6859894 0.44081116 -1.101448 0.5905762c-0.41545868 0.14733887 -0.8756027 0.2210083 -1.3804321 0.2210083c-0.9492798 0 -1.758461 -0.20773315 -2.4275436 -0.6231842c-0.6666641 -0.4154663 -1.1787415 -0.97946167 -1.536232 -1.6920319c-0.35212708 -0.7066498 -0.52965546 -1.4928894 -0.5325775 -2.3587036l8.413017 0c0.17874908 0 0.33454132 -0.06278992 0.46739197 -0.18840027c0.13526917 -0.12561035 0.20290375 -0.277771 0.20290375 -0.4565277c-0.016906738 -0.8598938 -0.17391205 -1.6159363 -0.47101593 -2.2681122c-0.29468536 -0.6545868 -0.6799545 -1.2077332 -1.1557999 -1.6594238c-0.47584534 -0.45410156 -1.0217438 -0.79589844 -1.63768 -1.0253601c-0.6135254 -0.22947693 -1.2475891 -0.34420776 -1.9021759 -0.34420776z" fill-rule="evenodd"/><path fill="#ffffff" d="m131.9797 236.27852c0.59420776 0 1.1618347 0.1268158 1.7029114 0.38043213c0.5410614 0.2512207 1.0048218 0.621994 1.3912964 1.11232c0.3864746 0.4879303 0.617157 1.0809326 0.69203186 1.7789917l0 0.17753601l-7.603592 0c0.05899048 -0.32363892 0.14424133 -0.6231537 0.25575256 -0.8985443c0.23672485 -0.58695984 0.544693 -1.0700531 0.9239197 -1.4492798c0.37922668 -0.37922668 0.80192566 -0.65701294 1.2681122 -0.8333435c0.46861267 -0.17874146 0.9251251 -0.26811218 1.3695679 -0.26811218zm0 -1.289856c-0.8888855 0 -1.7306824 0.24154663 -2.52536 0.7246399c-0.794693 0.48068237 -1.4408264 1.1666718 -1.9384079 2.0579681c-0.4975891 0.88890076 -0.74637604 1.9649811 -0.74637604 3.2282715c0 1.1714935 0.24516296 2.1956482 0.73550415 3.072464c0.4903412 0.8744049 1.1727142 1.5567627 2.047104 2.047104c0.8768158 0.4879303 1.8864746 0.7318878 3.0289917 0.7318878c0.8454132 0 1.6243896 -0.1956482 2.3369598 -0.58695984c0.71255493 -0.39372253 1.2910614 -0.8574829 1.7355042 -1.3913116c0.14976501 -0.1352539 0.2246399 -0.2910614 0.2246399 -0.46739197c0 -0.14974976 -0.05555725 -0.28381348 -0.16667175 -0.40216064c-0.11109924 -0.11836243 -0.2487793 -0.17753601 -0.41304016 -0.17753601c-0.14733887 0 -0.3031311 0.06642151 -0.46739197 0.19926453c-0.20773315 0.26812744 -0.4710083 0.52415466 -0.78985596 0.76812744c-0.3188324 0.24395752 -0.6859894 0.44081116 -1.1014557 0.5905762c-0.41545105 0.14733887 -0.8755951 0.2210083 -1.3804321 0.2210083c-0.9492798 0 -1.7584534 -0.20773315 -2.427536 -0.6231842c-0.66667175 -0.4154663 -1.1787415 -0.97946167 -1.5362396 -1.6920319c-0.35212708 -0.7066498 -0.5296478 -1.4928894 -0.53256226 -2.3587036l8.41301 0c0.17874146 0 0.33454895 -0.06278992 0.46739197 -0.18840027c0.13526917 -0.12561035 0.20289612 -0.277771 0.20289612 -0.4565277c-0.016906738 -0.8598938 -0.17390442 -1.6159363 -0.4710083 -2.2681122c-0.294693 -0.6545868 -0.67996216 -1.2077332 -1.1558075 -1.6594238c-0.47584534 -0.45410156 -1.0217285 -0.79589844 -1.63768 -1.0253601c-0.6135254 -0.22947693 -1.2475891 -0.34420776 -1.9021759 -0.34420776z" fill-rule="evenodd"/><path fill="#ffffff" d="m151.34467 233.20757l3.1156464 7.6108093l-6.1776123 0l3.061966 -7.6108093zm0.092941284 -2.2261505c-0.14974976 0 -0.28019714 0.033813477 -0.3912964 0.10145569c-0.1111145 0.065216064 -0.20411682 0.1799469 -0.2789917 0.3441925l-5.876816 14.380447c-0.0289917 0.10386658 -0.036239624 0.19203186 -0.021743774 0.26449585c0.01449585 0.16426086 0.07366943 0.30194092 0.17753601 0.41305542c0.10386658 0.11109924 0.2596588 0.1666565 0.46739197 0.1666565c0.13526917 0 0.25483704 -0.036224365 0.3587036 -0.108688354c0.10386658 -0.07489014 0.18478394 -0.18719482 0.24275208 -0.33695984l1.6384277 -4.072464l7.245163 0l1.6671448 4.072464c0.06037903 0.13526917 0.14613342 0.24395752 0.25724792 0.32608032c0.1111145 0.079711914 0.24154663 0.11956787 0.3912964 0.11956787c0.17633057 0 0.33091736 -0.05555725 0.46377563 -0.1666565c0.13526917 -0.1111145 0.20289612 -0.27053833 0.20289612 -0.47827148c0 -0.08937073 -0.01449585 -0.17874146 -0.04347229 -0.26811218l-5.8550873 -14.311615c-0.06037903 -0.13526917 -0.14613342 -0.24275208 -0.25724792 -0.322464c-0.11109924 -0.0821228 -0.24032593 -0.123184204 -0.38768005 -0.123184204z" fill-rule="evenodd"/><path fill="#ffffff" d="m165.6846 236.41258c0.7850342 0 1.4782715 0.19685364 2.079712 0.5905762c0.6014557 0.39372253 1.0797119 0.93237305 1.4347839 1.6159515c0.35749817 0.68115234 0.5362396 1.4589386 0.5362396 2.3333282c0 0.8768158 -0.17874146 1.6642609 -0.5362396 2.36232c-0.35507202 0.6956482 -0.83332825 1.2403412 -1.4347839 1.6340637c-0.6014404 0.39372253 -1.2946777 0.5905762 -2.079712 0.5905762c-0.80192566 0 -1.5072479 -0.19685364 -2.1159363 -0.5905762c-0.6087036 -0.39372253 -1.0881653 -0.9384155 -1.4384155 -1.6340637c-0.3478241 -0.6980591 -0.5217438 -1.4855042 -0.5217438 -2.36232c0 -0.8888855 0.17391968 -1.6702881 0.5217438 -2.3442078c0.35025024 -0.67633057 0.8297119 -1.2113495 1.4384155 -1.605072c0.60868835 -0.39372253 1.3140106 -0.5905762 2.1159363 -0.5905762zm0.10870361 -1.2463837c-0.50483704 0 -0.98672485 0.06642151 -1.4456635 0.19927979c-0.4589386 0.13284302 -0.8816376 0.3297119 -1.2681122 0.5905762c-0.3864746 0.25845337 -0.7246399 0.5700531 -1.0144958 0.93478394c-0.12879944 0.16207886 -0.24354553 0.33346558 -0.34420776 0.5141449l0 0l0 -1.5032806c0 -0.1932373 -0.06278992 -0.35627747 -0.18840027 -0.48912048c-0.12561035 -0.13526917 -0.28501892 -0.20289612 -0.47825623 -0.20289612c-0.20773315 0 -0.37197876 0.06762695 -0.49275208 0.20289612c-0.11836243 0.13284302 -0.17753601 0.29588318 -0.17753601 0.48912048l0 14.510895c0 0.17874146 0.06278992 0.3345337 0.18840027 0.46739197c0.12802124 0.13526917 0.2886505 0.20289612 0.48188782 0.20289612c0.1932373 0 0.35264587 -0.06762695 0.47825623 -0.20289612c0.12561035 -0.13285828 0.18840027 -0.2886505 0.18840027 -0.46739197l0 -5.8660736l0 0c0.09541321 0.1472168 0.19927979 0.2897644 0.31159973 0.42765808c0.29710388 0.36231995 0.63768005 0.677536 1.0217438 0.9456482c0.3864746 0.2657013 0.8128052 0.47706604 1.2789917 0.6340637c0.4685974 0.15458679 0.9637604 0.23188782 1.4855042 0.23188782c0.9782562 0 1.859909 -0.2524109 2.644928 -0.7572479c0.78744507 -0.50483704 1.4106293 -1.1944427 1.8695679 -2.0688477c0.4613495 -0.8768158 0.69203186 -1.8792267 0.69203186 -3.007248c0 -1.1280212 -0.23068237 -2.1256104 -0.69203186 -2.992752c-0.4589386 -0.8695679 -1.0785065 -1.5519409 -1.8587036 -2.047104c-0.777771 -0.4975891 -1.6714935 -0.74638367 -2.6811523 -0.74638367z" fill-rule="evenodd"/><path fill="#ffffff" d="m179.08565 236.41258c0.7850342 0 1.4782715 0.19685364 2.079712 0.5905762c0.6014557 0.39372253 1.0797119 0.93237305 1.4347839 1.6159515c0.35749817 0.68115234 0.5362396 1.4589386 0.5362396 2.3333282c0 0.8768158 -0.17874146 1.6642609 -0.5362396 2.36232c-0.35507202 0.6956482 -0.83332825 1.2403412 -1.4347839 1.6340637c-0.6014404 0.39372253 -1.2946777 0.5905762 -2.079712 0.5905762c-0.80192566 0 -1.5072479 -0.19685364 -2.1159363 -0.5905762c-0.6087036 -0.39372253 -1.0881653 -0.9384155 -1.4384155 -1.6340637c-0.3478241 -0.6980591 -0.5217285 -1.4855042 -0.5217285 -2.36232c0 -0.8888855 0.17390442 -1.6702881 0.5217285 -2.3442078c0.35025024 -0.67633057 0.8297119 -1.2113495 1.4384155 -1.605072c0.60868835 -0.39372253 1.3140106 -0.5905762 2.1159363 -0.5905762zm0.10870361 -1.2463837c-0.50483704 0 -0.98672485 0.06642151 -1.4456635 0.19927979c-0.45892334 0.13284302 -0.8816376 0.3297119 -1.2681122 0.5905762c-0.3864746 0.25845337 -0.7246399 0.5700531 -1.0144958 0.93478394c-0.12879944 0.16207886 -0.24353027 0.33346558 -0.3441925 0.5141449l0 0l0 -1.5032806c0 -0.1932373 -0.062805176 -0.35627747 -0.18841553 -0.48912048c-0.1255951 -0.13526917 -0.28501892 -0.20289612 -0.47825623 -0.20289612c-0.20773315 0 -0.37197876 0.06762695 -0.49275208 0.20289612c-0.11836243 0.13284302 -0.17753601 0.29588318 -0.17753601 0.48912048l0 14.510895c0 0.17874146 0.062805176 0.3345337 0.18840027 0.46739197c0.12802124 0.13526917 0.2886505 0.20289612 0.48188782 0.20289612c0.1932373 0 0.35266113 -0.06762695 0.47825623 -0.20289612c0.12561035 -0.13285828 0.18841553 -0.2886505 0.18841553 -0.46739197l0 -5.8660736l0 0c0.09539795 0.1472168 0.19926453 0.2897644 0.31158447 0.42765808c0.29710388 0.36231995 0.63768005 0.677536 1.0217438 0.9456482c0.3864746 0.2657013 0.8128052 0.47706604 1.2789917 0.6340637c0.4685974 0.15458679 0.9637604 0.23188782 1.4855042 0.23188782c0.9782562 0 1.859909 -0.2524109 2.644928 -0.7572479c0.78744507 -0.50483704 1.4106293 -1.1944427 1.8695679 -2.0688477c0.4613495 -0.8768158 0.69203186 -1.8792267 0.69203186 -3.007248c0 -1.1280212 -0.23068237 -2.1256104 -0.69203186 -2.992752c-0.4589386 -0.8695679 -1.0785065 -1.5519409 -1.8587036 -2.047104c-0.777771 -0.4975891 -1.6714935 -0.74638367 -2.6811523 -0.74638367z" fill-rule="evenodd"/><path fill="#ffffff" d="m187.99033 230.15533c-0.17874146 0 -0.33573914 0.06762695 -0.4710083 0.20289612c-0.13285828 0.13284302 -0.19927979 0.28863525 -0.19927979 0.46739197l0 15.137695c0 0.17633057 0.062805176 0.3321228 0.18840027 0.46739197c0.12802124 0.13284302 0.2886505 0.19926453 0.48188782 0.19926453c0.17633057 0 0.33091736 -0.06642151 0.46377563 -0.19926453c0.1352539 -0.13526917 0.20289612 -0.2910614 0.20289612 -0.46739197l0 -15.137695c0 -0.17875671 -0.06401062 -0.33454895 -0.19203186 -0.46739197c-0.12561035 -0.13526917 -0.28381348 -0.20289612 -0.4746399 -0.20289612z" fill-rule="evenodd"/><path fill="#ffffff" d="m192.84946 231.66982c-0.294693 0 -0.52778625 0.071258545 -0.6992798 0.21377563c-0.17149353 0.14009094 -0.25724792 0.34420776 -0.25724792 0.61231995l0 0.2210083c0 0.26812744 0.077301025 0.472229 0.23188782 0.61231995c0.15699768 0.1401062 0.3912964 0.21014404 0.7028961 0.21014404c0.29710388 0 0.5229492 -0.07003784 0.677536 -0.21014404c0.15699768 -0.14009094 0.23550415 -0.3441925 0.23550415 -0.61231995l0 -0.2210083c0 -0.26811218 -0.07850647 -0.472229 -0.23550415 -0.61231995c-0.15458679 -0.14251709 -0.3731842 -0.21377563 -0.65579224 -0.21377563zm0.079711914 3.3840637c-0.19082642 0 -0.35025024 0.06764221 -0.47827148 0.20289612c-0.1255951 0.13285828 -0.18840027 0.28744507 -0.18840027 0.46377563l0 10.242767c0 0.17633057 0.062805176 0.3321228 0.18840027 0.46739197c0.12802124 0.13284302 0.28744507 0.19926453 0.47827148 0.19926453c0.17874146 0 0.3345337 -0.06642151 0.46739197 -0.19926453c0.1352539 -0.13526917 0.20289612 -0.2910614 0.20289612 -0.46739197l0 -10.242767c0 -0.17633057 -0.06401062 -0.33091736 -0.19203186 -0.46377563c-0.12561035 -0.1352539 -0.28503418 -0.20289612 -0.47825623 -0.20289612z" fill-rule="evenodd"/><path fill="#ffffff" d="m201.9901 234.98866c-1.1425018 0 -2.1364746 0.27053833 -2.9818878 0.81159973c-0.8454132 0.5410614 -1.5060272 1.2572479 -1.9818878 2.1485443c-0.47584534 0.88890076 -0.7137604 1.8756104 -0.7137604 2.9601593c0 1.1280212 0.2342987 2.1412964 0.7028961 3.039856c0.4685974 0.8961334 1.1219788 1.6038666 1.960144 2.1231842c0.8381653 0.5193329 1.8055573 0.7789917 2.902176 0.7789917c0.8019409 0 1.5072479 -0.10748291 2.1159515 -0.322464c0.60868835 -0.21498108 1.0869598 -0.46618652 1.4347839 -0.7536316c0.350235 -0.28985596 0.5253601 -0.55433655 0.5253601 -0.7934723c0 -0.17633057 -0.05192566 -0.3200531 -0.15579224 -0.4311676c-0.10386658 -0.11352539 -0.24517822 -0.17028809 -0.42391968 -0.17028809c-0.20773315 0 -0.37438965 0.07850647 -0.5 0.23551941c-0.12561035 0.15458679 -0.33695984 0.31399536 -0.6340637 0.47825623c-0.22221375 0.13284302 -0.50120544 0.25120544 -0.8369446 0.35507202c-0.3333435 0.10386658 -0.7971039 0.15579224 -1.3913116 0.15579224c-0.85990906 0 -1.6207733 -0.20410156 -2.282608 -0.61231995c-0.6594238 -0.40820312 -1.1715088 -0.96739197 -1.5362396 -1.677536c-0.36231995 -0.71255493 -0.5434723 -1.5144958 -0.5434723 -2.4057922c0 -0.8768158 0.1932373 -1.6666718 0.5797119 -2.3695679c0.3864746 -0.70532227 0.91304016 -1.2657013 1.5797119 -1.6811676c0.66908264 -0.41545105 1.4190826 -0.6231842 2.25 -0.6231842c0.44444275 0 0.8478241 0.03742981 1.210144 0.11231995c0.36473083 0.07246399 0.64372253 0.15338135 0.83695984 0.24275208c0.2077179 0.10386658 0.3635254 0.21498108 0.46739197 0.33332825c0.10386658 0.11836243 0.21134949 0.222229 0.322464 0.31159973c0.1111145 0.08937073 0.2632904 0.13406372 0.45651245 0.13406372c0.16426086 0 0.30194092 -0.0700531 0.41305542 -0.2101593c0.1111145 -0.14250183 0.1666565 -0.2874298 0.1666565 -0.43478394c0 -0.31158447 -0.18235779 -0.600235 -0.5471039 -0.8659363c-0.3623047 -0.26811218 -0.8405762 -0.47946167 -1.4347839 -0.6340637c-0.5941925 -0.15699768 -1.2475739 -0.23550415 -1.960144 -0.23550415z" fill-rule="evenodd"/><path fill="#ffffff" d="m213.1206 236.23505c0.78744507 0 1.4855042 0.20773315 2.0942078 0.6231842c0.60868835 0.4154663 1.0869598 0.972229 1.4347839 1.6702881c0.3478241 0.69566345 0.5217285 1.4818878 0.5217285 2.3587036c0 0.8888855 -0.17390442 1.6932373 -0.5217285 2.4130402c-0.3478241 0.7198181 -0.8260956 1.2838287 -1.4347839 1.6920319c-0.6087036 0.40821838 -1.3067627 0.61231995 -2.0942078 0.61231995c-0.7850189 0 -1.4855042 -0.20410156 -2.1014557 -0.61231995c-0.6159363 -0.40820312 -1.0954132 -0.97221375 -1.4384003 -1.6920319c-0.34059143 -0.71980286 -0.5108795 -1.5241547 -0.5108795 -2.4130402c0 -0.90579224 0.17391968 -1.7065277 0.5217438 -2.402176c0.35025024 -0.69807434 0.83332825 -1.2475891 1.4492798 -1.6485596c0.6159363 -0.4009552 1.3091736 -0.6014404 2.079712 -0.6014404zm-0.15579224 -1.2463837c-0.9782715 0 -1.8611145 0.25242615 -2.6485596 0.7572479c-0.78744507 0.5024109 -1.4118347 1.1956482 -1.8731842 2.079712c-0.4589386 0.8840637 -0.6884155 1.9045868 -0.6884155 3.0615997c0 1.1280212 0.22584534 2.144928 0.677536 3.0507355c0.45410156 0.90338135 1.0785065 1.6147308 1.8731995 2.1340485c0.79467773 0.5193329 1.6884003 0.7789917 2.6811523 0.7789917c0.6401062 0 1.2306824 -0.114730835 1.7717438 -0.34420776c0.5410614 -0.22946167 1.012085 -0.52897644 1.4130402 -0.8985443c0.38230896 -0.35466003 0.6866455 -0.735672 0.9130554 -1.1430359l0 0l0 1.4981079c0 0.17633057 0.059173584 0.3321228 0.17753601 0.46739197c0.11834717 0.13284302 0.28138733 0.19926453 0.48912048 0.19926453c0.17875671 0 0.33454895 -0.06642151 0.46739197 -0.19926453c0.13285828 -0.13526917 0.19927979 -0.2910614 0.19927979 -0.46739197l0 -10.018127c0 -0.1932373 -0.062805176 -0.35627747 -0.18840027 -0.48913574c-0.12561035 -0.13526917 -0.28501892 -0.20289612 -0.47827148 -0.20289612c-0.20773315 0 -0.37077332 0.06762695 -0.48912048 0.20289612c-0.11836243 0.13285828 -0.17753601 0.29589844 -0.17753601 0.48913574l0 1.399292l0 0c-0.22454834 -0.41130066 -0.5144043 -0.7811127 -0.8695679 -1.109436c-0.4154663 -0.3864746 -0.9021759 -0.6908264 -1.460144 -0.91304016c-0.55555725 -0.222229 -1.1521759 -0.3333435 -1.789856 -0.3333435z" fill-rule="evenodd"/><path fill="#ffffff" d="m223.47093 232.15895c-0.19082642 0 -0.350235 0.06762695 -0.47825623 0.20289612c-0.12561035 0.13285828 -0.18841553 0.2886505 -0.18841553 0.46739197l0 2.4710236l-1.6231842 0c-0.17874146 0 -0.33213806 0.059173584 -0.46014404 0.17753601c-0.12561035 0.11836243 -0.18841553 0.26690674 -0.18841553 0.4456482c0 0.16183472 0.062805176 0.3067627 0.18841553 0.43478394c0.12802124 0.12561035 0.2814026 0.18840027 0.46014404 0.18840027l1.6231842 0l0 7.521759c0 0.66908264 0.09300232 1.1823578 0.2789917 1.539856c0.18598938 0.35507202 0.41908264 0.6038666 0.6992798 0.7463684c0.28260803 0.1401062 0.5567627 0.22102356 0.822464 0.24275208c0.26811218 0.021743774 0.46980286 0.032608032 0.605072 0.032608032c0.32608032 0 0.6074829 -0.07003784 0.84420776 -0.21014404c0.2367096 -0.14250183 0.35507202 -0.31762695 0.35507202 -0.5253601c0 -0.16183472 -0.048324585 -0.29467773 -0.14492798 -0.3985443c-0.09420776 -0.10386658 -0.2089386 -0.1558075 -0.34420776 -0.1558075c-0.11836243 0 -0.22584534 0.018127441 -0.322464 0.054351807c-0.09661865 0.036239624 -0.20410156 0.054351807 -0.322464 0.054351807c-0.17874146 0 -0.35749817 -0.032608032 -0.5362396 -0.0978241c-0.17631531 -0.06764221 -0.32003784 -0.20532227 -0.43115234 -0.41304016c-0.1111145 -0.20773315 -0.16667175 -0.5193329 -0.16667175 -0.93478394l0 -7.456543l2.22464 0c0.17875671 0 0.32730103 -0.059173584 0.4456482 -0.17753601c0.11836243 -0.120773315 0.17755127 -0.2620697 0.17755127 -0.42390442c0 -0.17874146 -0.059188843 -0.33091736 -0.17755127 -0.4565277c-0.11834717 -0.1255951 -0.26689148 -0.18840027 -0.4456482 -0.18840027l-2.22464 0l0 -2.4710236c0 -0.17874146 -0.06401062 -0.3345337 -0.19203186 -0.46739197c-0.1255951 -0.13526917 -0.28501892 -0.20289612 -0.47825623 -0.20289612z" fill-rule="evenodd"/><path fill="#ffffff" d="m230.00288 231.66982c-0.294693 0 -0.52778625 0.071258545 -0.6992798 0.21377563c-0.17149353 0.14009094 -0.25724792 0.34420776 -0.25724792 0.61231995l0 0.2210083c0 0.26812744 0.077301025 0.472229 0.23188782 0.61231995c0.15701294 0.1401062 0.39131165 0.21014404 0.7028961 0.21014404c0.29710388 0 0.5229492 -0.07003784 0.677536 -0.21014404c0.15701294 -0.14009094 0.23550415 -0.3441925 0.23550415 -0.61231995l0 -0.2210083c0 -0.26811218 -0.07849121 -0.472229 -0.23550415 -0.61231995c-0.15458679 -0.14251709 -0.3731842 -0.21377563 -0.65579224 -0.21377563zm0.079711914 3.3840637c-0.19082642 0 -0.350235 0.06764221 -0.47827148 0.20289612c-0.1255951 0.13285828 -0.18840027 0.28744507 -0.18840027 0.46377563l0 10.242767c0 0.17633057 0.062805176 0.3321228 0.18840027 0.46739197c0.1280365 0.13284302 0.28744507 0.19926453 0.47827148 0.19926453c0.17874146 0 0.3345337 -0.06642151 0.46739197 -0.19926453c0.13526917 -0.13526917 0.20289612 -0.2910614 0.20289612 -0.46739197l0 -10.242767c0 -0.17633057 -0.06401062 -0.33091736 -0.19203186 -0.46377563c-0.1255951 -0.1352539 -0.28501892 -0.20289612 -0.47825623 -0.20289612z" fill-rule="evenodd"/><path fill="#ffffff" d="m239.10005 236.23505c0.83091736 0 1.5688477 0.20410156 2.2137756 0.61231995c0.64733887 0.40820312 1.1557922 0.9649811 1.5253601 1.6702881c0.37197876 0.7028961 0.55796814 1.5072479 0.55796814 2.4130402c0 0.9058075 -0.18598938 1.7077332 -0.55796814 2.4058075c-0.36956787 0.6956482 -0.87802124 1.2475891 -1.5253601 1.6557922c-0.644928 0.40821838 -1.3828583 0.61231995 -2.2137756 0.61231995c-0.8164215 0 -1.5483093 -0.20410156 -2.1956482 -0.61231995c-0.644928 -0.40820312 -1.1570129 -0.96014404 -1.5362396 -1.6557922c-0.3768158 -0.69807434 -0.56521606 -1.5 -0.56521606 -2.4058075c0 -0.90579224 0.18840027 -1.710144 0.56521606 -2.4130402c0.37922668 -0.70532227 0.89131165 -1.262085 1.5362396 -1.6702881c0.64733887 -0.40821838 1.3792267 -0.61231995 2.1956482 -0.61231995zm0 -1.2463837c-1.0531311 0 -2.007248 0.2596588 -2.86232 0.7789917c-0.85266113 0.5193176 -1.5277863 1.2246399 -2.02536 2.1159363c-0.4975891 0.88890076 -0.74638367 1.904602 -0.74638367 3.047104c0 1.1280212 0.24879456 2.1413116 0.74638367 3.0398712c0.4975891 0.8985443 1.172699 1.6038513 2.02536 2.1159363c0.855072 0.5096588 1.8091888 0.76449585 2.86232 0.76449585c1.067627 0 2.0241547 -0.25483704 2.8695679 -0.76449585c0.8478241 -0.51208496 1.5193329 -1.217392 2.0144958 -2.1159363c0.4975891 -0.8985596 0.74638367 -1.91185 0.74638367 -3.0398712c0 -1.1425018 -0.24879456 -2.1582031 -0.74638367 -3.047104c-0.49516296 -0.8912964 -1.1666718 -1.5966187 -2.0144958 -2.1159363c-0.8454132 -0.5193329 -1.8019409 -0.7789917 -2.8695679 -0.7789917z" fill-rule="evenodd"/><path fill="#ffffff" d="m252.83441 234.98866c-0.5338135 0 -1.0640106 0.100250244 -1.5905762 0.3007202c-0.5265808 0.20048523 -1.0060425 0.4746399 -1.4384155 0.82247925c-0.40034485 0.3238678 -0.73368835 0.6875458 -1.0 1.0910034l0 0l0 -1.2142029c0 -0.17874146 -0.062805176 -0.3345337 -0.18840027 -0.46739197c-0.12561035 -0.13284302 -0.28501892 -0.19926453 -0.47825623 -0.19926453c-0.19325256 0 -0.35388184 0.06642151 -0.48188782 0.19926453c-0.12561035 0.13285828 -0.18841553 0.2886505 -0.18841553 0.46739197l0 9.974655c0 0.17633057 0.059188843 0.3321228 0.17753601 0.46739197c0.120788574 0.13284302 0.28503418 0.19926453 0.49276733 0.19926453c0.17631531 0 0.3309021 -0.06642151 0.46376038 -0.19926453c0.13526917 -0.13526917 0.20289612 -0.2910614 0.20289612 -0.46739197l0 -6.4782715c0 -0.59420776 0.17753601 -1.1352692 0.53260803 -1.6231842c0.35749817 -0.4903412 0.82125854 -0.8840637 1.3913116 -1.1811676c0.572464 -0.29710388 1.177536 -0.4456482 1.8152161 -0.4456482c0.71255493 0 1.2874451 0.14854431 1.7246399 0.4456482c0.43962097 0.29710388 0.75483704 0.6908264 0.94566345 1.1811676c0.1932373 0.48791504 0.2898407 1.0289764 0.2898407 1.6231842l0 6.4782715c0 0.17633057 0.059188843 0.3321228 0.17755127 0.46739197c0.120773315 0.13284302 0.28501892 0.19926453 0.49273682 0.19926453c0.17633057 0 0.33093262 -0.06642151 0.46377563 -0.19926453c0.13528442 -0.13526917 0.20291138 -0.2910614 0.20291138 -0.46739197l0 -6.547119c0 -0.8164215 -0.13043213 -1.5615845 -0.3913269 -2.2355042c-0.25845337 -0.67633057 -0.68115234 -1.210144 -1.2681122 -1.6014557c-0.5845337 -0.39370728 -1.3671417 -0.5905762 -2.347824 -0.5905762z" fill-rule="evenodd"/></g></svg>