<svg version="1.1" viewBox="0.0 0.0 301.4776902887139 224.43307086614172" fill="none" stroke="none" stroke-linecap="square" stroke-miterlimit="10" xmlns:xlink="http://www.w3.org/1999/xlink" xmlns="http://www.w3.org/2000/svg"><clipPath id="p.0"><path d="m0 0l301.4777 0l0 224.43307l-301.4777 0l0 -224.43307z" clip-rule="nonzero"/></clipPath><g clip-path="url(#p.0)"><path fill="#000000" fill-opacity="0.0" d="m0 0l301.4777 0l0 224.43307l-301.4777 0z" fill-rule="evenodd"/><path fill="#f1c27d" d="m199.17155 19.911123l10.1689 7.8424225l14.353302 12.068338l10.768936 12.065674l7.774048 14.479347l8.971466 11.461594l5.3844757 7.2409973l8.374084 7.84243l5.9792175 -1.2055054l5.981842 -10.860176l8.974121 -4.8273315l8.968842 1.2081604l6.579254 6.6369247l-1.7921753 12.065674l-0.6000366 10.256088l-2.392212 14.479347l-4.7844543 15.684853l-8.374084 6.032837l-12.57962 1.2081604l-5.363312 18.09851l-9.571503 9.654678l-15.550735 4.2232513l-11.96373 -1.8122559l-5.3818207 10.860184l-5.9818573 12.669754l-7.179291 7.8424225l-10.16626 2.4136658l-11.363693 0l-7.179291 -3.015091l-4.187042 7.8424225l-9.568863 4.2232513l-7.7766876 4.2232513l-8.971466 3.6191711l-14.953339 -5.4287567l-7.7766876 -8.446503l-10.16626 -25.339508l-10.768936 -31.37236l-13.755905 -23.529938l-5.9792175 -8.446495l-8.374084 0l-9.57151 9.654671l-8.97147 13.875259l-6.579254 10.256088l-8.974117 4.2232513l-12.561119 3.017746l-9.568863 0l-11.366333 -4.8273315l-9.568865 -6.636917l-1.794823 -8.446503l11.963725 -10.256088l12.561119 -7.84243l7.300886 -5.4314194l5.260233 -9.652008l4.7844315 -7.8424225l6.5818977 -7.8424225l3.748249 -6.032837l7.1925087 -15.083427l0 -9.050587l5.9924355 -16.288929l5.9924393 -10.256092l5.9924316 -12.065674l13.184944 -7.241003l14.982414 -9.050588l23.369705 -5.4287558l13.784988 -3.6191707l21.572235 4.8246737z" fill-rule="evenodd"/><path fill="#000000" fill-opacity="0.0" d="m102.72253 111.0131l4.6355286 2.411003l6.7277145 -0.9047928l11.962143 -6.3335495" fill-rule="evenodd"/><path stroke="#dab176" stroke-width="2.0" stroke-linejoin="round" stroke-linecap="butt" d="m102.72253 111.0131l4.6355286 2.411003l6.7277145 -0.9047928l11.962143 -6.3335495" fill-rule="evenodd"/><path fill="#000000" fill-opacity="0.0" d="m135.76749 96.834465l-5.86763 3.9225464l-5.197487 3.0150833l-9.756508 4.2232513" fill-rule="evenodd"/><path stroke="#dab176" stroke-width="2.0" stroke-linejoin="round" stroke-linecap="butt" d="m135.76749 96.834465l-5.86763 3.9225464l-5.197487 3.0150833l-9.756508 4.2232513" fill-rule="evenodd"/><path fill="#000000" fill-opacity="0.0" d="m151.01962 153.69536l5.9837036 1.5088806l3.1396027 2.5653534l2.242569 4.8246765l-3.4403687 4.675644l-4.6355286 9.2022705l-7.1762238 11.764969l2.6910858 -6.4879l-1.0474243 -1.8095856l-5.0840454 0.6040802l-5.6829376 4.827347" fill-rule="evenodd"/><path stroke="#dab176" stroke-width="2.0" stroke-linejoin="round" stroke-linecap="butt" d="m151.01962 153.69536l5.9837036 1.5088806l3.1396027 2.5653534l2.242569 4.8246765l-3.4403687 4.675644l-4.6355286 9.2022705l-7.1762238 11.764969l2.6910858 -6.4879l-1.0474243 -1.8095856l-5.0840454 0.6040802l-5.6829376 4.827347" fill-rule="evenodd"/><path fill="#000000" fill-opacity="0.0" d="m173.74875 147.21013l6.1314545 -1.9612732l4.039261 -0.6014252l5.981079 -0.45239258l1.6436768 1.657898l3.1396027 3.017746l0.5988922 3.015091" fill-rule="evenodd"/><path stroke="#dab176" stroke-width="2.0" stroke-linejoin="round" stroke-linecap="butt" d="m173.74875 147.21013l6.1314545 -1.9612732l4.039261 -0.6014252l5.981079 -0.45239258l1.6436768 1.657898l3.1396027 3.017746l0.5988922 3.015091" fill-rule="evenodd"/><path fill="#fbcf8f" d="m267.67963 96.831024l6.2792053 6.9376297l-4.184387 13.273842l-1.7966919 15.080765l0.5989075 10.860168l13.159943 0.30337524l10.16806 -6.9402924l4.7832947 -20.512177l1.4959106 -14.175972l3.2900085 -16.893013l-4.1870117 -7.241005l-10.766998 -1.508873l-10.168091 3.9225388z" fill-rule="evenodd"/><path fill="#fbd9b6" d="m297.28772 104.37262l-5.3821716 0.60141754l-3.8888855 -1.5062103l-2.9891968 -0.30337524l0.59625244 -6.333542l1.7940674 -7.241005l2.094818 0.9047928l4.1870117 -0.6014252l2.691101 -1.508873l3.5881042 -0.6040802l-1.1951599 4.523964l-1.1951599 7.54171z" fill-rule="evenodd"/><path fill="#fbcf8f" d="m234.78036 126.99501l2.9892273 6.032837l-5.4454956 15.016907l-1.7966919 15.080765l-2.9259033 10.929352l13.758835 1.8095856l13.458084 -4.8273315l10.766968 -9.351303l11.661377 -40.420273l-3.289978 -17.797806l-6.2792053 -7.54171l-17.943207 2.7143784l-10.832947 12.299858z" fill-rule="evenodd"/><path fill="#fbd9b6" d="m267.38077 125.7894l-5.234436 0.30070496l-4.6355286 -0.45239258l-3.0551605 -2.328514l-0.9814606 -5.2132034l3.4377441 -8.747215l2.543335 0.4524002l3.1395874 -0.3007126l3.2240295 -0.9713211l6.0470276 -1.290657l-1.0473938 5.277069l-2.0921936 7.6933975z" fill-rule="evenodd"/><path fill="#fbcf8f" d="m231.78627 124.88444l5.3848114 4.523964l1.4959259 6.636917l-2.094818 6.9376373l-3.5881195 6.937622l-1.7940521 8.145798l-0.8970337 7.5417175l-2.6937256 10.256088l-4.485153 10.556808l-4.485138 7.2409973l-6.5799713 7.8424225l-7.477005 3.6191711l-12.262909 2.4136658l-7.775131 -1.5088806l-1.1951599 -4.8246613l5.382187 -10.860184l4.785904 -8.145798l6.2792053 -6.333542l-0.8970337 -4.8273315l-0.29812622 -4.5239716l-4.485138 -5.7321167l-1.1977997 -3.6191711l3.289978 -6.6369324l3.5881195 -14.47934l8.972931 -6.937622l8.374023 -4.223259l7.477005 -1.508873z" fill-rule="evenodd"/><path fill="#fbd9b6" d="m229.3977 156.86072l-5.7489014 1.7404022l-3.9733124 -0.53489685l-1.941803 -1.657898l2.0921783 -9.050583l1.9444427 -6.336212l3.5881195 0.90478516l2.8414764 -0.14901733l4.1870117 -1.2081604l3.5881195 -2.1103058l0.5988922 3.015091l-4.933655 9.2022705z" fill-rule="evenodd"/><path fill="#fbcf8f" d="m149.24112 187.92953l2.9918518 -5.4287567l4.1870117 -7.2410126l3.289978 -5.4287567l2.0921936 -5.4314117l5.981079 -4.2232513l7.1788635 -3.315796l9.869949 -0.90745544l7.775131 -0.3007202l4.187027 7.2410126l3.5881042 5.1280365l0.8970337 5.1280518l-5.0840454 6.333542l-7.1762238 10.5594635l-4.487793 9.952728l-3.8862457 7.2409973l-6.8807373 6.333542l-10.764343 5.1280518l-11.964783 5.732132l-8.970291 -3.6191711l-6.281845 -2.1129608l-4.1870117 -4.8246765l-0.89701843 -7.5417023l9.869949 -12.369049l2.9918518 -4.2232513z" fill-rule="evenodd"/><path fill="#fbd9b6" d="m186.17963 185.96802l-2.242569 1.2081757l-4.3374023 0.6014099l-3.8888855 0l-4.933655 -2.4109955l0.15039062 -2.2646484l3.437729 -4.675644l1.7940521 0.90745544l5.981079 0.75309753l11.067749 -0.90478516l-1.047409 1.657898l-2.3929596 3.1694336z" fill-rule="evenodd"/><path fill="#e06666" d="m226.57982 105.698166l-18.492737 6.9553375l10.305511 -24.936653zm-0.04222107 -47.970497l-8.156052 17.997871l-10.345627 -24.919643zm-33.94203 -33.88777l6.9553375 18.492743l-24.936646 -10.305523zm-47.968277 0.03685379l17.995651 8.161413l-24.919647 10.345631zm-33.88999 33.947395l18.492744 -6.9553375l-10.305527 24.93665zm0.03907013 47.962917l8.159195 -17.990295l10.345642 24.919647zm33.945175 33.895355l-6.9553375 -18.492744l24.93666 10.305519zm47.965134 -0.044433594l-17.992508 -8.153839l24.919647 -10.345634zm-67.46906 -75.82959l0 0c9.915031 -23.991772 37.401924 -35.40322 61.3937 -25.48819c23.991776 9.915035 35.40323 37.401928 25.48819 61.393703c-9.915039 23.991768 -37.40193 35.403214 -61.393707 25.48819c-23.991768 -9.915039 -35.403214 -37.40193 -25.488182 -61.393703z" fill-rule="evenodd"/><path fill="#e06666" d="m231.33832 81.766174l-14.435333 13.492096l0 -26.9842zm-18.362091 -44.320885l-0.66371155 19.74997l-19.08046 -19.080452zm-44.31508 -18.356283l13.492096 14.435324l-26.984192 0zm-44.320885 18.356283l19.749977 0.6695175l-19.08046 19.080452zm-18.356285 44.320885l14.435326 -13.492104l0 26.9842zm18.356285 44.31508l0.6695175 -19.744171l19.08046 19.080452zm44.320885 18.362091l-13.492096 -14.435333l26.984192 0zm44.31508 -18.362091l-19.744171 -0.6637192l19.08046 -19.080452zm-91.32295 -44.31508l0 0c0 -25.961735 21.046143 -47.007877 47.007874 -47.007877c25.961731 0 47.007874 21.046143 47.007874 47.007877c0 25.961731 -21.046143 47.007874 -47.007874 47.007874c-25.961731 0 -47.007874 -21.046143 -47.007874 -47.007874z" fill-rule="evenodd"/><defs><radialGradient id="p.1" gradientUnits="userSpaceOnUse" gradientTransform="matrix(8.549700546167324 0.0 0.0 8.549700546167324 0.0 0.0)" spreadMethod="pad" cx="19.726877001759107" cy="9.563168817116662" fx="19.726877001759107" fy="9.563168817116662" r="8.549700736999512"><stop offset="0.0" stop-color="#ff0000"/><stop offset="0.91" stop-color="#aa0202"/><stop offset="0.99999994" stop-color="#7f0303"/><stop offset="1.0" stop-color="#540303"/></radialGradient></defs><path fill="url(#p.1)" d="m117.49354 81.76223l0 0c0 -28.831875 22.907509 -52.204727 51.16535 -52.204727l0 0c13.5699005 0 26.584 5.500124 36.179367 15.290411c9.595367 9.790283 14.985992 23.068764 14.985992 36.914314l0 0c0 28.831871 -22.907516 52.20472 -51.16536 52.20472l0 0c-28.257843 0 -51.16535 -23.372849 -51.16535 -52.20472z" fill-rule="evenodd"/><path stroke="#cc0000" stroke-width="4.0" stroke-linejoin="round" stroke-linecap="butt" d="m117.49354 81.76223l0 0c0 -28.831875 22.907509 -52.204727 51.16535 -52.204727l0 0c13.5699005 0 26.584 5.500124 36.179367 15.290411c9.595367 9.790283 14.985992 23.068764 14.985992 36.914314l0 0c0 28.831871 -22.907516 52.20472 -51.16536 52.20472l0 0c-28.257843 0 -51.16535 -23.372849 -51.16535 -52.20472z" fill-rule="evenodd"/></g></svg>