<svg version="1.1" viewBox="0.0 0.0 299.5196850393701 126.71916010498688" fill="none" stroke="none" stroke-linecap="square" stroke-miterlimit="10" xmlns:xlink="http://www.w3.org/1999/xlink" xmlns="http://www.w3.org/2000/svg"><clipPath id="p.0"><path d="m0 0l299.51968 0l0 126.71916l-299.51968 0l0 -126.71916z" clip-rule="nonzero"/></clipPath><g clip-path="url(#p.0)"><path fill="#000000" fill-opacity="0.0" d="m0 0l299.51968 0l0 126.71916l-299.51968 0z" fill-rule="evenodd"/><path fill="#ffffff" d="m53.65039 64.934074l0 0c0 -3.37072 2.7321358 -6.1032257 6.1024017 -6.1032257l0 0c1.618454 0 3.1706238 0.6430168 4.315048 1.7875938c1.1444244 1.144577 1.7873535 2.6969566 1.7873535 4.315632l0 0c0 3.37072 -2.7321396 6.1032333 -6.1024017 6.1032333l0 0c-3.370266 0 -6.1024017 -2.7325134 -6.1024017 -6.1032333z" fill-rule="evenodd"/><path fill="#ffffff" d="m59.330475 63.411053l0 0c0 -4.211796 3.419075 -7.626129 7.6367188 -7.626129l0 0c2.025383 0 3.9678116 0.8034668 5.3999786 2.2336426c1.4321594 1.4301758 2.23674 3.3699112 2.23674 5.3924866l0 0c0 4.211796 -3.419075 7.626133 -7.6367188 7.626133l0 0c-4.2176437 0 -7.6367188 -3.4143372 -7.6367188 -7.626133z" fill-rule="evenodd"/><path fill="#ffffff" d="m76.45787 64.934074l0 0c0 -3.37072 2.7321396 -6.1032257 6.1024017 -6.1032257l0 0c1.6184616 0 3.1706314 0.6430168 4.315048 1.7875938c1.1444244 1.144577 1.7873535 2.6969566 1.7873535 4.315632l0 0c0 3.37072 -2.7321396 6.1032333 -6.1024017 6.1032333l0 0c-3.3702621 0 -6.1024017 -2.7325134 -6.1024017 -6.1032333z" fill-rule="evenodd"/><path fill="#ffffff" d="m65.85527 61.769886l0 0c0 -5.117073 4.147644 -9.265282 9.264023 -9.265282l0 0c2.4569778 0 4.8133163 0.97616196 6.550659 2.7137375c1.7373428 1.7375793 2.7133713 4.0942383 2.7133713 6.551544l0 0c0 5.117077 -4.147644 9.2652855 -9.26403 9.2652855l0 0c-5.116379 0 -9.264023 -4.1482086 -9.264023 -9.2652855z" fill-rule="evenodd"/><path fill="#ffffff" d="m26.248804 27.436117l0 0c0 -3.9245148 3.2125359 -7.1059628 7.1754017 -7.1059628l0 0c1.9030342 0 3.7281265 0.74866104 5.0737762 2.0812874c1.3456459 1.3326263 2.1016235 3.1400566 2.1016235 5.0246754l0 0c0 3.9245148 -3.2125359 7.1059628 -7.1754 7.1059628l0 0c-3.9628658 0 -7.1754017 -3.181448 -7.1754017 -7.1059628z" fill-rule="evenodd"/><path fill="#ffffff" d="m40.599606 27.436117l0 0c0 -3.9245148 3.2125397 -7.1059628 7.1754036 -7.1059628l0 0c1.9030342 0 3.7281265 0.74866104 5.0737762 2.0812874c1.3456459 1.3326263 2.1016235 3.1400566 2.1016235 5.0246754l0 0c0 3.9245148 -3.2125359 7.1059628 -7.1754 7.1059628l0 0c-3.962864 0 -7.1754036 -3.181448 -7.1754036 -7.1059628z" fill-rule="evenodd"/><path fill="#ffffff" d="m46.910873 27.436117l0 0c0 -3.9245148 3.2125359 -7.1059628 7.1754036 -7.1059628l0 0c1.9030342 0 3.7281265 0.74866104 5.0737724 2.0812874c1.3456497 1.3326263 2.1016273 3.1400566 2.1016273 5.0246754l0 0c0 3.9245148 -3.2125359 7.1059628 -7.1754 7.1059628l0 0c-3.9628677 0 -7.1754036 -3.181448 -7.1754036 -7.1059628z" fill-rule="evenodd"/><path fill="#ffffff" d="m32.56007 27.436117l0 0c0 -3.9245148 3.2125359 -7.1059628 7.1754036 -7.1059628l0 0c1.9030342 0 3.7281265 0.74866104 5.0737724 2.0812874c1.3456497 1.3326263 2.1016273 3.1400566 2.1016273 5.0246754l0 0c0 3.9245148 -3.2125359 7.1059628 -7.1754 7.1059628l0 0c-3.9628677 0 -7.1754036 -3.181448 -7.1754036 -7.1059628z" fill-rule="evenodd"/><path fill="#ffffff" d="m221.60396 65.879684l0 0c0 -2.8484268 2.3465424 -5.157528 5.2411346 -5.157528l0 0c1.3900299 0 2.7231293 0.54338074 3.7060394 1.5106049c0.9828949 0.9672241 1.53508 2.2790565 1.53508 3.646923l0 0c0 2.8484192 -2.346527 5.157524 -5.2411194 5.157524l0 0c-2.8945923 0 -5.2411346 -2.309105 -5.2411346 -5.157524z" fill-rule="evenodd"/><path fill="#ffffff" d="m210.96037 62.857258l0 0c0 -4.477066 3.6882172 -8.106449 8.237854 -8.106449l0 0c2.1848145 0 4.280136 0.85406876 5.8250275 2.3743248c1.5449066 1.5202522 2.4128113 3.582161 2.4128113 5.7321243l0 0c0 4.47707 -3.688202 8.106449 -8.237839 8.106449l0 0c-4.549637 0 -8.237854 -3.6293793 -8.237854 -8.106449z" fill-rule="evenodd"/><path fill="#ffffff" d="m200.3153 61.7708l0 0c0 -5.117626 4.255188 -9.266277 9.504242 -9.266277l0 0c2.5206757 0 4.9381256 0.97626495 6.72052 2.7140274c1.7823944 1.7377663 2.783722 4.094681 2.783722 6.55225l0 0c0 5.1176186 -4.255188 9.266277 -9.504242 9.266277l0 0c-5.249054 0 -9.504242 -4.1486588 -9.504242 -9.266277z" fill-rule="evenodd"/><path fill="#ffffff" d="m194.34903 64.50994l0 0c0 -3.604824 2.9977264 -6.527111 6.6956024 -6.527111l0 0c1.7757874 0 3.478836 0.6876755 4.7345123 1.911747c1.255661 1.2240715 1.9610901 2.884266 1.9610901 4.615364l0 0c0 3.6048203 -2.9977264 6.5271072 -6.6956024 6.5271072l0 0c-3.697876 0 -6.6956024 -2.922287 -6.6956024 -6.5271072z" fill-rule="evenodd"/><path fill="#ffffff" d="m196.92946 67.26186l0 0c0 -2.085205 1.6903839 -3.7756042 3.7756042 -3.7756042l26.302948 0c1.001358 0 1.9617004 0.397789 2.6697693 1.1058502c0.7080536 0.7080612 1.1058502 1.6684036 1.1058502 2.669754l0 0l0 0c0 2.0852127 -1.6903992 3.7756119 -3.7756195 3.7756119l-26.302948 0c-2.0852203 0 -3.7756042 -1.6903992 -3.7756042 -3.7756119z" fill-rule="evenodd"/><path fill="#ffffff" d="m253.64659 29.549309l0 0c0 -3.9245148 3.2125397 -7.1059628 7.1754 -7.1059628l0 0c1.9030457 0 3.728119 0.74866295 5.073761 2.0812893c1.3456726 1.3326263 2.1016235 3.1400547 2.1016235 5.0246735l0 0c0 3.9245148 -3.2125244 7.105961 -7.1753845 7.105961l0 0c-3.96286 0 -7.1754 -3.181446 -7.1754 -7.105961z" fill-rule="evenodd"/><path fill="#ffffff" d="m267.99738 29.549309l0 0c0 -3.9245148 3.212555 -7.1059628 7.175415 -7.1059628l0 0c1.9030457 0 3.728119 0.74866295 5.073761 2.0812893c1.3456726 1.3326263 2.101654 3.1400547 2.101654 5.0246735l0 0c0 3.9245148 -3.212555 7.105961 -7.175415 7.105961l0 0c-3.96286 0 -7.175415 -3.181446 -7.175415 -7.105961z" fill-rule="evenodd"/><path fill="#ffffff" d="m274.30865 29.549309l0 0c0 -3.9245148 3.2125244 -7.1059628 7.175415 -7.1059628l0 0c1.9030151 0 3.728119 0.74866295 5.073761 2.0812893c1.3456421 1.3326263 2.1016235 3.1400547 2.1016235 5.0246735l0 0c0 3.9245148 -3.2125244 7.105961 -7.1753845 7.105961l0 0c-3.9628906 0 -7.175415 -3.181446 -7.175415 -7.105961z" fill-rule="evenodd"/><path fill="#ffffff" d="m259.95786 29.549309l0 0c0 -3.9245148 3.2125244 -7.1059628 7.175415 -7.1059628l0 0c1.9030151 0 3.728119 0.74866295 5.073761 2.0812893c1.3456421 1.3326263 2.1016235 3.1400547 2.1016235 5.0246735l0 0c0 3.9245148 -3.2125244 7.105961 -7.1753845 7.105961l0 0c-3.9628906 0 -7.175415 -3.181446 -7.175415 -7.105961z" fill-rule="evenodd"/><path fill="#ffffff" d="m34.39888 103.47672l0 0c0 -2.8484192 -2.3129349 -5.157524 -5.166086 -5.157524l0 0c-1.3701305 0 -2.684145 0.54338074 -3.6529732 1.5106049c-0.9688301 0.9672241 -1.513113 2.2790604 -1.513113 3.6469193l0 0c0 2.8484268 2.3129368 5.1575317 5.166086 5.1575317l0 0c2.8531513 0 5.166086 -2.309105 5.166086 -5.1575317z" fill-rule="evenodd"/><path fill="#ffffff" d="m44.89007 100.4543l0 0c0 -4.477066 -3.6354027 -8.106445 -8.119896 -8.106445l0 0c-2.153534 0 -4.2188606 0.85406494 -5.741638 2.374321c-1.5227757 1.520256 -2.3782635 3.582161 -2.3782635 5.7321243l0 0c0 4.477066 3.6354046 8.106453 8.119902 8.106453l0 0c4.4844933 0 8.119896 -3.629387 8.119896 -8.106453z" fill-rule="evenodd"/><path fill="#ffffff" d="m55.382725 99.36784l0 0c0 -5.1176224 -4.194271 -9.2662735 -9.368164 -9.2662735l0 0c-2.4845924 0 -4.86742 0.97626495 -6.6242905 2.7140274c-1.7568741 1.7377625 -2.7438736 4.094673 -2.7438736 6.552246l0 0c0 5.1176224 4.194271 9.2662735 9.368164 9.2662735l0 0c5.173893 0 9.368164 -4.148651 9.368164 -9.2662735z" fill-rule="evenodd"/><path fill="#ffffff" d="m61.263577 102.10698l0 0c0 -3.6048203 -2.9548035 -6.5271072 -6.5997353 -6.5271072l0 0c-1.7503586 0 -3.4290276 0.6876755 -4.6667175 1.9117508c-1.2376938 1.2240677 -1.9330177 2.884262 -1.9330177 4.6153564l0 0c0 3.604828 2.9547997 6.527115 6.5997353 6.527115l0 0c3.6449318 0 6.5997353 -2.922287 6.5997353 -6.527115z" fill-rule="evenodd"/><path fill="#ffffff" d="m58.7201 104.85891l0 0c0 -2.0852127 -1.6903992 -3.7756042 -3.775608 -3.7756042l-25.818235 0c-1.0013542 0 -1.9616928 0.39778137 -2.6697578 1.1058502c-0.7080631 0.7080612 -1.1058483 1.6684036 -1.1058483 2.669754l0 0l0 0c0 2.0852127 1.6903954 3.7756042 3.7756062 3.7756042l25.818235 0c2.085209 0 3.775608 -1.6903915 3.775608 -3.7756042z" fill-rule="evenodd"/><path fill="#ffffff" d="m215.08627 116.059685l0 0c0 -2.9706345 2.4166718 -5.3788147 5.3977814 -5.3788147l0 0c1.4315796 0 2.8045197 0.56669617 3.816803 1.5754166c1.0122833 1.008728 1.5809784 2.3768463 1.5809784 3.8033981l0 0c0 2.970642 -2.4166718 5.3788223 -5.3977814 5.3788223l0 0c-2.9811096 0 -5.3977814 -2.4081802 -5.3977814 -5.3788223z" fill-rule="evenodd"/><path fill="#ffffff" d="m196.63704 115.24263l0 0c0 -3.426178 2.787262 -6.2036514 6.2255096 -6.2036514l0 0c1.6511078 0 3.234604 0.653595 4.402115 1.817009c1.167511 1.1634064 1.82341 2.741333 1.82341 4.3866425l0 0c0 3.4261856 -2.787262 6.2036514 -6.225525 6.2036514l0 0c-3.4382477 0 -6.2255096 -2.7774658 -6.2255096 -6.2036514z" fill-rule="evenodd"/><path fill="#ffffff" d="m203.61768 113.10502l0 0c0 -4.606735 3.7476501 -8.34124 8.370636 -8.34124l0 0c2.2200317 0 4.3491364 0.87880707 5.91893 2.4430923c1.5697937 1.5642853 2.451706 3.685913 2.451706 5.8981476l0 0c0 4.606735 -3.7476654 8.34124 -8.370636 8.34124l0 0c-4.622986 0 -8.370636 -3.7345047 -8.370636 -8.34124z" fill-rule="evenodd"/><path fill="#ffffff" d="m279.55652 90.9937l0 0c0 -3.37072 -2.7506409 -6.1032333 -6.143738 -6.1032333l0 0c-1.629425 0 -3.1921082 0.64302063 -4.3442993 1.7875977c-1.1521606 1.144577 -1.7994385 2.6969528 -1.7994385 4.3156357l0 0c0 3.37072 2.7506409 6.1032257 6.143738 6.1032257l0 0c3.393097 0 6.143738 -2.7325058 6.143738 -6.1032257z" fill-rule="evenodd"/><path fill="#ffffff" d="m273.83795 89.47067l0 0c0 -4.211792 -3.4422302 -7.626129 -7.688446 -7.626129l0 0c-2.0391235 0 -3.99469 0.8034668 -5.436554 2.2336426c-1.441864 1.4301758 -2.251892 3.3699112 -2.251892 5.3924866l0 0c0 4.211792 3.4422302 7.626129 7.688446 7.626129l0 0c4.246216 0 7.688446 -3.4143372 7.688446 -7.626129z" fill-rule="evenodd"/><path fill="#ffffff" d="m256.59454 90.9937l0 0c0 -3.37072 -2.7506561 -6.1032333 -6.143753 -6.1032333l0 0c-1.629425 0 -3.1921082 0.64302063 -4.344284 1.7875977c-1.1521759 1.144577 -1.7994537 2.6969528 -1.7994537 4.3156357l0 0c0 3.37072 2.7506409 6.1032257 6.143738 6.1032257l0 0c3.393097 0 6.143753 -2.7325058 6.143753 -6.1032257z" fill-rule="evenodd"/><path fill="#ffffff" d="m267.26895 87.829506l0 0c0 -5.117073 -4.1757507 -9.265282 -9.326782 -9.265282l0 0c-2.4736176 0 -4.8459167 0.97615814 -6.5950317 2.7137375c-1.7490997 1.7375793 -2.7317505 4.0942383 -2.7317505 6.551544l0 0c0 5.117073 4.1757507 9.265282 9.326782 9.265282l0 0c5.1510315 0 9.326782 -4.1482086 9.326782 -9.265282z" fill-rule="evenodd"/><path fill="#ffffff" d="m125.864494 27.2736l0 0c0 -2.970642 2.4166641 -5.3788204 5.3977737 -5.3788204l0 0c1.4315796 0 2.8045197 0.56669426 3.816803 1.5754185c1.0122833 1.0087261 1.5809784 2.3768501 1.5809784 3.803402l0 0c0 2.9706402 -2.4166718 5.3788204 -5.3977814 5.3788204l0 0c-2.9811096 0 -5.3977737 -2.4081802 -5.3977737 -5.3788204z" fill-rule="evenodd"/><path fill="#ffffff" d="m107.41525 26.456541l0 0c0 -3.4261818 2.787262 -6.2036495 6.2255173 -6.2036495l0 0c1.6511078 0 3.2345963 0.6535969 4.4020996 1.8170071c1.167511 1.1634102 1.8234177 2.741333 1.8234177 4.3866425l0 0c0 3.4261818 -2.787262 6.2036495 -6.2255173 6.2036495l0 0c-3.4382553 0 -6.2255173 -2.7774677 -6.2255173 -6.2036495z" fill-rule="evenodd"/><path fill="#ffffff" d="m114.39589 24.31893l0 0c0 -4.606739 3.7476578 -8.341239 8.370636 -8.341239l0 0c2.2200317 0 4.3491287 0.8788061 5.91893 2.4430933c1.5697937 1.5642853 2.451706 3.6859112 2.451706 5.8981457l0 0c0 4.606737 -3.7476654 8.341238 -8.370636 8.341238l0 0c-4.622978 0 -8.370636 -3.734501 -8.370636 -8.341238z" fill-rule="evenodd"/><path fill="#ffffff" d="m201.26213 27.2736l0 0c0 -2.970642 2.4166718 -5.3788204 5.3977814 -5.3788204l0 0c1.4315796 0 2.8045197 0.56669426 3.816803 1.5754185c1.0122833 1.0087261 1.5809631 2.3768501 1.5809631 3.803402l0 0c0 2.9706402 -2.4166565 5.3788204 -5.397766 5.3788204l0 0c-2.9811096 0 -5.3977814 -2.4081802 -5.3977814 -5.3788204z" fill-rule="evenodd"/><path fill="#ffffff" d="m182.8129 26.456541l0 0c0 -3.4261818 2.7872467 -6.2036495 6.2255096 -6.2036495l0 0c1.6511078 0 3.2345886 0.6535969 4.4020996 1.8170071c1.167511 1.1634102 1.82341 2.741333 1.82341 4.3866425l0 0c0 3.4261818 -2.7872467 6.2036495 -6.2255096 6.2036495l0 0c-3.438263 0 -6.2255096 -2.7774677 -6.2255096 -6.2036495z" fill-rule="evenodd"/><path fill="#ffffff" d="m189.79352 24.31893l0 0c0 -4.606739 3.7476654 -8.341239 8.370636 -8.341239l0 0c2.2200317 0 4.3491364 0.8788061 5.9189453 2.4430933c1.5697937 1.5642853 2.4516907 3.6859112 2.4516907 5.8981457l0 0c0 4.606737 -3.7476501 8.341238 -8.370636 8.341238l0 0c-4.6229706 0 -8.370636 -3.734501 -8.370636 -8.341238z" fill-rule="evenodd"/><path fill="#ffffff" d="m93.317055 114.02594l0 0c0 -3.37072 2.7321396 -6.1032257 6.1024017 -6.1032257l0 0c1.6184616 0 3.1706314 0.643013 4.315048 1.78759c1.1444244 1.144577 1.7873535 2.6969604 1.7873535 4.3156357l0 0c0 3.37072 -2.7321396 6.1032257 -6.1024017 6.1032257l0 0c-3.3702621 0 -6.1024017 -2.7325058 -6.1024017 -6.1032257z" fill-rule="evenodd"/><path fill="#ffffff" d="m98.99714 112.502914l0 0c0 -4.211792 3.4190826 -7.626129 7.6367264 -7.626129l0 0c2.025383 0 3.9678116 0.8034668 5.399971 2.2336426c1.432167 1.4301758 2.2367477 3.3699112 2.2367477 5.3924866l0 0c0 4.2117996 -3.419075 7.626129 -7.6367188 7.626129l0 0c-4.2176437 0 -7.6367264 -3.4143295 -7.6367264 -7.626129z" fill-rule="evenodd"/><path fill="#ffffff" d="m116.12454 114.02594l0 0c0 -3.37072 2.732132 -6.1032257 6.1024017 -6.1032257l0 0c1.618454 0 3.1706238 0.643013 4.315048 1.78759c1.1444244 1.144577 1.7873535 2.6969604 1.7873535 4.3156357l0 0c0 3.37072 -2.7321396 6.1032257 -6.1024017 6.1032257l0 0c-3.3702698 0 -6.1024017 -2.7325058 -6.1024017 -6.1032257z" fill-rule="evenodd"/><path fill="#ffffff" d="m105.521935 110.86175l0 0c0 -5.117073 4.147644 -9.265282 9.26403 -9.265282l0 0c2.4569702 0 4.8133087 0.9761658 6.5506516 2.7137375c1.7373428 1.7375793 2.7133713 4.0942383 2.7133713 6.551544l0 0c0 5.117073 -4.147644 9.265282 -9.264023 9.265282l0 0c-5.1163864 0 -9.26403 -4.1482086 -9.26403 -9.265282z" fill-rule="evenodd"/></g></svg>