<svg version="1.1" viewBox="0.0 0.0 299.5196850393701 126.71916010498688" fill="none" stroke="none" stroke-linecap="square" stroke-miterlimit="10" xmlns:xlink="http://www.w3.org/1999/xlink" xmlns="http://www.w3.org/2000/svg"><clipPath id="p.0"><path d="m0 0l299.51968 0l0 126.71916l-299.51968 0l0 -126.71916z" clip-rule="nonzero"/></clipPath><g clip-path="url(#p.0)"><path fill="#000000" fill-opacity="0.0" d="m0 0l299.51968 0l0 126.71916l-299.51968 0z" fill-rule="evenodd"/><path fill="#f3f3f3" d="m129.79211 110.23329l0 0c0 -3.37072 2.7321472 -6.1032333 6.1024017 -6.1032333l0 0c1.6184692 0 3.170639 0.64302063 4.3150635 1.7875977c1.1444092 1.144577 1.7873383 2.6969528 1.7873383 4.3156357l0 0c0 3.37072 -2.732132 6.1032257 -6.1024017 6.1032257l0 0c-3.3702545 0 -6.1024017 -2.7325058 -6.1024017 -6.1032257z" fill-rule="evenodd"/><path fill="#f3f3f3" d="m135.47221 108.710266l0 0c0 -4.211792 3.4190674 -7.626129 7.6367188 -7.626129l0 0c2.0253754 0 3.967804 0.8034668 5.3999786 2.2336426c1.4321594 1.4301758 2.23674 3.3699112 2.23674 5.3924866l0 0c0 4.211792 -3.4190826 7.626129 -7.6367188 7.626129l0 0c-4.2176514 0 -7.6367188 -3.4143372 -7.6367188 -7.626129z" fill-rule="evenodd"/><path fill="#f3f3f3" d="m152.59961 110.23329l0 0c0 -3.37072 2.732132 -6.1032333 6.1024017 -6.1032333l0 0c1.618454 0 3.1706238 0.64302063 4.315048 1.7875977c1.1444244 1.144577 1.7873535 2.6969528 1.7873535 4.3156357l0 0c0 3.37072 -2.7321472 6.1032257 -6.1024017 6.1032257l0 0c-3.3702698 0 -6.1024017 -2.7325058 -6.1024017 -6.1032257z" fill-rule="evenodd"/><path fill="#f3f3f3" d="m141.997 107.0691l0 0c0 -5.117073 4.1476593 -9.265282 9.264038 -9.265282l0 0c2.4569702 0 4.8133087 0.97615814 6.550659 2.7137375c1.7373352 1.7375793 2.7133636 4.0942383 2.7133636 6.551544l0 0c0 5.117073 -4.147644 9.265282 -9.264023 9.265282l0 0c-5.116379 0 -9.264038 -4.1482086 -9.264038 -9.265282z" fill-rule="evenodd"/><path fill="#f3f3f3" d="m54.31967 37.879684l0 0c0 -3.924511 3.2125359 -7.105961 7.1754 -7.105961l0 0c1.9030342 0 3.7281265 0.74866295 5.0737762 2.0812874c1.3456497 1.3326263 2.1016235 3.1400566 2.1016235 5.0246735l0 0c0 3.9245148 -3.212532 7.1059647 -7.1754 7.1059647l0 0c-3.962864 0 -7.1754 -3.18145 -7.1754 -7.1059647z" fill-rule="evenodd"/><path fill="#f3f3f3" d="m68.67047 37.879684l0 0c0 -3.924511 3.2125397 -7.105961 7.1754 -7.105961l0 0c1.903038 0 3.7281265 0.74866295 5.0737762 2.0812874c1.3456497 1.3326263 2.1016312 3.1400566 2.1016312 5.0246735l0 0c0 3.9245148 -3.2125397 7.1059647 -7.1754074 7.1059647l0 0c-3.96286 0 -7.1754 -3.18145 -7.1754 -7.1059647z" fill-rule="evenodd"/><path fill="#f3f3f3" d="m74.98174 37.879684l0 0c0 -3.924511 3.212532 -7.105961 7.1754 -7.105961l0 0c1.9030304 0 3.7281265 0.74866295 5.0737762 2.0812874c1.3456497 1.3326263 2.1016235 3.1400566 2.1016235 5.0246735l0 0c0 3.9245148 -3.212532 7.1059647 -7.1754 7.1059647l0 0c-3.9628677 0 -7.1754 -3.18145 -7.1754 -7.1059647z" fill-rule="evenodd"/><path fill="#f3f3f3" d="m60.630936 37.879684l0 0c0 -3.924511 3.2125397 -7.105961 7.1754 -7.105961l0 0c1.903038 0 3.7281265 0.74866295 5.0737762 2.0812874c1.3456497 1.3326263 2.1016312 3.1400566 2.1016312 5.0246735l0 0c0 3.9245148 -3.2125397 7.1059647 -7.1754074 7.1059647l0 0c-3.96286 0 -7.1754 -3.18145 -7.1754 -7.1059647z" fill-rule="evenodd"/><path fill="#f3f3f3" d="m188.78506 45.74451l0 0c0 -2.848423 2.346527 -5.157528 5.2411194 -5.157528l0 0c1.3900452 0 2.7231445 0.54338074 3.7060394 1.5106049c0.98291016 0.9672241 1.5350952 2.2790642 1.5350952 3.646923l0 0c0 2.8484268 -2.346527 5.157528 -5.2411346 5.157528l0 0c-2.8945923 0 -5.2411194 -2.309101 -5.2411194 -5.157528z" fill-rule="evenodd"/><path fill="#f3f3f3" d="m178.14148 42.722088l0 0c0 -4.47707 3.688202 -8.106449 8.237839 -8.106449l0 0c2.1848145 0 4.2801514 0.85406876 5.8250427 2.3743248c1.5448914 1.5202522 2.4128113 3.582161 2.4128113 5.7321243l0 0c0 4.477066 -3.6882172 8.106449 -8.237854 8.106449l0 0c-4.549637 0 -8.237839 -3.629383 -8.237839 -8.106449z" fill-rule="evenodd"/><path fill="#f3f3f3" d="m167.4964 41.635628l0 0c0 -5.1176224 4.2552032 -9.2662735 9.504257 -9.2662735l0 0c2.5206757 0 4.9381256 0.97626495 6.72052 2.7140274c1.7823792 1.7377663 2.783722 4.094677 2.783722 6.552246l0 0c0 5.1176224 -4.2552032 9.266277 -9.504242 9.266277l0 0c-5.249054 0 -9.504257 -4.148655 -9.504257 -9.266277z" fill-rule="evenodd"/><path fill="#f3f3f3" d="m161.53014 44.37477l0 0c0 -3.604824 2.9977112 -6.527111 6.6956024 -6.527111l0 0c1.7757874 0 3.478836 0.6876755 4.734497 1.911747c1.2556763 1.2240715 1.9611053 2.884266 1.9611053 4.615364l0 0c0 3.604824 -2.9977264 6.527111 -6.6956024 6.527111l0 0c-3.6978912 0 -6.6956024 -2.922287 -6.6956024 -6.527111z" fill-rule="evenodd"/><path fill="#f3f3f3" d="m164.11055 47.126698l0 0c0 -2.085209 1.6903992 -3.775608 3.7756042 -3.775608l26.302963 0c1.001358 0 1.9617004 0.3977852 2.669754 1.1058502c0.70806885 0.70806503 1.1058502 1.6684036 1.1058502 2.6697578l0 0l0 0c0 2.085209 -1.6903839 3.7756042 -3.7756042 3.7756042l-26.302963 0c-2.085205 0 -3.7756042 -1.6903954 -3.7756042 -3.7756042z" fill-rule="evenodd"/><path fill="#f3f3f3" d="m246.47736 115.7526l0 0c0 -2.970642 2.4166565 -5.3788223 5.397766 -5.3788223l0 0c1.4315796 0 2.804535 0.56669617 3.8168182 1.5754242c1.0122833 1.0087204 1.5809784 2.3768463 1.5809784 3.8033981l0 0c0 2.970642 -2.4166718 5.3788223 -5.3977966 5.3788223l0 0c-2.9811096 0 -5.397766 -2.4081802 -5.397766 -5.3788223z" fill-rule="evenodd"/><path fill="#f3f3f3" d="m228.02812 114.93555l0 0c0 -3.4261856 2.7872467 -6.2036514 6.2255096 -6.2036514l0 0c1.6511078 0 3.2345886 0.653595 4.4020996 1.8170013c1.167511 1.163414 1.82341 2.741333 1.82341 4.38665l0 0c0 3.426178 -2.7872467 6.203644 -6.2255096 6.203644l0 0c-3.438263 0 -6.2255096 -2.7774658 -6.2255096 -6.203644z" fill-rule="evenodd"/><path fill="#f3f3f3" d="m235.00874 112.79793l0 0c0 -4.606735 3.7476654 -8.341232 8.370636 -8.341232l0 0c2.2200317 0 4.3491364 0.87880707 5.9189453 2.4430923c1.5697937 1.5642853 2.4516907 3.685913 2.4516907 5.89814l0 0c0 4.606743 -3.7476501 8.34124 -8.370636 8.34124l0 0c-4.6229706 0 -8.370636 -3.734497 -8.370636 -8.34124z" fill-rule="evenodd"/><path fill="#f3f3f3" d="m256.06918 27.213068l0 0c0 -2.848425 -2.3347473 -5.157528 -5.214798 -5.157528l0 0c-1.3830566 0 -2.7094574 0.54338074 -3.6874237 1.5106049c-0.9779663 0.9672241 -1.5273743 2.2790604 -1.5273743 3.646923l0 0c0 2.848423 2.3347473 5.157526 5.214798 5.157526l0 0c2.8800507 0 5.214798 -2.309103 5.214798 -5.157526z" fill-rule="evenodd"/><path fill="#f3f3f3" d="m266.6593 24.190643l0 0c0 -4.477068 -3.6696777 -8.106449 -8.196472 -8.106449l0 0c-2.1738281 0 -4.2586365 0.85407066 -5.795761 2.3743248c-1.5371399 1.5202541 -2.4006958 3.582161 -2.4006958 5.7321243l0 0c0 4.477068 3.6696777 8.106449 8.196457 8.106449l0 0c4.5267944 0 8.196472 -3.6293812 8.196472 -8.106449z" fill-rule="evenodd"/><path fill="#f3f3f3" d="m277.2509 23.104185l0 0c0 -5.1176224 -4.2338257 -9.266275 -9.456482 -9.266275l0 0c-2.5080261 0 -4.91333 0.97626495 -6.6867676 2.7140293c-1.7734375 1.7377625 -2.7697449 4.094677 -2.7697449 6.552246l0 0c0 5.1176224 4.2338257 9.266275 9.456512 9.266275l0 0c5.2226562 0 9.456482 -4.148653 9.456482 -9.266275z" fill-rule="evenodd"/><path fill="#f3f3f3" d="m283.1872 25.843327l0 0c0 -3.604824 -2.982666 -6.527111 -6.661957 -6.527111l0 0c-1.7668762 0 -3.4613647 0.6876755 -4.710724 1.911747c-1.2493591 1.2240696 -1.9512634 2.884266 -1.9512634 4.615364l0 0c0 3.6048222 2.982666 6.527111 6.6619873 6.527111l0 0c3.6792908 0 6.661957 -2.922289 6.661957 -6.527111z" fill-rule="evenodd"/><path fill="#f3f3f3" d="m280.61972 28.595253l0 0c0 -2.0852108 -1.6903992 -3.7756062 -3.7756042 -3.7756062l-26.132874 0c-1.001358 0 -1.9617004 0.3977852 -2.669754 1.1058483c-0.70806885 0.7080631 -1.1058502 1.6684036 -1.1058502 2.6697578l0 0l0 0c0 2.085209 1.6903992 3.7756042 3.7756042 3.7756042l26.132874 0c2.085205 0 3.7756042 -1.6903954 3.7756042 -3.7756042z" fill-rule="evenodd"/><path fill="#f3f3f3" d="m47.711575 104.38756l0 0c0 -2.8484268 2.346531 -5.1575317 5.241127 -5.1575317l0 0c1.3900337 0 2.723133 0.54338074 3.7060356 1.5106049c0.9829025 0.9672241 1.5350914 2.2790604 1.5350914 3.6469269l0 0c0 2.8484192 -2.3465347 5.157524 -5.241127 5.157524l0 0c-2.894596 0 -5.241127 -2.309105 -5.241127 -5.157524z" fill-rule="evenodd"/><path fill="#f3f3f3" d="m37.06798 101.365135l0 0c0 -4.4770737 3.6882133 -8.106453 8.23785 -8.106453l0 0c2.1848145 0 4.2801437 0.8540726 5.825039 2.3743286c1.5448952 1.5202484 2.4128113 3.582161 2.4128113 5.7321243l0 0c0 4.477066 -3.6882133 8.106445 -8.23785 8.106445l0 0c-4.549637 0 -8.23785 -3.6293793 -8.23785 -8.106445z" fill-rule="evenodd"/><path fill="#f3f3f3" d="m26.422916 100.27867l0 0c0 -5.1176224 4.2551956 -9.2662735 9.504246 -9.2662735l0 0c2.5206833 0 4.9381256 0.97626495 6.720516 2.7140274c1.7823906 1.7377625 2.7837296 4.094681 2.7837296 6.552246l0 0c0 5.1176224 -4.2551956 9.266281 -9.504246 9.266281l0 0c-5.24905 0 -9.504246 -4.1486588 -9.504246 -9.266281z" fill-rule="evenodd"/><path fill="#f3f3f3" d="m20.45664 103.017815l0 0c0 -3.6048203 2.9977245 -6.5271072 6.6956024 -6.5271072l0 0c1.7757854 0 3.478838 0.6876755 4.7345066 1.9117432c1.2556686 1.2240677 1.9610977 2.8842697 1.9610977 4.615364l0 0c0 3.6048203 -2.9977245 6.5271072 -6.6956043 6.5271072l0 0c-3.697878 0 -6.6956024 -2.922287 -6.6956024 -6.5271072z" fill-rule="evenodd"/><path fill="#f3f3f3" d="m23.037064 105.769745l0 0c0 -2.0852127 1.6903954 -3.7756119 3.7756062 -3.7756119l26.302961 0c1.0013504 0 1.9616928 0.397789 2.669754 1.1058502c0.70806503 0.7080612 1.1058502 1.6684036 1.1058502 2.6697617l0 0l0 0c0 2.085205 -1.6903954 3.7756042 -3.7756042 3.7756042l-26.302961 0c-2.0852108 0 -3.7756062 -1.6903992 -3.7756062 -3.7756042z" fill-rule="evenodd"/><path fill="#f3f3f3" d="m213.7352 78.40462l0 0c0 -2.8484268 2.346527 -5.1575317 5.2411194 -5.1575317l0 0c1.3900452 0 2.7231445 0.54338837 3.7060394 1.5106049c0.98291016 0.9672241 1.5350952 2.279068 1.5350952 3.6469269l0 0c0 2.8484268 -2.3465424 5.157524 -5.2411346 5.157524l0 0c-2.8945923 0 -5.2411194 -2.3090973 -5.2411194 -5.157524z" fill-rule="evenodd"/><path fill="#f3f3f3" d="m203.0916 75.382195l0 0c0 -4.4770737 3.6882172 -8.106453 8.237854 -8.106453l0 0c2.1848145 0 4.2801514 0.8540726 5.8250427 2.3743286c1.5448914 1.5202484 2.4128113 3.582161 2.4128113 5.7321243l0 0c0 4.477066 -3.6882172 8.106445 -8.237854 8.106445l0 0c-4.549637 0 -8.237854 -3.6293793 -8.237854 -8.106445z" fill-rule="evenodd"/><path fill="#f3f3f3" d="m192.44653 74.29573l0 0c0 -5.1176224 4.2552032 -9.2662735 9.504257 -9.2662735l0 0c2.5206757 0 4.9381104 0.97626495 6.7205048 2.7140274c1.7823944 1.7377701 2.7837372 4.094681 2.7837372 6.552246l0 0c0 5.11763 -4.2552032 9.266281 -9.504242 9.266281l0 0c-5.249054 0 -9.504257 -4.148651 -9.504257 -9.266281z" fill-rule="evenodd"/><path fill="#f3f3f3" d="m186.48026 77.034874l0 0c0 -3.6048203 2.9977264 -6.5271072 6.6956177 -6.5271072l0 0c1.7757721 0 3.478836 0.6876755 4.734497 1.9117432c1.2556763 1.2240753 1.9611053 2.8842697 1.9611053 4.615364l0 0c0 3.604828 -2.9977264 6.527115 -6.6956024 6.527115l0 0c-3.6978912 0 -6.6956177 -2.922287 -6.6956177 -6.527115z" fill-rule="evenodd"/><path fill="#f3f3f3" d="m189.06068 79.786804l0 0c0 -2.0852127 1.6903992 -3.7756119 3.7756042 -3.7756119l26.302963 0c1.001358 0 1.9617004 0.397789 2.669754 1.1058502c0.70806885 0.70806885 1.1058502 1.6684036 1.1058502 2.6697617l0 0l0 0c0 2.085205 -1.6903992 3.7756042 -3.7756042 3.7756042l-26.302963 0c-2.085205 0 -3.7756042 -1.6903992 -3.7756042 -3.7756042z" fill-rule="evenodd"/><path fill="#f3f3f3" d="m113.273254 79.362625l0 0c0 -2.8484268 2.3465347 -5.1575317 5.241127 -5.1575317l0 0c1.3900299 0 2.723137 0.54338074 3.7060394 1.5106049c0.9828949 0.9672241 1.5350876 2.2790604 1.5350876 3.6469269l0 0c0 2.8484192 -2.3465347 5.157524 -5.241127 5.157524l0 0c-2.8945923 0 -5.241127 -2.309105 -5.241127 -5.157524z" fill-rule="evenodd"/><path fill="#f3f3f3" d="m102.62966 76.340195l0 0c0 -4.477066 3.6882095 -8.106445 8.237854 -8.106445l0 0c2.1848068 0 4.280136 0.8540726 5.825035 2.374321c1.544899 1.520256 2.4128113 3.582161 2.4128113 5.7321243l0 0c0 4.4770737 -3.6882095 8.106453 -8.237846 8.106453l0 0c-4.5496445 0 -8.237854 -3.6293793 -8.237854 -8.106453z" fill-rule="evenodd"/><path fill="#f3f3f3" d="m91.9846 75.25374l0 0c0 -5.1176224 4.2551956 -9.2662735 9.504242 -9.2662735l0 0c2.5206833 0 4.9381256 0.97626495 6.72052 2.7140274c1.7823944 1.7377625 2.7837296 4.094681 2.7837296 6.552246l0 0c0 5.1176224 -4.2551956 9.2662735 -9.50425 9.2662735l0 0c-5.2490463 0 -9.504242 -4.148651 -9.504242 -9.2662735z" fill-rule="evenodd"/><path fill="#f3f3f3" d="m86.01832 77.99288l0 0c0 -3.604828 2.9977264 -6.527115 6.6956024 -6.527115l0 0c1.7757874 0 3.4788437 0.6876755 4.7345123 1.9117508c1.2556686 1.2240677 1.9610901 2.884262 1.9610901 4.615364l0 0c0 3.6048203 -2.9977188 6.5271072 -6.6956024 6.5271072l0 0c-3.697876 0 -6.6956024 -2.922287 -6.6956024 -6.5271072z" fill-rule="evenodd"/><path fill="#f3f3f3" d="m88.59874 80.744804l0 0c0 -2.085205 1.6903992 -3.7756042 3.7756119 -3.7756042l26.302956 0c1.001358 0 1.9616928 0.397789 2.6697617 1.1058502c0.7080612 0.7080612 1.1058502 1.6684036 1.1058502 2.669754l0 0l0 0c0 2.0852127 -1.6903992 3.7756119 -3.7756119 3.7756119l-26.302956 0c-2.0852127 0 -3.7756119 -1.6903992 -3.7756119 -3.7756119z" fill-rule="evenodd"/></g></svg>