<?xml version="1.0" encoding="UTF-8" standalone="no"?>
<svg
   xmlns:dc="http://purl.org/dc/elements/1.1/"
   xmlns:cc="http://creativecommons.org/ns#"
   xmlns:rdf="http://www.w3.org/1999/02/22-rdf-syntax-ns#"
   xmlns:svg="http://www.w3.org/2000/svg"
   xmlns="http://www.w3.org/2000/svg"
   xmlns:sodipodi="http://sodipodi.sourceforge.net/DTD/sodipodi-0.dtd"
   xmlns:inkscape="http://www.inkscape.org/namespaces/inkscape"
   version="1.1"
   viewBox="0.0 0.0 300.0 127.0"
   fill="none"
   stroke="none"
   stroke-linecap="square"
   stroke-miterlimit="10"
   id="svg2"
   inkscape:version="0.91 r13725"
   sodipodi:docname="stars-bg.svg">
  <metadata
     id="metadata205">
    <rdf:RDF>
      <cc:Work
         rdf:about="">
        <dc:format>image/svg+xml</dc:format>
        <dc:type
           rdf:resource="http://purl.org/dc/dcmitype/StillImage" />
      </cc:Work>
    </rdf:RDF>
  </metadata>
  <defs
     id="defs203" />
  <sodipodi:namedview
     pagecolor="#ffffff"
     bordercolor="#666666"
     borderopacity="1"
     objecttolerance="10"
     gridtolerance="10"
     guidetolerance="10"
     inkscape:pageopacity="0"
     inkscape:pageshadow="2"
     inkscape:window-width="640"
     inkscape:window-height="480"
     id="namedview201"
     showgrid="false"
     inkscape:zoom="3.84"
     inkscape:cx="224.29781"
     inkscape:cy="85.352264"
     inkscape:window-x="143"
     inkscape:window-y="216"
     inkscape:window-maximized="0"
     inkscape:current-layer="g7" />
  <clipPath
     id="p.0">
    <path
       d="m0 0l300.0 0l0 127.0l-300.0 0l0 -127.0z"
       clip-rule="nonzero"
       id="path5" />
  </clipPath>
  <g
     clip-path="url(#p.0)"
     id="g7">
    <path
       d="m0 0l300.0 0l0 127.0l-300.0 0z"
       id="path9"
       fill-rule="evenodd"
       fill="#000000" />
    <path
       d="m19.040909 5.3386993l0.046216965 0.6574497l-0.5449734 -0.3633275l-0.13287354 0.22491693l0.59119034 0.29604483l-0.59119034 0.29027748l0.12131882 0.22491693l0.55267715 -0.35756063l-0.042366028 0.6574497l0.27537537 0l-0.044290543 -0.6574497l0.5411205 0.35756063l0.13094711 -0.22876167l-0.5892639 -0.282588l0.59311676 -0.2922001l-0.13479996 -0.23645115l-0.5449734 0.36717224l0.048143387 -0.6574497z"
       id="path11"
       fill-rule="evenodd"
       fill="#ffffff" />
    <path
       d="m53.618336 41.189095l0.046218872 0.6574478l-0.5449753 -0.36332703l-0.13287354 0.22491837l0.59119034 0.2960434l-0.59119034 0.29027557l0.12131882 0.22491837l0.55267715 -0.3575592l-0.042366028 0.6574478l0.27537537 0l-0.044288635 -0.6574478l0.5411186 0.3575592l0.13094711 -0.22875977l-0.5892639 -0.28258896l0.59311676 -0.292202l-0.13479996 -0.2364502l-0.54497147 0.36717224l0.04814148 -0.6574478z"
       id="path13"
       fill-rule="evenodd"
       fill="#ffffff" />
    <path
       d="m86.914925 64.31508l0.046218872 0.6574478l-0.5449753 -0.36332703l-0.13287354 0.22491455l0.5911865 0.2960434l-0.5911865 0.2902832l0.12132263 0.22491455l0.55267334 -0.3575592l-0.042366028 0.6574478l0.27537537 0l-0.044288635 -0.6574478l0.54112244 0.3575592l0.1309433 -0.22875977l-0.5892639 -0.28259277l0.59311676 -0.29219818l-0.13479614 -0.2364502l-0.5449753 0.36717224l0.04814148 -0.6574478z"
       id="path15"
       fill-rule="evenodd"
       fill="#ffffff" />
    <path
       d="m101.61834 89.189095l0.046211243 0.6574478l-0.54496765 -0.36332703l-0.13287354 0.22491455l0.5911865 0.2960434l-0.5911865 0.2902832l0.121315 0.22491455l0.55268097 -0.3575592l-0.042366028 0.6574478l0.27537537 0l-0.044296265 -0.6574478l0.54112244 0.3575592l0.13095093 -0.22875977l-0.5892639 -0.28259277l0.59311676 -0.29219818l-0.13480377 -0.2364502l-0.5449753 0.36717224l0.04814911 -0.6574478z"
       id="path17"
       fill-rule="evenodd"
       fill="#ffffff" />
    <path
       d="m116.080475 105.18898l0.046211243 0.6574478l-0.54496765 -0.36332703l-0.13287354 0.22491455l0.5911865 0.2960434l-0.5911865 0.29027557l0.121315 0.22492218l0.55267334 -0.3575592l-0.0423584 0.6574478l0.27537537 0l-0.044296265 -0.6574478l0.54112244 0.3575592l0.13095093 -0.2287674l-0.5892639 -0.28258514l0.59310913 -0.29219818l-0.13479614 -0.2364502l-0.5449753 0.36717224l0.04814911 -0.6574478z"
       id="path19"
       fill-rule="evenodd"
       fill="#ffffff" />
    <path
       d="m9.012037 26.724525l0.046216965 0.6574497l-0.5449724 -0.36332703l-0.13287354 0.22491646l0.5911894 0.2960453l-0.5911894 0.29027748l0.12131882 0.22491646l0.5526762 -0.3575592l-0.042366028 0.6574497l0.27537537 0l-0.044291496 -0.6574497l0.5411215 0.3575592l0.13094807 -0.22876167l-0.5892639 -0.28258705l0.59311485 -0.2922001l-0.134799 -0.2364521l-0.5449724 0.36717224l0.048142433 -0.6574497z"
       id="path21"
       fill-rule="evenodd"
       fill="#ffffff" />
    <path
       d="m57.865055 3.7087781l0.046218872 0.6574495l-0.5449753 -0.36332703l-0.13287354 0.22491693l0.59119034 0.29604435l-0.59119034 0.29027748l0.12131882 0.22491693l0.55267715 -0.35756016l-0.042366028 0.65744925l0.27537537 0l-0.04429245 -0.65744925l0.54112244 0.35756016l0.13094711 -0.22876167l-0.5892639 -0.282588l0.59311676 -0.2921996l-0.13479996 -0.23645139l-0.54497147 0.367172l0.04814148 -0.6574495z"
       id="path23"
       fill-rule="evenodd"
       fill="#ffffff" />
    <path
       d="m95.5396 3.7087781l0.046218872 0.6574495l-0.5449753 -0.36332703l-0.13287354 0.22491693l0.5911865 0.29604435l-0.5911865 0.29027748l0.12132263 0.22491693l0.55267334 -0.35756016l-0.042366028 0.65744925l0.27537537 0l-0.044288635 -0.65744925l0.54112244 0.35756016l0.1309433 -0.22876167l-0.5892639 -0.282588l0.59311676 -0.2921996l-0.13479614 -0.23645139l-0.5449753 0.367172l0.04814148 -0.6574495z"
       id="path25"
       fill-rule="evenodd"
       fill="#ffffff" />
    <path
       d="m14.203638 62.685158l0.046216965 0.6574478l-0.5449724 -0.36332703l-0.13287354 0.22491837l0.5911894 0.2960434l-0.5911894 0.29027557l0.12131882 0.22491837l0.5526762 -0.3575592l-0.042366028 0.6574478l0.27537537 0l-0.044290543 -0.6574478l0.5411215 0.3575592l0.13094711 -0.22876358l-0.5892639 -0.28258514l0.59311485 -0.292202l-0.13479805 -0.2364502l-0.5449734 0.36717224l0.048142433 -0.6574478z"
       id="path27"
       fill-rule="evenodd"
       fill="#ffffff" />
    <path
       d="m35.04091 21.3387l0.046215057 0.6574497l-0.54497147 -0.36332703l-0.13287354 0.22491646l0.59119034 0.2960453l-0.59119034 0.29027748l0.12131882 0.22491646l0.55267715 -0.3575611l-0.042366028 0.6574497l0.27537537 0l-0.04429245 -0.6574497l0.54112244 0.3575611l0.13094711 -0.22876167l-0.5892639 -0.28258896l0.59311676 -0.29219818l-0.13479996 -0.2364521l-0.54497147 0.36717224l0.04814148 -0.6574497z"
       id="path29"
       fill-rule="evenodd"
       fill="#ffffff" />
    <path
       d="m73.86506 19.708778l0.046211243 0.6574497l-0.54496765 -0.36332703l-0.13287354 0.22491646l0.5911865 0.2960453l-0.5911865 0.29027557l0.121315 0.22491837l0.55268097 -0.3575611l-0.042366028 0.6574497l0.27537537 0l-0.044296265 -0.6574497l0.54112244 0.3575611l0.13095093 -0.22876167l-0.5892639 -0.28258896l0.59310913 -0.2922001l-0.13479614 -0.2364502l-0.5449753 0.36717224l0.04814911 -0.6574497z"
       id="path31"
       fill-rule="evenodd"
       fill="#ffffff" />
    <path
       d="m89.86506 35.70878l0.046211243 0.6574478l-0.54496765 -0.36332703l-0.13287354 0.22491837l0.5911865 0.2960434l-0.5911865 0.2902794l0.121315 0.22491455l0.55268097 -0.3575592l-0.042366028 0.6574516l0.27537537 0l-0.044296265 -0.6574516l0.54112244 0.3575592l0.13095093 -0.22875977l-0.5892639 -0.28258896l0.59310913 -0.29219818l-0.13479614 -0.23645401l-0.5449753 0.36717224l0.04814911 -0.6574478z"
       id="path33"
       fill-rule="evenodd"
       fill="#ffffff" />
    <path
       d="m100.08028 46.853134l0.046218872 0.6574516l-0.5449753 -0.36332703l-0.13287354 0.22491455l0.59119415 0.2960472l-0.59119415 0.29027557l0.12132263 0.22491837l0.55267334 -0.35756302l-0.042366028 0.6574516l0.27537537 0l-0.044288635 -0.6574516l0.54112244 0.35756302l0.1309433 -0.22876358l-0.5892639 -0.28258896l0.59311676 -0.29219818l-0.13479614 -0.2364502l-0.5449753 0.36717224l0.04814148 -0.6574516z"
       id="path35"
       fill-rule="evenodd"
       fill="#ffffff" />
    <path
       d="m108.733826 19.708778l0.046211243 0.6574497l-0.54496765 -0.36332703l-0.13287354 0.22491646l0.5911865 0.2960453l-0.5911865 0.29027557l0.121315 0.22491837l0.55267334 -0.3575611l-0.0423584 0.6574497l0.27537537 0l-0.044296265 -0.6574497l0.54112244 0.3575611l0.13095093 -0.22876167l-0.5892639 -0.28258896l0.59310913 -0.2922001l-0.13479614 -0.2364502l-0.5449753 0.36717224l0.04814911 -0.6574497z"
       id="path37"
       fill-rule="evenodd"
       fill="#ffffff" />
    <path
       d="m31.741695 82.882l0.046216965 0.65745544l-0.54497147 -0.36332703l-0.13287354 0.22491455l0.59118843 0.2960434l-0.59118843 0.29027557l0.12131882 0.22492218l0.55267525 -0.35756683l-0.042366028 0.65745544l0.27537537 0l-0.044290543 -0.65745544l0.5411205 0.35756683l0.13094711 -0.2287674l-0.5892639 -0.28258514l0.59311676 -0.29219818l-0.13479996 -0.2364502l-0.54497147 0.36717224l0.04814148 -0.65745544z"
       id="path39"
       fill-rule="evenodd"
       fill="#ffffff" />
    <path
       d="m49.560593 92.80327l0.046218872 0.6574478l-0.5449753 -0.36332703l-0.13287354 0.22491455l0.59119034 0.2960434l-0.59119034 0.2902832l0.12132263 0.22491455l0.55267334 -0.3575592l-0.042366028 0.6574478l0.27537537 0l-0.044288635 -0.6574478l0.5411186 0.3575592l0.13094711 -0.22875977l-0.5892639 -0.28259277l0.59311676 -0.29219818l-0.13479996 -0.2364502l-0.54497147 0.36717224l0.04814148 -0.6574478z"
       id="path41"
       fill-rule="evenodd"
       fill="#ffffff" />
    <path
       d="m53.618336 115.85051l0.046218872 0.6574478l-0.5449753 -0.36332703l-0.13287354 0.22492218l0.59119034 0.2960434l-0.59119034 0.29027557l0.12131882 0.22491455l0.55267715 -0.3575592l-0.042366028 0.6574478l0.27537537 0l-0.044288635 -0.6574478l0.5411186 0.3575592l0.13094711 -0.22875977l-0.5892639 -0.28258514l0.59311676 -0.2922058l-0.13479996 -0.2364502l-0.54497147 0.36717224l0.04814148 -0.6574478z"
       id="path43"
       fill-rule="evenodd"
       fill="#ffffff" />
    <path
       d="m28.66558 42.724525l0.046216965 0.6574516l-0.5449734 -0.36332703l-0.13287354 0.22491455l0.59119034 0.2960472l-0.59119034 0.29027557l0.12131882 0.22491837l0.55267715 -0.35756302l-0.042366028 0.6574516l0.27537537 0l-0.044290543 -0.6574516l0.5411205 0.35756302l0.13094711 -0.22876358l-0.5892639 -0.28258896l0.59311676 -0.29219818l-0.13479996 -0.2364502l-0.5449734 0.36717224l0.048143387 -0.6574516z"
       id="path45"
       fill-rule="evenodd"
       fill="#ffffff" />
    <path
       d="m43.741695 60.803265l0.046218872 0.6574516l-0.5449753 -0.36332703l-0.13287354 0.22491455l0.59119034 0.2960472l-0.59119034 0.29027557l0.12131882 0.22491837l0.55267715 -0.3575592l-0.042366028 0.6574478l0.27537537 0l-0.04429245 -0.6574478l0.54112244 0.3575592l0.13094711 -0.22876358l-0.5892639 -0.28258514l0.59311676 -0.292202l-0.13479996 -0.2364502l-0.54497147 0.36717224l0.04814148 -0.6574516z"
       id="path47"
       fill-rule="evenodd"
       fill="#ffffff" />
    <path
       d="m64.77582 76.606415l0.046218872 0.6574478l-0.5449753 -0.36332703l-0.13287354 0.22492218l0.5911865 0.2960434l-0.5911865 0.29027557l0.121315 0.22491455l0.55268097 -0.3575592l-0.042366028 0.6574478l0.27537537 0l-0.044288635 -0.6574478l0.5411148 0.3575592l0.13095093 -0.22875977l-0.5892639 -0.28258514l0.59311676 -0.29219818l-0.13480377 -0.23645782l-0.54496765 0.36717224l0.04814148 -0.6574478z"
       id="path49"
       fill-rule="evenodd"
       fill="#ffffff" />
    <path
       d="m81.41099 87.11035l0.046218872 0.6574478l-0.5449753 -0.36332703l-0.13287354 0.22492218l0.5911865 0.2960434l-0.5911865 0.29027557l0.12132263 0.22491455l0.55267334 -0.3575592l-0.042366028 0.6574478l0.27537537 0l-0.044288635 -0.6574478l0.5411148 0.3575592l0.13095093 -0.22875977l-0.5892639 -0.28258514l0.59311676 -0.29219818l-0.13480377 -0.23645782l-0.54496765 0.36717224l0.04814148 -0.6574478z"
       id="path51"
       fill-rule="evenodd"
       fill="#ffffff" />
    <path
       d="m93.033035 110.43319l0.046218872 0.6574478l-0.5449753 -0.36332703l-0.13287354 0.22491455l0.5911865 0.2960434l-0.5911865 0.2902832l0.12132263 0.22491455l0.55267334 -0.3575592l-0.042366028 0.6574478l0.27537537 0l-0.044288635 -0.6574478l0.5411148 0.3575592l0.13095093 -0.22875977l-0.5892639 -0.28259277l0.59311676 -0.29219818l-0.13480377 -0.2364502l-0.54496765 0.36717224l0.04814148 -0.6574478z"
       id="path53"
       fill-rule="evenodd"
       fill="#ffffff" />
    <path
       d="m14.204886 92.802246l0.046216965 0.6574478l-0.5449724 -0.36332703l-0.13287354 0.22492218l0.5911894 0.2960434l-0.5911894 0.29027557l0.12131882 0.22491455l0.5526762 -0.3575592l-0.042366028 0.65745544l0.27537537 0l-0.044291496 -0.65745544l0.5411215 0.3575592l0.13094807 -0.22875977l-0.5892639 -0.28258514l0.59311485 -0.29219818l-0.134799 -0.23645782l-0.5449724 0.36717224l0.048142433 -0.6574478z"
       id="path55"
       fill-rule="evenodd"
       fill="#ffffff" />
    <path
       d="m30.204887 108.802246l0.046216965 0.6574478l-0.5449734 -0.36332703l-0.13287354 0.22492218l0.59119034 0.2960434l-0.59119034 0.29027557l0.12131882 0.22491455l0.55267525 -0.3575592l-0.04236412 0.65745544l0.27537537 0l-0.04429245 -0.65745544l0.54112244 0.3575592l0.13094711 -0.22875977l-0.5892639 -0.28258514l0.59311485 -0.29219818l-0.13479805 -0.23645782l-0.5449734 0.36717224l0.048143387 -0.6574478z"
       id="path57"
       fill-rule="evenodd"
       fill="#ffffff" />
    <path
       d="m200.51613 5.3385906l0.046218872 0.6574497l-0.54496765 -0.3633275l-0.13287354 0.22491693l0.5911865 0.29604483l-0.5911865 0.29027748l0.12132263 0.22491693l0.55267334 -0.35756063l-0.042373657 0.6574497l0.27537537 0l-0.044281006 -0.6574497l0.54112244 0.35756063l0.13093567 -0.22876167l-0.5892639 -0.282588l0.5931244 -0.2922001l-0.13479614 -0.23645115l-0.5449829 0.36717224l0.04814148 -0.6574497z"
       id="path59"
       fill-rule="evenodd"
       fill="#ffffff" />
    <path
       d="m235.0934 37.48043l0.046218872 0.6574516l-0.54496765 -0.36332703l-0.13287354 0.22491455l0.5911865 0.2960472l-0.5911865 0.29027557l0.12132263 0.22491837l0.55267334 -0.35756302l-0.042373657 0.6574516l0.27537537 0l-0.044281006 -0.6574516l0.5411072 0.35756302l0.13095093 -0.22876358l-0.5892639 -0.28258896l0.5931244 -0.29219818l-0.1348114 -0.2364502l-0.54496765 0.36717224l0.04814148 -0.6574516z"
       id="path61"
       fill-rule="evenodd"
       fill="#ffffff" />
    <path
       d="m253.80206 57.534237l0.046218872 0.6574516l-0.54496765 -0.36332703l-0.13287354 0.22491455l0.5911865 0.2960434l-0.5911865 0.2902794l0.12130737 0.22491837l0.5526886 -0.35756302l-0.042373657 0.6574516l0.27537537 0l-0.044296265 -0.6574516l0.54112244 0.35756302l0.13095093 -0.22876358l-0.5892639 -0.28258896l0.59310913 -0.29219818l-0.13479614 -0.2364502l-0.54496765 0.36717224l0.04814148 -0.6574516z"
       id="path63"
       fill-rule="evenodd"
       fill="#ffffff" />
    <path
       d="m267.30338 64.31508l0.046203613 0.6574478l-0.5449524 -0.36332703l-0.13287354 0.22491455l0.5911865 0.2960434l-0.5911865 0.2902832l0.12130737 0.22491455l0.55267334 -0.3575592l-0.0423584 0.6574478l0.27539062 0l-0.044311523 -0.6574478l0.5411377 0.3575592l0.13095093 -0.22875977l-0.5892639 -0.28259277l0.59310913 -0.29219818l-0.13479614 -0.2364502l-0.5449829 0.36717224l0.04815674 -0.6574478z"
       id="path65"
       fill-rule="evenodd"
       fill="#ffffff" />
    <path
       d="m289.5212 81.25208l0.04623413 0.65745544l-0.5449829 -0.36332703l-0.13287354 0.22491455l0.5911865 0.2960434l-0.5911865 0.29027557l0.12133789 0.22492218l0.55267334 -0.35756683l-0.042388916 0.65745544l0.27539062 0l-0.044281006 -0.65745544l0.5411072 0.35756683l0.13095093 -0.2287674l-0.5892639 -0.28258514l0.59310913 -0.29219818l-0.13479614 -0.2364502l-0.5449829 0.36717224l0.04815674 -0.65745544z"
       id="path67"
       fill-rule="evenodd"
       fill="#ffffff" />
    <path
       d="m295.73645 101.48043l0.046203613 0.6574478l-0.5449524 -0.36332703l-0.13287354 0.22492218l0.5911865 0.2960434l-0.5911865 0.29027557l0.12130737 0.22491455l0.55267334 -0.3575592l-0.0423584 0.6574478l0.2753601 0l-0.044281006 -0.6574478l0.5411377 0.3575592l0.13092041 -0.22875977l-0.5892639 -0.28258514l0.59313965 -0.29219818l-0.13479614 -0.23645782l-0.5449829 0.36717224l0.04812622 -0.6574478z"
       id="path69"
       fill-rule="evenodd"
       fill="#ffffff" />
    <path
       d="m198.02516 21.3387l0.046218872 0.6574497l-0.5449829 -0.36332703l-0.13287354 0.22491646l0.5912018 0.2960453l-0.5912018 0.29027748l0.12132263 0.22491646l0.55267334 -0.3575611l-0.0423584 0.6574497l0.27537537 0l-0.044296265 -0.6574497l0.54112244 0.3575611l0.13095093 -0.22876167l-0.5892639 -0.28258896l0.59310913 -0.29219818l-0.13479614 -0.2364521l-0.54496765 0.36717224l0.04814148 -0.6574497z"
       id="path71"
       fill-rule="evenodd"
       fill="#ffffff" />
    <path
       d="m239.67871 1.630038l0.046203613 0.6574495l-0.54496765 -0.36332726l-0.13287354 0.22491693l0.5911865 0.2960446l-0.5911865 0.29027748l0.12132263 0.22491693l0.55267334 -0.3575604l-0.0423584 0.6574497l0.27537537 0l-0.044296265 -0.6574497l0.54112244 0.3575604l0.13095093 -0.22876167l-0.5892639 -0.282588l0.59310913 -0.29219985l-0.13479614 -0.23645115l-0.5449829 0.367172l0.04815674 -0.6574495z"
       id="path73"
       fill-rule="evenodd"
       fill="#ffffff" />
    <path
       d="m277.01465 3.7087781l0.04623413 0.6574495l-0.5449829 -0.36332703l-0.13287354 0.22491693l0.5911865 0.29604435l-0.5911865 0.29027748l0.12133789 0.22491693l0.55267334 -0.35756016l-0.042388916 0.65744925l0.27539062 0l-0.044281006 -0.65744925l0.5411072 0.35756016l0.13095093 -0.22876167l-0.5892639 -0.282588l0.59310913 -0.2921996l-0.13479614 -0.23645139l-0.5449829 0.367172l0.04815674 -0.6574495z"
       id="path75"
       fill-rule="evenodd"
       fill="#ffffff" />
    <path
       d="m206.90967 58.976494l0.046218872 0.6574516l-0.54496765 -0.36332703l-0.13287354 0.22491455l0.5911865 0.2960472l-0.5911865 0.29027557l0.12132263 0.22491837l0.55267334 -0.35756302l-0.042373657 0.6574516l0.27537537 0l-0.044281006 -0.6574516l0.54112244 0.35756302l0.13095093 -0.22876358l-0.5892639 -0.28258896l0.59310913 -0.29219818l-0.13479614 -0.2364502l-0.5449829 0.36717224l0.04814148 -0.6574516z"
       id="path77"
       fill-rule="evenodd"
       fill="#ffffff" />
    <path
       d="m216.51598 17.630037l0.046218872 0.6574497l-0.5449829 -0.36332703l-0.13287354 0.22491646l0.5912018 0.2960453l-0.5912018 0.29027748l0.12132263 0.22491646l0.55267334 -0.3575592l-0.0423584 0.6574497l0.27537537 0l-0.044296265 -0.6574497l0.54112244 0.3575592l0.13095093 -0.22876167l-0.5892639 -0.28258705l0.59310913 -0.2922001l-0.13479614 -0.2364521l-0.54496765 0.36717224l0.04814148 -0.6574497z"
       id="path79"
       fill-rule="evenodd"
       fill="#ffffff" />
    <path
       d="m255.34012 16.000116l0.046218872 0.6574497l-0.54496765 -0.36332703l-0.13287354 0.22491646l0.5911865 0.2960453l-0.5911865 0.29027748l0.12132263 0.22491646l0.55267334 -0.3575611l-0.042373657 0.6574497l0.27537537 0l-0.044281006 -0.6574497l0.54112244 0.3575611l0.13095093 -0.22876167l-0.5892792 -0.28258705l0.5931244 -0.2922001l-0.13479614 -0.2364521l-0.5449829 0.36717224l0.04814148 -0.6574497z"
       id="path81"
       fill-rule="evenodd"
       fill="#ffffff" />
    <path
       d="m264.14066 37.48043l0.046203613 0.6574516l-0.5449829 -0.36332703l-0.13287354 0.22491455l0.59121704 0.2960472l-0.59121704 0.29027557l0.12133789 0.22491837l0.55267334 -0.35756302l-0.0423584 0.6574516l0.2753601 0l-0.044281006 -0.6574516l0.5411072 0.35756302l0.13095093 -0.22876358l-0.5892639 -0.28258896l0.59310913 -0.29219818l-0.13479614 -0.2364502l-0.5449524 0.36717224l0.04812622 -0.6574516z"
       id="path83"
       fill-rule="evenodd"
       fill="#ffffff" />
    <path
       d="m286.4451 50.078857l0.04623413 0.6574478l-0.5449829 -0.36332703l-0.13287354 0.22491837l0.5911865 0.2960434l-0.5911865 0.2902794l0.12130737 0.22491455l0.55270386 -0.3575592l-0.042388916 0.6574478l0.27539062 0l-0.044311523 -0.6574478l0.5411377 0.3575592l0.13095093 -0.22875977l-0.5892639 -0.28258896l0.59310913 -0.29219818l-0.13479614 -0.23645401l-0.5449829 0.36717224l0.04815674 -0.6574478z"
       id="path85"
       fill-rule="evenodd"
       fill="#ffffff" />
    <path
       d="m287.98315 22.96862l0.04623413 0.6574497l-0.5449829 -0.36332703l-0.13287354 0.22491646l0.5911865 0.2960453l-0.5911865 0.29027748l0.12133789 0.22491646l0.55267334 -0.3575611l-0.042388916 0.6574497l0.27539062 0l-0.044281006 -0.6574497l0.5411072 0.3575611l0.13095093 -0.22876167l-0.5892639 -0.28258705l0.59310913 -0.2922001l-0.13479614 -0.2364521l-0.5449829 0.36717224l0.04815674 -0.6574497z"
       id="path87"
       fill-rule="evenodd"
       fill="#ffffff" />
    <path
       d="m211.67871 74.976494l0.046203613 0.6574478l-0.54496765 -0.36332703l-0.13287354 0.22492218l0.5911865 0.2960434l-0.5911865 0.29027557l0.12132263 0.22491455l0.55267334 -0.3575592l-0.0423584 0.6574478l0.27537537 0l-0.044296265 -0.6574478l0.54112244 0.3575592l0.13095093 -0.22875977l-0.5892639 -0.28258514l0.59310913 -0.2922058l-0.13479614 -0.2364502l-0.5449829 0.36717224l0.04815674 -0.6574478z"
       id="path89"
       fill-rule="evenodd"
       fill="#ffffff" />
    <path
       d="m231.63145 89.189095l0.046218872 0.6574478l-0.54496765 -0.36332703l-0.13287354 0.22491455l0.5911865 0.2960434l-0.5911865 0.2902832l0.12132263 0.22491455l0.55267334 -0.3575592l-0.042373657 0.6574478l0.27537537 0l-0.044281006 -0.6574478l0.54112244 0.3575592l0.13093567 -0.22875977l-0.5892639 -0.28259277l0.5931244 -0.29219818l-0.13479614 -0.2364502l-0.5449829 0.36717224l0.04814148 -0.6574478z"
       id="path91"
       fill-rule="evenodd"
       fill="#ffffff" />
    <path
       d="m243.67871 106.976494l0.046203613 0.6574478l-0.54496765 -0.36332703l-0.13287354 0.22492218l0.5911865 0.2960434l-0.5911865 0.29027557l0.12132263 0.22491455l0.55267334 -0.3575592l-0.0423584 0.6574478l0.27537537 0l-0.044296265 -0.6574478l0.54112244 0.3575592l0.13095093 -0.22875977l-0.5892639 -0.28258514l0.59310913 -0.2922058l-0.13479614 -0.2364502l-0.5449829 0.36717224l0.04815674 -0.6574478z"
       id="path93"
       fill-rule="evenodd"
       fill="#ffffff" />
    <path
       d="m209.21677 41.094604l0.046218872 0.6574516l-0.5449829 -0.36333084l-0.13287354 0.22491837l0.5911865 0.2960434l-0.5911865 0.2902794l0.12132263 0.22491837l0.55267334 -0.35756302l-0.0423584 0.6574516l0.27537537 0l-0.044296265 -0.6574516l0.54112244 0.35756302l0.13095093 -0.22876358l-0.5892639 -0.28258896l0.59310913 -0.29219818l-0.13479614 -0.2364502l-0.54496765 0.36717224l0.04814148 -0.6574516z"
       id="path95"
       fill-rule="evenodd"
       fill="#ffffff" />
    <path
       d="m225.21677 57.094604l0.046218872 0.6574516l-0.5449829 -0.36333084l-0.13287354 0.22491837l0.5911865 0.2960434l-0.5911865 0.2902794l0.12132263 0.22491837l0.55267334 -0.35756302l-0.0423584 0.6574516l0.27537537 0l-0.044296265 -0.6574516l0.54112244 0.35756302l0.13095093 -0.22876358l-0.5892639 -0.28258896l0.59310913 -0.29219818l-0.13479614 -0.2364502l-0.54496765 0.36717224l0.04814148 -0.6574516z"
       id="path97"
       fill-rule="evenodd"
       fill="#ffffff" />
    <path
       d="m238.14064 73.34657l0.046218872 0.6574478l-0.54496765 -0.36332703l-0.13287354 0.22492218l0.5911865 0.2960434l-0.5911865 0.29027557l0.12132263 0.22491455l0.55267334 -0.3575592l-0.042373657 0.6574478l0.27537537 0l-0.044281006 -0.6574478l0.54112244 0.3575592l0.13093567 -0.22875977l-0.5892639 -0.28258514l0.5931244 -0.2922058l-0.13479614 -0.2364502l-0.5449829 0.36717224l0.04814148 -0.6574478z"
       id="path99"
       fill-rule="evenodd"
       fill="#ffffff" />
    <path
       d="m252.264 89.094604l0.046218872 0.6574478l-0.5449829 -0.36332703l-0.13287354 0.22492218l0.5912018 0.2960434l-0.5912018 0.29027557l0.12132263 0.22491455l0.55267334 -0.3575592l-0.0423584 0.6574478l0.27537537 0l-0.044296265 -0.6574478l0.54112244 0.3575592l0.13095093 -0.22875977l-0.5892639 -0.28258514l0.59310913 -0.2922058l-0.13479614 -0.2364502l-0.54496765 0.36717224l0.04814148 -0.6574478z"
       id="path101"
       fill-rule="evenodd"
       fill="#ffffff" />
    <path
       d="m274.05667 101.48043l0.046203613 0.6574478l-0.5449829 -0.36332703l-0.13287354 0.22492218l0.5911865 0.2960434l-0.5911865 0.29027557l0.12133789 0.22491455l0.55267334 -0.3575592l-0.0423584 0.6574478l0.2753601 0l-0.044281006 -0.6574478l0.5411072 0.3575592l0.13095093 -0.22875977l-0.5892639 -0.28258514l0.59310913 -0.29219818l-0.13479614 -0.23645782l-0.5449829 0.36717224l0.04815674 -0.6574478z"
       id="path103"
       fill-rule="evenodd"
       fill="#ffffff" />
    <path
       d="m199.56447 89.09359l0.046218872 0.6574478l-0.5449829 -0.36332703l-0.13287354 0.22491455l0.5912018 0.2960434l-0.5912018 0.29027557l0.12132263 0.22492218l0.55267334 -0.3575592l-0.0423584 0.6574478l0.27537537 0l-0.044296265 -0.6574478l0.54112244 0.3575592l0.13095093 -0.22875977l-0.5892639 -0.28259277l0.59310913 -0.29219818l-0.13479614 -0.2364502l-0.54496765 0.36717224l0.04814148 -0.6574478z"
       id="path105"
       fill-rule="evenodd"
       fill="#ffffff" />
    <path
       d="m216.51723 105.18807l0.046218872 0.65745544l-0.5449829 -0.36333466l-0.13287354 0.22492218l0.5911865 0.2960434l-0.5911865 0.29027557l0.12132263 0.22492218l0.55267334 -0.35756683l-0.0423584 0.65745544l0.27537537 0l-0.044296265 -0.65745544l0.54112244 0.35756683l0.13095093 -0.2287674l-0.5892639 -0.28258514l0.59310913 -0.29219818l-0.13479614 -0.2364502l-0.54496765 0.36717224l0.04814148 -0.65745544z"
       id="path107"
       fill-rule="evenodd"
       fill="#ffffff" />
    <path
       d="m125.52681 8.535307l0.046211243 0.6574497l-0.54496765 -0.36332703l-0.13287354 0.22491646l0.5911865 0.29604435l-0.5911865 0.29027748l0.121315 0.22491741l0.55268097 -0.35756016l-0.042366028 0.6574497l0.27537537 0l-0.044296265 -0.6574497l0.54112244 0.35756016l0.13095093 -0.22876167l-0.5892639 -0.282588l0.59311676 -0.2922001l-0.13480377 -0.23645115l-0.54496765 0.36717224l0.04814148 -0.6574497z"
       id="path109"
       fill-rule="evenodd"
       fill="#ffffff" />
    <path
       d="m179.5583 3.7085354l0.046218872 0.6574495l-0.54496765 -0.3633275l-0.13287354 0.22491693l0.5911865 0.29604483l-0.5911865 0.29027748l0.12130737 0.22491693l0.55267334 -0.35756016l-0.0423584 0.65744925l0.27537537 0l-0.044296265 -0.65744925l0.54112244 0.35756016l0.13095093 -0.22876167l-0.5892639 -0.282588l0.59310913 -0.2922001l-0.13479614 -0.23645091l-0.54496765 0.367172l0.04814148 -0.6574495z"
       id="path111"
       fill-rule="evenodd"
       fill="#ffffff" />
    <path
       d="m76.802414 115.85026l0.046218872 0.6574478l-0.5449753 -0.36332703l-0.13287354 0.22491455l0.59119415 0.2960434l-0.59119415 0.29027557l0.12132263 0.22492218l0.55267334 -0.3575592l-0.042366028 0.6574478l0.27537537 0l-0.044288635 -0.6574478l0.54112244 0.3575592l0.1309433 -0.2287674l-0.5892639 -0.28258514l0.59311676 -0.29219818l-0.13479614 -0.2364502l-0.5449753 0.36717224l0.04814148 -0.6574478z"
       id="path113"
       fill-rule="evenodd"
       fill="#ffffff" />
    <path
       d="m226.75517 119.09172l0.046218872 0.65745544l-0.5449829 -0.36332703l-0.13287354 0.22491455l0.5912018 0.2960434l-0.5912018 0.29027557l0.12132263 0.22492218l0.55267334 -0.3575592l-0.0423584 0.6574478l0.27537537 0l-0.044296265 -0.6574478l0.54112244 0.3575592l0.13095093 -0.2287674l-0.5892639 -0.28258514l0.59310913 -0.29219818l-0.13479614 -0.2364502l-0.54496765 0.36717224l0.04814148 -0.65745544z"
       id="path115"
       fill-rule="evenodd"
       fill="#ffffff" />
    <path
       d="m184.0386 106.97626l0.046218872 0.6574478l-0.54496765 -0.36332703l-0.13287354 0.22491455l0.5911865 0.29605103l-0.5911865 0.29027557l0.12132263 0.22491455l0.55267334 -0.3575592l-0.042373657 0.6574478l0.27537537 0l-0.044281006 -0.6574478l0.54112244 0.3575592l0.13095093 -0.22875977l-0.5892639 -0.28258514l0.59310913 -0.2922058l-0.13479614 -0.2364502l-0.5449829 0.36717224l0.04814148 -0.6574478z"
       id="path117"
       fill-rule="evenodd"
       fill="#ffffff" />
    <path
       d="m11.742502 119.091705l0.046216965 0.6574478l-0.5449734 -0.36332703l-0.13287258 0.22491455l0.5911894 0.2960434l-0.5911894 0.2902832l0.12131882 0.22491455l0.55267525 -0.3575592l-0.042365074 0.6574478l0.27537537 0l-0.044291496 -0.6574478l0.5411215 0.3575592l0.13094807 -0.22875977l-0.5892639 -0.28259277l0.59311485 -0.29219818l-0.134799 -0.2364502l-0.5449724 0.36717224l0.048142433 -0.6574478z"
       id="path119"
       fill-rule="evenodd"
       fill="#ffffff" />
    <path
       d="m287.98398 119.091705l0.046203613 0.6574478l-0.5449524 -0.36332703l-0.13287354 0.22491455l0.5911865 0.2960434l-0.5911865 0.2902832l0.12130737 0.22491455l0.55267334 -0.3575592l-0.0423584 0.6574478l0.2753601 0l-0.044281006 -0.6574478l0.5411072 0.3575592l0.13095093 -0.22875977l-0.5892639 -0.28259277l0.59313965 -0.29219818l-0.13482666 -0.2364502l-0.5449524 0.36717224l0.04812622 -0.6574478z"
       id="path121"
       fill-rule="evenodd"
       fill="#ffffff" />
    <path
       d="m258.75497 119.091866l0.04623413 0.65745544l-0.5449829 -0.36332703l-0.13287354 0.22491455l0.5911865 0.2960434l-0.5911865 0.29027557l0.12130737 0.22492218l0.55270386 -0.35756683l-0.042388916 0.65745544l0.27539062 0l-0.044311523 -0.65745544l0.5411377 0.35756683l0.13095093 -0.2287674l-0.5892639 -0.28258514l0.59310913 -0.29219818l-0.13479614 -0.2364502l-0.5449829 0.36717224l0.04815674 -0.65745544z"
       id="path123"
       fill-rule="evenodd"
       fill="#ffffff" />
    <path
       d="m150.49925 3.7085354l0.046218872 0.6574495l-0.5449829 -0.3633275l-0.13287354 0.22491693l0.5911865 0.29604483l-0.5911865 0.29027748l0.12132263 0.22491693l0.55267334 -0.35756016l-0.0423584 0.65744925l0.27537537 0l-0.044296265 -0.65744925l0.54112244 0.35756016l0.13095093 -0.22876167l-0.5892639 -0.282588l0.59310913 -0.2922001l-0.13479614 -0.23645091l-0.54496765 0.367172l0.04814148 -0.6574495z"
       id="path125"
       fill-rule="evenodd"
       fill="#ffffff" />
    <path
       d="m108.733826 115.85051l0.046211243 0.6574478l-0.54496765 -0.36332703l-0.13287354 0.22492218l0.5911865 0.2960434l-0.5911865 0.29027557l0.121315 0.22491455l0.55267334 -0.3575592l-0.0423584 0.6574478l0.27537537 0l-0.044296265 -0.6574478l0.54112244 0.3575592l0.13095093 -0.22875977l-0.5892639 -0.28258514l0.59310913 -0.2922058l-0.13479614 -0.2364502l-0.5449753 0.36717224l0.04814911 -0.6574478z"
       id="path127"
       fill-rule="evenodd"
       fill="#ffffff" />
    <path
       d="m203.11473 117.480194l0.046218872 0.6574478l-0.5449829 -0.36332703l-0.13287354 0.22491455l0.5912018 0.29605103l-0.5912018 0.29027557l0.12132263 0.22491455l0.55267334 -0.3575592l-0.0423584 0.6574478l0.27537537 0l-0.044296265 -0.6574478l0.54112244 0.3575592l0.13095093 -0.22875977l-0.5892639 -0.28258514l0.59310913 -0.2922058l-0.13479614 -0.2364502l-0.54496765 0.36717224l0.04814148 -0.6574478z"
       id="path129"
       fill-rule="evenodd"
       fill="#ffffff" />
    <path
       d="m69.85981 96.17597l0.046211243 0.6574478l-0.54496765 -0.36332703l-0.13287354 0.22491455l0.5911865 0.2960434l-0.5911865 0.2902832l0.121315 0.22491455l0.55267334 -0.3575592l-0.0423584 0.6574478l0.27537537 0l-0.044296265 -0.6574478l0.54112244 0.3575592l0.13095093 -0.22875977l-0.5892639 -0.28259277l0.59310913 -0.29219818l-0.13479614 -0.2364502l-0.5449753 0.36717224l0.04814911 -0.6574478z"
       id="path131"
       fill-rule="evenodd"
       fill="#ffffff" />
    <path
       d="m268.84143 81.25208l0.04623413 0.65745544l-0.5449829 -0.36332703l-0.13287354 0.22491455l0.5911865 0.2960434l-0.5911865 0.29027557l0.12130737 0.22492218l0.55267334 -0.35756683l-0.0423584 0.65745544l0.27539062 0l-0.044311523 -0.65745544l0.5411377 0.35756683l0.13095093 -0.2287674l-0.5892639 -0.28258514l0.59310913 -0.29219818l-0.13479614 -0.2364502l-0.5449829 0.36717224l0.04815674 -0.65745544z"
       id="path133"
       fill-rule="evenodd"
       fill="#ffffff" />
    <path
       d="m94.6273 55.619423l0.1889801 -7.1181107l0.18897247 7.1181107z"
       id="path135"
       fill-rule="evenodd"
       fill="#cfe2f3" />
    <path
       d="m94.6273 55.619423l0.1889801 -7.1181107l0.18897247 7.1181107z"
       id="path137"
       stroke-linejoin="round"
       stroke-linecap="butt"
       stroke-width="1.0"
       stroke="#000000"
       fill-rule="evenodd" />
    <path
       d="m 209.68721,35.242578 17.72702,-15.695534 -0.15222,-0.07612 -19.38846,12.648293 z"
       id="path139"
       inkscape:connector-curvature="0"
       style="fill:#00b2ff;fill-opacity:0.56150004;fill-rule:evenodd" />
    <path
       d="m 207.58302,33.646778 0,0 c 0,-0.713188 0.57816,-1.291343 1.29135,-1.291343 l 0,0 c 0.34247,0 0.67093,0.136055 0.91312,0.378227 0.24215,0.242172 0.3782,0.570625 0.3782,0.913116 l 0,0 c 0,0.713181 -0.57815,1.291336 -1.29132,1.291336 l 0,0 c -0.71319,0 -1.29135,-0.578155 -1.29135,-1.291336 z"
       id="path141"
       inkscape:connector-curvature="0"
       style="fill:#93ffcf;fill-rule:evenodd" />
    <path
       d="m 207.58302,33.646778 0,0 c 0,-0.713188 0.57816,-1.291343 1.29135,-1.291343 l 0,0 c 0.34247,0 0.67093,0.136055 0.91312,0.378227 0.24215,0.242172 0.3782,0.570625 0.3782,0.913116 l 0,0 c 0,0.713181 -0.57815,1.291336 -1.29132,1.291336 l 0,0 c -0.71319,0 -1.29135,-0.578155 -1.29135,-1.291336 z"
       id="path143"
       inkscape:connector-curvature="0"
       style="fill-rule:evenodd;stroke:#38e9d6;stroke-width:1;stroke-linecap:butt;stroke-linejoin:round" />
    <path
       d="m31.677166 68.64698l17.727032 -15.695538l-0.15222931 -0.076114655l-19.38845 12.648293z"
       id="path145"
       fill-rule="evenodd"
       fill-opacity="0.5615"
       fill="#00b2ff" />
    <path
       d="m29.572989 67.05118l0 0c0 -0.71318054 0.5781517 -1.291336 1.291338 -1.291336l0 0c0.34248543 0 0.6709423 0.136055 0.91311455 0.37822723c0.24217415 0.24217224 0.37822533 0.5706253 0.37822533 0.9131088l0 0c0 0.7131882 -0.5781536 1.2913437 -1.2913399 1.2913437l0 0c-0.71318626 0 -1.291338 -0.5781555 -1.291338 -1.2913437z"
       id="path147"
       fill-rule="evenodd"
       fill="#93ffcf" />
    <path
       d="m29.572989 67.05118l0 0c0 -0.71318054 0.5781517 -1.291336 1.291338 -1.291336l0 0c0.34248543 0 0.6709423 0.136055 0.91311455 0.37822723c0.24217415 0.24217224 0.37822533 0.5706253 0.37822533 0.9131088l0 0c0 0.7131882 -0.5781536 1.2913437 -1.2913399 1.2913437l0 0c-0.71318626 0 -1.291338 -0.5781555 -1.291338 -1.2913437z"
       id="path149"
       stroke-linejoin="round"
       stroke-linecap="butt"
       stroke-width="1.0"
       stroke="#38e9d6"
       fill-rule="evenodd" />
    <path
       d="m102.914925 80.31508l0.046218872 0.6574478l-0.5449753 -0.36332703l-0.13287354 0.22491455l0.5911865 0.2960434l-0.5911865 0.2902832l0.12132263 0.22491455l0.55267334 -0.3575592l-0.042366028 0.6574478l0.27537537 0l-0.044288635 -0.6574478l0.54112244 0.3575592l0.1309433 -0.22875977l-0.5892639 -0.28259277l0.59311676 -0.29219818l-0.13479614 -0.2364502l-0.5449753 0.36717224l0.04814148 -0.6574478z"
       id="path151"
       fill-rule="evenodd"
       fill="#ffffff" />
    <path
       d="m118.914925 96.31508l0.046218872 0.6574478l-0.5449753 -0.36332703l-0.13287354 0.22491455l0.5911865 0.2960434l-0.5911865 0.2902832l0.12132263 0.22491455l0.55267334 -0.3575592l-0.042366028 0.6574478l0.27537537 0l-0.044288635 -0.6574478l0.54112244 0.3575592l0.1309433 -0.22875977l-0.5892639 -0.28259277l0.59311676 -0.29219818l-0.13479614 -0.2364502l-0.5449753 0.36717224l0.04814148 -0.6574478z"
       id="path153"
       fill-rule="evenodd"
       fill="#ffffff" />
    <path
       d="m116.08028 62.853134l0.046218872 0.6574516l-0.5449753 -0.36332703l-0.13287354 0.22491455l0.59119415 0.2960472l-0.59119415 0.29027557l0.12132263 0.22491455l0.55267334 -0.3575592l-0.042366028 0.6574478l0.27537537 0l-0.044288635 -0.6574478l0.54112244 0.3575592l0.1309433 -0.22875977l-0.5892639 -0.28258896l0.59311676 -0.29219818l-0.13479614 -0.2364502l-0.5449753 0.36717224l0.04814148 -0.6574516z"
       id="path155"
       fill-rule="evenodd"
       fill="#ffffff" />
    <path
       d="m131.87292 74.976494l0.046218872 0.6574478l-0.54496765 -0.36332703l-0.13287354 0.22492218l0.5911865 0.2960434l-0.5911865 0.29027557l0.12132263 0.22491455l0.55267334 -0.3575592l-0.042373657 0.6574478l0.27537537 0l-0.044281006 -0.6574478l0.54112244 0.3575592l0.13093567 -0.22875977l-0.5892639 -0.28258514l0.5931244 -0.2922058l-0.13479614 -0.2364502l-0.5449829 0.36717224l0.04814148 -0.6574478z"
       id="path157"
       fill-rule="evenodd"
       fill="#ffffff" />
    <path
       d="m149.86243 87.11035l0.046218872 0.6574478l-0.54496765 -0.36332703l-0.13287354 0.22492218l0.5911865 0.2960434l-0.5911865 0.29027557l0.12132263 0.22491455l0.55267334 -0.3575592l-0.042373657 0.6574478l0.27537537 0l-0.044281006 -0.6574478l0.54112244 0.3575592l0.13093567 -0.22875977l-0.5892639 -0.28258514l0.5931244 -0.29219818l-0.13479614 -0.23645782l-0.5449829 0.36717224l0.04814148 -0.6574478z"
       id="path159"
       fill-rule="evenodd"
       fill="#ffffff" />
    <path
       d="m125.52779 35.70878l0.046218872 0.6574478l-0.5449753 -0.36332703l-0.13287354 0.22491837l0.5911865 0.2960434l-0.5911865 0.2902794l0.12132263 0.22491455l0.55267334 -0.3575592l-0.042366028 0.6574516l0.27537537 0l-0.044288635 -0.6574516l0.5411148 0.3575592l0.13095093 -0.22875977l-0.5892639 -0.28258896l0.59311676 -0.29219818l-0.13480377 -0.23645401l-0.54496765 0.36717224l0.04814148 -0.6574478z"
       id="path161"
       fill-rule="evenodd"
       fill="#ffffff" />
    <path
       d="m134.8808 51.245525l0.046218872 0.6574478l-0.54496765 -0.36332703l-0.13287354 0.22491837l0.5911865 0.2960434l-0.5911865 0.29027557l0.12132263 0.22491837l0.55267334 -0.3575592l-0.042373657 0.6574478l0.27537537 0l-0.044281006 -0.6574478l0.54112244 0.3575592l0.13093567 -0.22876358l-0.5892639 -0.28258514l0.5931244 -0.292202l-0.13479614 -0.2364502l-0.5449829 0.36717224l0.04814148 -0.6574478z"
       id="path163"
       fill-rule="evenodd"
       fill="#ffffff" />
    <path
       d="m153.86505 64.31508l0.046218872 0.6574478l-0.54496765 -0.36332703l-0.13287354 0.22491455l0.5911865 0.2960434l-0.5911865 0.2902832l0.12132263 0.22491455l0.55267334 -0.3575592l-0.042373657 0.6574478l0.27537537 0l-0.044281006 -0.6574478l0.54112244 0.3575592l0.13093567 -0.22875977l-0.5892639 -0.28259277l0.5931244 -0.29219818l-0.13479614 -0.2364502l-0.5449829 0.36717224l0.04814148 -0.6574478z"
       id="path165"
       fill-rule="evenodd"
       fill="#ffffff" />
    <path
       d="m170.00679 80.31508l0.046218872 0.6574478l-0.5449829 -0.36332703l-0.13287354 0.22491455l0.5912018 0.2960434l-0.5912018 0.2902832l0.12132263 0.22491455l0.55267334 -0.3575592l-0.0423584 0.6574478l0.27537537 0l-0.044296265 -0.6574478l0.54112244 0.3575592l0.13095093 -0.22875977l-0.5892639 -0.28259277l0.59310913 -0.29219818l-0.13479614 -0.2364502l-0.54496765 0.36717224l0.04814148 -0.6574478z"
       id="path167"
       fill-rule="evenodd"
       fill="#ffffff" />
    <path
       d="m137.63441 22.968378l0.046218872 0.6574497l-0.54496765 -0.36332703l-0.13287354 0.22491646l0.5911865 0.2960453l-0.5911865 0.29027748l0.12132263 0.22491646l0.55267334 -0.3575611l-0.042373657 0.6574497l0.27537537 0l-0.044281006 -0.6574497l0.54112244 0.3575611l0.13093567 -0.22876167l-0.5892639 -0.28258896l0.5931244 -0.2922001l-0.13479614 -0.2364502l-0.5449829 0.36717224l0.04814148 -0.6574497z"
       id="path169"
       fill-rule="evenodd"
       fill="#ffffff" />
    <path
       d="m153.86539 39.75709l0.046218872 0.6574516l-0.54496765 -0.36333084l-0.13287354 0.22491837l0.5911865 0.2960434l-0.5911865 0.2902794l0.12132263 0.22491837l0.55267334 -0.35756302l-0.042373657 0.6574516l0.27537537 0l-0.044281006 -0.6574516l0.5411072 0.35756302l0.13095093 -0.22876358l-0.5892639 -0.28258896l0.5931244 -0.29219818l-0.1348114 -0.2364502l-0.54496765 0.36717224l0.04814148 -0.6574516z"
       id="path171"
       fill-rule="evenodd"
       fill="#ffffff" />
    <path
       d="m172.72366 50.078613l0.046218872 0.6574516l-0.5449829 -0.36332703l-0.13287354 0.22491455l0.5911865 0.2960472l-0.5911865 0.29027557l0.12132263 0.22491837l0.55267334 -0.35756302l-0.0423584 0.6574516l0.27537537 0l-0.044296265 -0.6574516l0.54112244 0.35756302l0.13095093 -0.22876358l-0.5892639 -0.28258896l0.59310913 -0.29219818l-0.13479614 -0.2364502l-0.54496765 0.36717224l0.04814148 -0.6574516z"
       id="path173"
       fill-rule="evenodd"
       fill="#ffffff" />
    <path
       d="m193.19086 67.708534l0.046203613 0.6574478l-0.54496765 -0.36332703l-0.13287354 0.22492218l0.5911865 0.2960434l-0.5911865 0.29027557l0.12132263 0.22491455l0.55267334 -0.3575592l-0.0423584 0.6574478l0.2753601 0l-0.044281006 -0.6574478l0.54112244 0.3575592l0.13095093 -0.22875977l-0.5892639 -0.28258514l0.59310913 -0.29219818l-0.13479614 -0.23645782l-0.5449829 0.36717224l0.04814148 -0.6574478z"
       id="path175"
       fill-rule="evenodd"
       fill="#ffffff" />
    <path
       d="m166.49925 19.708536l0.046218872 0.6574497l-0.5449829 -0.36332893l-0.13287354 0.22491837l0.5911865 0.2960434l-0.5911865 0.29027748l0.12132263 0.22491646l0.55267334 -0.3575592l-0.0423584 0.6574497l0.27537537 0l-0.044296265 -0.6574497l0.54112244 0.3575592l0.13095093 -0.22876167l-0.5892639 -0.28258705l0.59310913 -0.2922001l-0.13479614 -0.2364502l-0.54496765 0.36717224l0.04814148 -0.6574497z"
       id="path177"
       fill-rule="evenodd"
       fill="#ffffff" />
    <path
       d="m182.49925 35.708534l0.046218872 0.6574516l-0.5449829 -0.36332703l-0.13287354 0.22491455l0.5911865 0.2960472l-0.5911865 0.29027557l0.12132263 0.22491837l0.55267334 -0.35756302l-0.0423584 0.6574516l0.27537537 0l-0.044296265 -0.6574516l0.54112244 0.35756302l0.13095093 -0.22876358l-0.5892639 -0.28258896l0.59310913 -0.29219818l-0.13479614 -0.2364502l-0.54496765 0.36717224l0.04814148 -0.6574516z"
       id="path179"
       fill-rule="evenodd"
       fill="#ffffff" />
    <path
       d="m139.17215 103.11035l0.046203613 0.6574478l-0.54496765 -0.36332703l-0.13287354 0.22492218l0.5911865 0.2960434l-0.5911865 0.29027557l0.12132263 0.22491455l0.55267334 -0.3575592l-0.0423584 0.6574478l0.27537537 0l-0.044296265 -0.6574478l0.54112244 0.3575592l0.13095093 -0.22875977l-0.5892639 -0.28258514l0.59310913 -0.29219818l-0.13479614 -0.23645782l-0.5449829 0.36717224l0.04815674 -0.6574478z"
       id="path181"
       fill-rule="evenodd"
       fill="#ffffff" />
    <path
       d="m168.03828 105.189095l0.046218872 0.6574478l-0.54496765 -0.36332703l-0.13287354 0.22491455l0.5911865 0.2960434l-0.5911865 0.2902832l0.12130737 0.22491455l0.55267334 -0.3575592l-0.0423584 0.6574478l0.27537537 0l-0.044296265 -0.6574478l0.54112244 0.3575592l0.13095093 -0.22875977l-0.5892639 -0.28259277l0.59310913 -0.29219818l-0.13479614 -0.2364502l-0.54496765 0.36717224l0.04814148 -0.6574478z"
       id="path183"
       fill-rule="evenodd"
       fill="#ffffff" />
    <path
       d="m137.63408 117.48043l0.046218872 0.6574478l-0.54496765 -0.36332703l-0.13287354 0.22492218l0.5911865 0.2960434l-0.5911865 0.29027557l0.12132263 0.22491455l0.55267334 -0.3575592l-0.042373657 0.6574478l0.27537537 0l-0.044281006 -0.6574478l0.54112244 0.3575592l0.13093567 -0.22875977l-0.5892639 -0.28258514l0.5931244 -0.29219818l-0.13479614 -0.23645782l-0.5449829 0.36717224l0.04814148 -0.6574478z"
       id="path185"
       fill-rule="evenodd"
       fill="#ffffff" />
    <path
       d="m160.35324 114.22059l0.046218872 0.6574478l-0.54496765 -0.36332703l-0.13287354 0.22492218l0.5911865 0.2960434l-0.5911865 0.29027557l0.12132263 0.22491455l0.55267334 -0.3575592l-0.042373657 0.6574478l0.27537537 0l-0.044281006 -0.6574478l0.54112244 0.3575592l0.13093567 -0.22875977l-0.5892639 -0.28258514l0.5931244 -0.2922058l-0.13479614 -0.2364502l-0.5449829 0.36717224l0.04814148 -0.6574478z"
       id="path187"
       fill-rule="evenodd"
       fill="#ffffff" />
    <path
       d="m 241.27412,41.698326 17.72703,-15.695538 -0.15223,-0.07611 -19.38845,12.648293 z"
       id="path189"
       inkscape:connector-curvature="0"
       style="fill:#00b2ff;fill-opacity:0.56150004;fill-rule:evenodd" />
    <path
       d="m 239.16995,40.10252 0,0 c 0,-0.713181 0.57814,-1.291336 1.29133,-1.291336 l 0,0 c 0.34249,0 0.67095,0.136055 0.91312,0.378227 0.24217,0.242172 0.37822,0.570626 0.37822,0.913109 l 0,0 c 0,0.713188 -0.57816,1.291344 -1.29134,1.291344 l 0,0 c -0.71319,0 -1.29133,-0.578156 -1.29133,-1.291344 z"
       id="path191"
       inkscape:connector-curvature="0"
       style="fill:#93ffcf;fill-rule:evenodd" />
    <path
       d="m 239.16995,40.10252 0,0 c 0,-0.713181 0.57814,-1.291336 1.29133,-1.291336 l 0,0 c 0.34249,0 0.67095,0.136055 0.91312,0.378227 0.24217,0.242172 0.37822,0.570626 0.37822,0.913109 l 0,0 c 0,0.713188 -0.57816,1.291344 -1.29134,1.291344 l 0,0 c -0.71319,0 -1.29133,-0.578156 -1.29133,-1.291344 z"
       id="path193"
       inkscape:connector-curvature="0"
       style="fill-rule:evenodd;stroke:#38e9d6;stroke-width:1;stroke-linecap:butt;stroke-linejoin:round" />
    <path
       d="m 221.80849,44.916825 17.72702,-15.695541 -0.15223,-0.07611 -19.38845,12.648293 z"
       id="path195"
       inkscape:connector-curvature="0"
       style="fill:#00b2ff;fill-opacity:0.56150004;fill-rule:evenodd" />
    <path
       d="m 219.70431,43.321019 0,0 c 0,-0.713188 0.57815,-1.29134 1.29135,-1.29134 l 0,0 c 0.34247,0 0.67093,0.136051 0.91311,0.378224 0.24216,0.242172 0.37821,0.570633 0.37821,0.913116 l 0,0 c 0,0.713188 -0.57813,1.291336 -1.29132,1.291336 l 0,0 c -0.7132,0 -1.29135,-0.578148 -1.29135,-1.291336 z"
       id="path197"
       inkscape:connector-curvature="0"
       style="fill:#93ffcf;fill-rule:evenodd" />
    <path
       d="m 219.70431,43.321019 0,0 c 0,-0.713188 0.57815,-1.29134 1.29135,-1.29134 l 0,0 c 0.34247,0 0.67093,0.136051 0.91311,0.378224 0.24216,0.242172 0.37821,0.570633 0.37821,0.913116 l 0,0 c 0,0.713188 -0.57813,1.291336 -1.29132,1.291336 l 0,0 c -0.7132,0 -1.29135,-0.578148 -1.29135,-1.291336 z"
       id="path199"
       inkscape:connector-curvature="0"
       style="fill-rule:evenodd;stroke:#38e9d6;stroke-width:1;stroke-linecap:butt;stroke-linejoin:round" />
  </g>
</svg>
