<?xml version="1.0" encoding="UTF-8" standalone="no"?>
<svg
   xmlns:dc="http://purl.org/dc/elements/1.1/"
   xmlns:cc="http://creativecommons.org/ns#"
   xmlns:rdf="http://www.w3.org/1999/02/22-rdf-syntax-ns#"
   xmlns:svg="http://www.w3.org/2000/svg"
   xmlns="http://www.w3.org/2000/svg"
   xmlns:sodipodi="http://sodipodi.sourceforge.net/DTD/sodipodi-0.dtd"
   xmlns:inkscape="http://www.inkscape.org/namespaces/inkscape"
   version="1.1"
   viewBox="0.0 0.0 382.4698162729659 161.91338582677164"
   stroke-miterlimit="10"
   id="svg2"
   inkscape:version="0.91 r13725"
   sodipodi:docname="starscontinued.svg"
   stroke-linecap="square"
   stroke="none"
   fill="none">
  <metadata
     id="metadata159">
    <rdf:RDF>
      <cc:Work
         rdf:about="">
        <dc:format>image/svg+xml</dc:format>
        <dc:type
           rdf:resource="http://purl.org/dc/dcmitype/StillImage" />
        <dc:title></dc:title>
      </cc:Work>
    </rdf:RDF>
  </metadata>
  <defs
     id="defs157" />
  <sodipodi:namedview
     pagecolor="#ffffff"
     bordercolor="#666666"
     borderopacity="1"
     objecttolerance="10"
     gridtolerance="10"
     guidetolerance="10"
     inkscape:pageopacity="0"
     inkscape:pageshadow="2"
     inkscape:window-width="1600"
     inkscape:window-height="838"
     id="namedview155"
     showgrid="false"
     inkscape:zoom="3.0120024"
     inkscape:cx="212.21949"
     inkscape:cy="109.60547"
     inkscape:window-x="-8"
     inkscape:window-y="-8"
     inkscape:window-maximized="1"
     inkscape:current-layer="g7" />
  <clipPath
     id="p.0">
    <path
       d="m0 0l382.46982 0l0 161.91339l-382.46982 0l0 -161.91339z"
       id="path5"
       clip-rule="nonzero" />
  </clipPath>
  <g
     clip-path="url(#p.0)"
     id="g7"
     transform="matrix(1.008202,0,0,1.008202,-1.5685165,-0.6640101)">
    <path
       d="m 0,0 382.46982,0 0,161.91339 -382.46982,0 z"
       id="path9"
       inkscape:connector-curvature="0"
       style="fill:#000000;fill-rule:evenodd" />
    <path
       d="m 331.98755,73.1952 26.30514,-23.290611 -0.22592,-0.112949 -28.7705,18.768803 z"
       id="path11"
       inkscape:connector-curvature="0"
       style="fill:#00b2ff;fill-opacity:0.56150004;fill-rule:evenodd" />
    <path
       d="m 328.86514,70.82719 0,0 c 0,-1.058296 0.85791,-1.916214 1.91623,-1.916214 l 0,0 c 0.50821,0 0.9956,0.201881 1.35495,0.561241 0.35937,0.35936 0.56125,0.846764 0.56125,1.354973 l 0,0 c 0,1.058296 -0.85791,1.916214 -1.9162,1.916214 l 0,0 c -1.05832,0 -1.91623,-0.857918 -1.91623,-1.916214 z"
       id="path13"
       inkscape:connector-curvature="0"
       style="fill:#93ffcf;fill-rule:evenodd" />
    <path
       d="m 328.86514,70.82719 0,0 c 0,-1.058296 0.85791,-1.916214 1.91623,-1.916214 l 0,0 c 0.50821,0 0.9956,0.201881 1.35495,0.561241 0.35937,0.35936 0.56125,0.846764 0.56125,1.354973 l 0,0 c 0,1.058296 -0.85791,1.916214 -1.9162,1.916214 l 0,0 c -1.05832,0 -1.91623,-0.857918 -1.91623,-1.916214 z"
       id="path15"
       inkscape:connector-curvature="0"
       style="fill-rule:evenodd;stroke:#38e9d6;stroke-width:1;stroke-linecap:butt;stroke-linejoin:round" />
    <path
       d="m 252.14984,99.000588 26.30514,-23.290611 -0.22589,-0.112949 -28.77053,18.768806 z"
       id="path17"
       inkscape:connector-curvature="0"
       style="fill:#00b2ff;fill-opacity:0.56150004;fill-rule:evenodd" />
    <path
       d="m 249.02747,96.632574 0,0 c 0,-1.058296 0.85791,-1.916218 1.9162,-1.916218 l 0,0 c 0.50821,0 0.9956,0.201889 1.35498,0.561249 0.35934,0.35936 0.56125,0.846756 0.56125,1.354969 l 0,0 c 0,1.058296 -0.85791,1.916214 -1.91623,1.916214 l 0,0 c -1.05829,0 -1.9162,-0.857918 -1.9162,-1.916214 z"
       id="path19"
       inkscape:connector-curvature="0"
       style="fill:#93ffcf;fill-rule:evenodd" />
    <path
       d="m 249.02747,96.632574 0,0 c 0,-1.058296 0.85791,-1.916218 1.9162,-1.916218 l 0,0 c 0.50821,0 0.9956,0.201889 1.35498,0.561249 0.35934,0.35936 0.56125,0.846756 0.56125,1.354969 l 0,0 c 0,1.058296 -0.85791,1.916214 -1.91623,1.916214 l 0,0 c -1.05829,0 -1.9162,-0.857918 -1.9162,-1.916214 z"
       id="path21"
       inkscape:connector-curvature="0"
       style="fill-rule:evenodd;stroke:#38e9d6;stroke-width:1;stroke-linecap:butt;stroke-linejoin:round" />
    <path
       d="m 129.57706,126.5898 26.30514,-23.29061 -0.22589,-0.11295 -28.77053,18.76881 z"
       id="path23"
       inkscape:connector-curvature="0"
       style="fill:#00b2ff;fill-opacity:0.56150004;fill-rule:evenodd" />
    <path
       d="m 126.45468,124.22179 0,0 c 0,-1.0583 0.85791,-1.91622 1.9162,-1.91622 l 0,0 c 0.50821,0 0.9956,0.20189 1.35498,0.56125 0.35934,0.35936 0.56125,0.84676 0.56125,1.35497 l 0,0 c 0,1.0583 -0.85791,1.91622 -1.91623,1.91622 l 0,0 c -1.05829,0 -1.9162,-0.85792 -1.9162,-1.91622 z"
       id="path25"
       inkscape:connector-curvature="0"
       style="fill:#93ffcf;fill-rule:evenodd" />
    <path
       d="m 126.45468,124.22179 0,0 c 0,-1.0583 0.85791,-1.91622 1.9162,-1.91622 l 0,0 c 0.50821,0 0.9956,0.20189 1.35498,0.56125 0.35934,0.35936 0.56125,0.84676 0.56125,1.35497 l 0,0 c 0,1.0583 -0.85791,1.91622 -1.91623,1.91622 l 0,0 c -1.05829,0 -1.9162,-0.85792 -1.9162,-1.91622 z"
       id="path27"
       inkscape:connector-curvature="0"
       style="fill-rule:evenodd;stroke:#38e9d6;stroke-width:1;stroke-linecap:butt;stroke-linejoin:round" />
    <path
       d="M 40.306885,63.65773 66.61203,40.367123 66.386139,40.254174 37.615612,59.022977 Z"
       id="path29"
       inkscape:connector-curvature="0"
       style="fill:#00b2ff;fill-opacity:0.56150004;fill-rule:evenodd" />
    <path
       d="m 37.184498,61.289722 0,0 c 0,-1.0583 0.857918,-1.916218 1.916218,-1.916218 l 0,0 c 0.508213,0 0.995609,0.201885 1.354969,0.561245 0.35936,0.359364 0.561249,0.84676 0.561249,1.354973 l 0,0 c 0,1.058296 -0.857922,1.916218 -1.916218,1.916218 l 0,0 c -1.0583,0 -1.916218,-0.857922 -1.916218,-1.916218 z"
       id="path31"
       inkscape:connector-curvature="0"
       style="fill:#93ffcf;fill-rule:evenodd" />
    <path
       d="m 37.184498,61.289722 0,0 c 0,-1.0583 0.857918,-1.916218 1.916218,-1.916218 l 0,0 c 0.508213,0 0.995609,0.201885 1.354969,0.561245 0.35936,0.359364 0.561249,0.84676 0.561249,1.354973 l 0,0 c 0,1.058296 -0.857922,1.916218 -1.916218,1.916218 l 0,0 c -1.0583,0 -1.916218,-0.857922 -1.916218,-1.916218 z"
       id="path33"
       inkscape:connector-curvature="0"
       style="fill-rule:evenodd;stroke:#38e9d6;stroke-width:1;stroke-linecap:butt;stroke-linejoin:round" />
    <path
       d="m 256.97928,67.06376 0.10028,1.426445 -1.1826,-0.7883 -0.28835,0.487999 1.2829,0.642319 -1.2829,0.629807 0.26328,0.487991 1.19931,-0.775787 -0.0919,1.426445 0.59756,0 -0.0961,-1.426445 1.17426,0.775787 0.28415,-0.496338 -1.27872,-0.613121 1.28708,-0.633972 -0.29251,-0.513024 -1.18262,0.796639 0.10446,-1.426445 z"
       id="path35"
       inkscape:connector-curvature="0"
       style="fill:#ffffff;fill-rule:evenodd" />
    <path
       d="m 307.77206,39.733833 0.10028,1.426445 -1.18259,-0.7883 -0.28836,0.487996 1.28293,0.642318 -1.28293,0.629807 0.26328,0.487995 1.19934,-0.775787 -0.0919,1.426445 0.59756,0 -0.0961,-1.426445 1.17426,0.775787 0.28415,-0.496338 -1.27872,-0.613121 1.28708,-0.633976 -0.29251,-0.51302 -1.18262,0.796639 0.10446,-1.426445 z"
       id="path37"
       inkscape:connector-curvature="0"
       style="fill:#ffffff;fill-rule:evenodd" />
    <path
       d="m 365.76178,35.8868 0.10028,1.426445 -1.18262,-0.7883 -0.28833,0.487996 1.2829,0.642318 -1.2829,0.629807 0.26328,0.487991 1.19931,-0.775783 -0.0919,1.426445 0.59756,0 -0.0961,-1.426445 1.17426,0.775783 0.28415,-0.496334 -1.27872,-0.613121 1.28708,-0.633976 -0.29251,-0.513023 -1.18262,0.796642 0.10446,-1.426445 z"
       id="path39"
       inkscape:connector-curvature="0"
       style="fill:#ffffff;fill-rule:evenodd" />
    <path
       d="m 323.92642,94.280235 0.10031,1.426445 -1.18262,-0.7883 -0.28833,0.487992 1.2829,0.642318 -1.2829,0.629807 0.26325,0.487999 1.19934,-0.775787 -0.0919,1.426445 0.5976,0 -0.0961,-1.426445 1.17426,0.775787 0.28418,-0.496338 -1.27875,-0.613121 1.28711,-0.63398 -0.29254,-0.513016 -1.18262,0.796639 0.1045,-1.426445 z"
       id="path41"
       inkscape:connector-curvature="0"
       style="fill:#ffffff;fill-rule:evenodd" />
    <path
       d="m 136.11859,16.800337 0.1003,1.426445 -1.18262,-0.7883 -0.28833,0.487996 1.2829,0.642318 -1.2829,0.629805 0.26326,0.487995 1.19932,-0.775787 -0.0919,1.426447 0.59758,0 -0.0961,-1.426447 1.17426,0.775787 0.28416,-0.496336 -1.27873,-0.613123 1.2871,-0.633976 -0.29253,-0.513019 -1.18262,0.79664 0.10448,-1.426445 z"
       id="path43"
       inkscape:connector-curvature="0"
       style="fill:#ffffff;fill-rule:evenodd" />
    <path
       d="m 13.179906,32.4688 0.100292,1.426445 -1.182611,-0.7883 -0.288341,0.487996 1.282905,0.642318 -1.282905,0.629807 0.263268,0.487995 1.199327,-0.775787 -0.09193,1.426445 0.597575,0 -0.09611,-1.426445 1.174254,0.775787 0.284162,-0.496338 -1.278726,-0.613121 1.287084,-0.633976 -0.29252,-0.51302 -1.182611,0.796639 0.104471,-1.426445 z"
       id="path45"
       inkscape:connector-curvature="0"
       style="fill:#ffffff;fill-rule:evenodd" />
    <path
       d="m 109.64867,1.1720304 0.10029,1.4264464 -1.18261,-0.7882993 -0.28833,0.4879947 1.28289,0.642318 -1.28289,0.6298053 0.26325,0.4879949 1.19934,-0.7757867 -0.0919,1.4264462 0.59758,0 -0.0961,-1.4264462 1.17426,0.7757867 0.28416,-0.4963367 -1.27872,-0.6131218 1.28708,-0.6339762 -0.29252,-0.51302 -1.18261,0.7966411 0.10447,-1.4264464 z"
       id="path47"
       inkscape:connector-curvature="0"
       style="fill:#ffffff;fill-rule:evenodd" />
    <path
       d="m 139.45802,59.72559 0.10028,1.426445 -1.1826,-0.7883 -0.28835,0.487996 1.2829,0.642318 -1.2829,0.629807 0.26326,0.487995 1.19934,-0.775787 -0.0919,1.426445 0.59756,0 -0.0961,-1.426445 1.17426,0.775787 0.28416,-0.496338 -1.27873,-0.613121 1.28709,-0.633976 -0.29253,-0.513023 -1.1826,0.796642 0.10446,-1.426445 z"
       id="path49"
       inkscape:connector-curvature="0"
       style="fill:#ffffff;fill-rule:evenodd" />
    <path
       d="m 343.28168,13.264746 0.10031,1.426446 -1.18262,-0.788299 -0.28836,0.487995 1.28293,0.642318 -1.28293,0.629805 0.26328,0.487994 1.19934,-0.775785 -0.0919,1.426447 0.59756,0 -0.0961,-1.426447 1.17426,0.775785 0.28415,-0.496336 -1.27872,-0.613121 1.28708,-0.633977 -0.29251,-0.513019 -1.18262,0.79664 0.10446,-1.426446 z"
       id="path51"
       inkscape:connector-curvature="0"
       style="fill:#ffffff;fill-rule:evenodd" />
    <path
       d="m 303.4168,4.7084723 0.10031,1.4264464 -1.18262,-0.7882991 -0.28833,0.4879947 1.2829,0.6423182 -1.2829,0.6298051 0.26325,0.4879947 1.19934,-0.7757864 -0.0919,1.426446 0.5976,0 -0.0961,-1.426446 1.17426,0.7757864 0.28418,-0.4963365 -1.27875,-0.6131215 1.28708,-0.6339764 -0.29251,-0.5130201 -1.18262,0.7966409 0.1045,-1.4264464 z"
       id="path53"
       inkscape:connector-curvature="0"
       style="fill:#ffffff;fill-rule:evenodd" />
    <path
       d="m 394.54752,19.807192 0.10028,1.426447 -1.18259,-0.7883 -0.28836,0.487995 1.2829,0.642319 -1.2829,0.629805 0.26328,0.487995 1.19931,-0.775787 -0.0919,1.426446 0.59756,0 -0.0961,-1.426446 1.17426,0.775787 0.28415,-0.496338 -1.27872,-0.613121 1.28708,-0.633976 -0.29251,-0.51302 -1.18262,0.796641 0.10446,-1.426447 z"
       id="path55"
       inkscape:connector-curvature="0"
       style="fill:#ffffff;fill-rule:evenodd" />
    <path
       d="m 365.76227,119.95969 0.10031,1.42644 -1.18262,-0.78829 -0.28836,0.48799 1.28293,0.64232 -1.28293,0.6298 0.26328,0.488 1.19934,-0.77579 -0.0919,1.42645 0.5976,0 -0.0961,-1.42645 1.17426,0.77579 0.28415,-0.49634 -1.27872,-0.61312 1.28708,-0.63398 -0.29251,-0.51301 -1.18262,0.79663 0.1045,-1.42644 z"
       id="path57"
       inkscape:connector-curvature="0"
       style="fill:#ffffff;fill-rule:evenodd" />
    <path
       d="m 365.7613,79.18833 0.10028,1.426453 -1.18262,-0.7883 -0.28833,0.487991 1.2829,0.642319 -1.2829,0.629807 0.26328,0.487991 1.19931,-0.775787 -0.0919,1.426452 0.59756,0 -0.0961,-1.426452 1.17426,0.775787 0.28415,-0.49633 -1.27872,-0.613129 1.28708,-0.633972 -0.29251,-0.513024 -1.18262,0.796647 0.10446,-1.426453 z"
       id="path59"
       inkscape:connector-curvature="0"
       style="fill:#ffffff;fill-rule:evenodd" />
    <path
       d="m 261.97092,19.80755 0.10028,1.426447 -1.18262,-0.7883 -0.28833,0.487995 1.2829,0.642317 -1.2829,0.629807 0.26328,0.487995 1.19931,-0.775787 -0.0919,1.426446 0.59756,0 -0.0961,-1.426446 1.17426,0.775787 0.28415,-0.496338 -1.27872,-0.613121 1.28708,-0.633976 -0.29251,-0.513021 -1.18262,0.796642 0.10446,-1.426447 z"
       id="path61"
       inkscape:connector-curvature="0"
       style="fill:#ffffff;fill-rule:evenodd" />
    <path
       d="m 235.0035,1.1715032 0.1003,1.4264463 -1.18262,-0.7882993 -0.28835,0.4879949 1.28292,0.642318 -1.28292,0.6298053 0.26328,0.4879947 1.19932,-0.7757867 -0.0919,1.4264467 0.59756,0 -0.0961,-1.4264467 1.17424,0.7757867 0.28417,-0.4963365 -1.27872,-0.6131217 1.28708,-0.6339762 -0.29252,-0.5130203 -1.18261,0.7966411 0.10446,-1.4264463 z"
       id="path63"
       inkscape:connector-curvature="0"
       style="fill:#ffffff;fill-rule:evenodd" />
    <path
       d="m 37.356552,13.264452 0.100292,1.426446 -1.182609,-0.7883 -0.288342,0.487996 1.282906,0.642317 -1.282906,0.629806 0.263268,0.487994 1.199325,-0.775786 -0.09193,1.426446 0.597576,0 -0.09611,-1.426446 1.174255,0.775786 0.284161,-0.496336 -1.278725,-0.613122 1.287083,-0.633976 -0.292519,-0.51302 -1.182613,0.796641 0.104473,-1.426446 z"
       id="path65"
       inkscape:connector-curvature="0"
       style="fill:#ffffff;fill-rule:evenodd" />
    <path
       d="m 62.859768,21.369656 0.100292,1.426447 -1.182613,-0.7883 -0.288338,0.487995 1.282902,0.642319 -1.282902,0.629805 0.263268,0.487995 1.199325,-0.775787 -0.09193,1.426446 0.597576,0 -0.09611,-1.426446 1.174255,0.775787 0.284165,-0.496338 -1.278729,-0.613121 1.287083,-0.633976 -0.292519,-0.51302 -1.182613,0.796641 0.104473,-1.426447 z"
       id="path67"
       inkscape:connector-curvature="0"
       style="fill:#ffffff;fill-rule:evenodd" />
    <path
       d="m 70.59492,67.0639 0.100288,1.426445 -1.182609,-0.7883 -0.288338,0.487992 1.282906,0.642318 -1.282906,0.629807 0.263268,0.487999 1.199325,-0.775787 -0.09193,1.426445 0.597572,0 -0.09611,-1.426445 1.174256,0.775787 0.284164,-0.496338 -1.278725,-0.613121 1.287079,-0.63398 -0.292518,-0.513016 -1.18261,0.796639 0.104469,-1.426445 z"
       id="path69"
       inkscape:connector-curvature="0"
       style="fill:#ffffff;fill-rule:evenodd" />
    <path
       d="m 184.89542,16.393316 0.1003,1.426447 -1.18262,-0.7883 -0.28833,0.487995 1.2829,0.642317 -1.2829,0.629807 0.26326,0.487995 1.19932,-0.775787 -0.0919,1.426446 0.59758,0 -0.0961,-1.426446 1.17426,0.775787 0.28416,-0.496338 -1.27873,-0.613121 1.2871,-0.633976 -0.29253,-0.513021 -1.18262,0.796642 0.10448,-1.426447 z"
       id="path71"
       inkscape:connector-curvature="0"
       style="fill:#ffffff;fill-rule:evenodd" />
    <path
       d="m 146.0927,35.88725 0.10028,1.426449 -1.1826,-0.7883 -0.28835,0.487995 1.2829,0.642315 -1.2829,0.629807 0.26326,0.487995 1.19934,-0.775787 -0.0919,1.426445 0.59756,0 -0.0961,-1.426445 1.17426,0.775787 0.28416,-0.496338 -1.27873,-0.613121 1.28709,-0.633976 -0.29253,-0.51302 -1.1826,0.796643 0.10446,-1.426449 z"
       id="path73"
       inkscape:connector-curvature="0"
       style="fill:#ffffff;fill-rule:evenodd" />
    <path
       d="m 207.58717,44.67088 0.1003,1.426449 -1.18262,-0.7883 -0.28833,0.487995 1.2829,0.642315 -1.2829,0.629807 0.26326,0.487995 1.19932,-0.775787 -0.0919,1.426448 0.59758,0 -0.0961,-1.426448 1.17426,0.775787 0.28416,-0.496338 -1.27873,-0.613121 1.28708,-0.633976 -0.29251,-0.51302 -1.18262,0.796643 0.10448,-1.426449 z"
       id="path75"
       inkscape:connector-curvature="0"
       style="fill:#ffffff;fill-rule:evenodd" />
    <path
       d="m 269.72455,35.886723 0.10031,1.426445 -1.18262,-0.7883 -0.28836,0.487996 1.28293,0.642318 -1.28293,0.629807 0.26328,0.487995 1.19934,-0.775787 -0.0919,1.426445 0.5976,0 -0.0961,-1.426445 1.17426,0.775787 0.28415,-0.496338 -1.27872,-0.613121 1.28708,-0.633976 -0.29251,-0.51302 -1.18262,0.796639 0.1045,-1.426445 z"
       id="path77"
       inkscape:connector-curvature="0"
       style="fill:#ffffff;fill-rule:evenodd" />
    <path
       d="m 9.842025,132.6692 0.1002922,1.42645 -1.1826124,-0.7883 -0.2883396,0.48799 1.2829037,0.64232 -1.2829037,0.62981 0.2632666,0.48799 1.1993275,-0.77579 -0.091934,1.42646 0.5975739,0 -0.09611,-1.42646 1.174254,0.77579 0.284162,-0.49634 -1.278726,-0.61311 1.287083,-0.63399 -0.292518,-0.51301 -1.182613,0.79664 0.104471,-1.42645 z"
       id="path79"
       inkscape:connector-curvature="0"
       style="fill:#ffffff;fill-rule:evenodd" />
    <path
       d="m 62.85901,111.40368 0.100292,1.42644 -1.182613,-0.78829 -0.288338,0.48799 1.282902,0.64232 -1.282902,0.6298 0.263264,0.488 1.199329,-0.77579 -0.09193,1.42645 0.597572,0 -0.09611,-1.42645 1.174252,0.77579 0.284164,-0.49634 -1.278725,-0.61312 1.287079,-0.63398 -0.292518,-0.51302 -1.18261,0.79664 0.104469,-1.42644 z"
       id="path81"
       inkscape:connector-curvature="0"
       style="fill:#ffffff;fill-rule:evenodd" />
    <path
       d="m 167.6258,81.682556 0.1003,1.426445 -1.18262,-0.7883 -0.28835,0.487992 1.28292,0.642318 -1.28292,0.629807 0.26328,0.487991 1.19932,-0.775787 -0.0919,1.426453 0.59758,0 -0.0961,-1.426453 1.17426,0.775787 0.28415,-0.49633 -1.27872,-0.613129 1.28708,-0.633972 -0.29251,-0.513023 -1.18262,0.796646 0.10448,-1.426445 z"
       id="path83"
       inkscape:connector-curvature="0"
       style="fill:#ffffff;fill-rule:evenodd" />
    <path
       d="m 2.599666,97.8159 0.1002922,1.426445 -1.1826123,-0.7883 -0.2883401,0.487992 1.2829045,0.642318 -1.2829045,0.629805 0.263267,0.48799 1.1993276,-0.775784 -0.091934,1.426454 0.5975742,0 -0.096113,-1.426454 1.1742544,0.775784 0.2841611,-0.49633 L 3.2808171,99.592694 4.5679005,98.958722 4.2753814,98.445699 3.0927692,99.242345 3.1972402,97.8159 Z"
       id="path85"
       inkscape:connector-curvature="0"
       style="fill:#ffffff;fill-rule:evenodd" />
    <path
       d="m 84.34977,42.64705 0.100288,1.426445 -1.182609,-0.7883 -0.288338,0.487996 1.282906,0.642318 -1.282906,0.629807 0.263268,0.487995 1.199325,-0.775787 -0.09193,1.426445 0.597572,0 -0.09612,-1.426445 1.174256,0.775787 0.284164,-0.496338 -1.278725,-0.613121 1.287079,-0.633976 -0.292518,-0.513023 -1.18261,0.796642 0.104469,-1.426445 z"
       id="path87"
       inkscape:connector-curvature="0"
       style="fill:#ffffff;fill-rule:evenodd" />
    <path
       d="m 159.07568,108.56925 0.1003,1.42644 -1.18262,-0.78829 -0.28835,0.48799 1.28292,0.64232 -1.28292,0.62981 0.26328,0.48799 1.19932,-0.77579 -0.0919,1.42645 0.59758,0 -0.0961,-1.42645 1.17426,0.77579 0.28415,-0.49634 -1.27872,-0.61312 1.28708,-0.63397 -0.29251,-0.51302 -1.18262,0.79663 0.10448,-1.42644 z"
       id="path89"
       inkscape:connector-curvature="0"
       style="fill:#ffffff;fill-rule:evenodd" />
    <path
       d="m 207.58633,79.18817 0.1003,1.426445 -1.18262,-0.7883 -0.28835,0.487992 1.28292,0.642318 -1.28292,0.629807 0.26328,0.487999 1.19932,-0.775787 -0.0919,1.426445 0.59756,0 -0.0961,-1.426445 1.17424,0.775787 0.28417,-0.496338 -1.27872,-0.613121 1.28708,-0.63398 -0.29252,-0.513016 -1.18261,0.796639 0.10446,-1.426445 z"
       id="path91"
       inkscape:connector-curvature="0"
       style="fill:#ffffff;fill-rule:evenodd" />
    <path
       d="m 318.4469,139.74031 0.10028,1.42644 -1.18262,-0.7883 -0.28833,0.488 1.2829,0.64232 -1.2829,0.62981 0.26328,0.48799 1.19931,-0.77579 -0.0919,1.42644 0.59756,0 -0.0961,-1.42644 1.17426,0.77579 0.28415,-0.49634 -1.27872,-0.61313 1.28708,-0.63397 -0.29251,-0.51301 -1.18262,0.79663 0.10446,-1.42644 z"
       id="path93"
       inkscape:connector-curvature="0"
       style="fill:#ffffff;fill-rule:evenodd" />
    <path
       d="m 297.53677,108.56875 0.10028,1.42645 -1.18262,-0.7883 -0.28833,0.48799 1.2829,0.64232 -1.2829,0.62981 0.26328,0.48799 1.19931,-0.77579 -0.0919,1.42646 0.59756,0 -0.0961,-1.42646 1.17426,0.77579 0.28415,-0.49634 -1.27872,-0.61312 1.28708,-0.63397 -0.29251,-0.51302 -1.18262,0.79664 0.10446,-1.42645 z"
       id="path95"
       inkscape:connector-curvature="0"
       style="fill:#ffffff;fill-rule:evenodd" />
    <path
       d="m 338.88242,55.47708 0.10028,1.426445 -1.18262,-0.7883 -0.28833,0.487996 1.2829,0.642318 -1.2829,0.629807 0.26328,0.487991 1.19931,-0.775783 -0.0919,1.426445 0.59756,0 -0.0961,-1.426445 1.17426,0.775783 0.28415,-0.496334 -1.27872,-0.613121 1.28708,-0.633976 -0.29251,-0.513023 -1.18262,0.796642 0.10446,-1.426445 z"
       id="path97"
       inkscape:connector-curvature="0"
       style="fill:#ffffff;fill-rule:evenodd" />
    <path
       d="m 436.40033,124.6229 0.10028,1.42645 -1.18262,-0.7883 -0.28833,0.48799 1.2829,0.64232 -1.2829,0.62981 0.26328,0.48799 1.19931,-0.77579 -0.0919,1.42645 0.59756,0 -0.0961,-1.42645 1.17423,0.77579 0.28418,-0.49634 -1.27872,-0.61312 1.28708,-0.63397 -0.29254,-0.51302 -1.18259,0.79663 0.10446,-1.42644 z"
       id="path99"
       inkscape:connector-curvature="0"
       style="fill:#ffffff;fill-rule:evenodd" />
    <path
       d="m 345.55356,97.81588 0.10031,1.426445 -1.18262,-0.7883 -0.28833,0.487999 1.2829,0.642319 -1.2829,0.629797 0.26325,0.488 1.19934,-0.775786 -0.0919,1.426446 0.5976,0 -0.0961,-1.426446 1.17426,0.775786 0.28418,-0.49634 -1.27875,-0.613118 1.28711,-0.63398 -0.29254,-0.513016 -1.18262,0.796639 0.1045,-1.426445 z"
       id="path101"
       inkscape:connector-curvature="0"
       style="fill:#ffffff;fill-rule:evenodd" />
    <path
       d="m 284.06323,136.20369 0.10031,1.42644 -1.18262,-0.7883 -0.28833,0.488 1.2829,0.64231 -1.2829,0.6298 0.26325,0.48801 1.19934,-0.77579 -0.0919,1.42644 0.5976,0 -0.0961,-1.42644 1.17426,0.77579 0.28418,-0.49634 -1.27875,-0.61313 1.28711,-0.63397 -0.29254,-0.51301 -1.18262,0.79663 0.1045,-1.42644 z"
       id="path103"
       inkscape:connector-curvature="0"
       style="fill:#ffffff;fill-rule:evenodd" />
    <path
       d="m 81.01314,90.33516 0.100296,1.426445 -1.182617,-0.7883 -0.288338,0.487992 1.282906,0.642318 -1.282906,0.629807 0.263268,0.487999 1.199325,-0.775787 -0.09193,1.426445 0.597572,0 -0.09611,-1.426445 1.174248,0.775787 0.284164,-0.496338 -1.278725,-0.613121 1.287079,-0.63398 -0.292518,-0.513016 -1.18261,0.796639 0.104469,-1.426445 z"
       id="path105"
       inkscape:connector-curvature="0"
       style="fill:#ffffff;fill-rule:evenodd" />
    <path
       d="m 188.23386,97.81611 0.1003,1.426453 -1.18262,-0.7883 -0.28833,0.487991 1.2829,0.642319 -1.2829,0.629807 0.26326,0.48799 1.19932,-0.775786 -0.0919,1.426446 0.59758,0 -0.0961,-1.426446 1.17426,0.775786 0.28416,-0.49634 -1.27873,-0.613118 1.2871,-0.633972 -0.29253,-0.513024 -1.18262,0.796647 0.10448,-1.426453 z"
       id="path107"
       inkscape:connector-curvature="0"
       style="fill:#ffffff;fill-rule:evenodd" />
    <path
       d="m 128.83743,90.33549 0.10028,1.426453 -1.1826,-0.7883 -0.28835,0.487991 1.28292,0.642319 -1.28292,0.629807 0.26327,0.487991 1.19933,-0.775787 -0.0919,1.426445 0.59756,0 -0.0961,-1.426445 1.17426,0.775787 0.28416,-0.496338 -1.27872,-0.613121 1.28708,-0.633972 -0.29252,-0.513024 -1.18261,0.796647 0.10446,-1.426453 z"
       id="path109"
       inkscape:connector-curvature="0"
       style="fill:#ffffff;fill-rule:evenodd" />
    <path
       d="m 103.29437,114.93632 0.1003,1.42645 -1.18262,-0.7883 -0.28834,0.48799 1.28291,0.64232 -1.28291,0.62981 0.26327,0.48799 1.19932,-0.77579 -0.0919,1.42645 0.59757,0 -0.0961,-1.42645 1.17426,0.77579 0.28416,-0.49633 -1.27873,-0.61313 1.28709,-0.63397 -0.29252,-0.51303 -1.18262,0.79665 0.10447,-1.42645 z"
       id="path111"
       inkscape:connector-curvature="0"
       style="fill:#ffffff;fill-rule:evenodd" />
    <path
       d="m 238.34212,51.941177 0.1003,1.426445 -1.18262,-0.7883 -0.28835,0.487996 1.28292,0.642318 -1.28292,0.629807 0.26328,0.487995 1.19932,-0.775787 -0.0919,1.426445 0.59758,0 -0.0961,-1.426445 1.17426,0.775787 0.28416,-0.496338 -1.27873,-0.613121 1.28708,-0.633976 -0.29251,-0.51302 -1.18262,0.796639 0.10448,-1.426445 z"
       id="path113"
       inkscape:connector-curvature="0"
       style="fill:#ffffff;fill-rule:evenodd" />
    <path
       d="m 223.11926,21.36907 0.1003,1.426447 -1.18262,-0.7883 -0.28835,0.487995 1.28292,0.642317 -1.28292,0.629807 0.26328,0.487995 1.19932,-0.775787 -0.0919,1.426446 0.59758,0 -0.0961,-1.426446 1.17426,0.775787 0.28415,-0.496338 -1.27872,-0.613121 1.28708,-0.633976 -0.29251,-0.513021 -1.18262,0.796642 0.10448,-1.426447 z"
       id="path115"
       inkscape:connector-curvature="0"
       style="fill:#ffffff;fill-rule:evenodd" />
    <path
       d="m 210.92479,136.20502 0.1003,1.42645 -1.18261,-0.7883 -0.28834,0.48799 1.2829,0.64232 -1.2829,0.62981 0.26326,0.48799 1.19934,-0.77579 -0.0919,1.42646 0.59758,0 -0.0961,-1.42646 1.17426,0.77579 0.28416,-0.49632 -1.27873,-0.61313 1.2871,-0.63397 -0.29253,-0.51303 -1.1826,0.79664 0.10446,-1.42645 z"
       id="path117"
       inkscape:connector-curvature="0"
       style="fill:#ffffff;fill-rule:evenodd" />
    <path
       d="m 30.223473,117.55106 0.100292,1.42645 -1.182613,-0.7883 -0.28834,0.48799 1.282904,0.64232 -1.282904,0.62981 0.263268,0.48799 1.199327,-0.77579 -0.09193,1.42645 0.597574,0 -0.09611,-1.42645 1.174254,0.77579 0.284162,-0.49634 -1.278727,-0.61312 1.287085,-0.63397 -0.29252,-0.51302 -1.182612,0.79663 0.104471,-1.42644 z"
       id="path119"
       inkscape:connector-curvature="0"
       style="fill:#ffffff;fill-rule:evenodd" />
    <path
       d="m 300.39313,82.287575 0.10028,1.426445 -1.18262,-0.788292 -0.28833,0.487991 1.2829,0.642319 -1.2829,0.629807 0.26328,0.487991 1.19931,-0.775787 -0.0919,1.426445 0.59756,0 -0.0961,-1.426445 1.17426,0.775787 0.28415,-0.496338 -1.27872,-0.613121 1.28708,-0.633972 -0.29251,-0.513024 -1.18262,0.796639 0.10446,-1.426445 z"
       id="path121"
       inkscape:connector-curvature="0"
       style="fill:#ffffff;fill-rule:evenodd" />
    <path
       d="m 125.50033,117.55132 0.10029,1.42645 -1.18261,-0.7883 -0.28834,0.48799 1.28291,0.64232 -1.28291,0.62981 0.26327,0.48799 1.19932,-0.77579 -0.0919,1.42645 0.59757,0 -0.0961,-1.42645 1.17425,0.77579 0.28417,-0.49634 -1.27873,-0.61312 1.28708,-0.63397 -0.29252,-0.51302 -1.18261,0.79663 0.10447,-1.42644 z"
       id="path123"
       inkscape:connector-curvature="0"
       style="fill:#ffffff;fill-rule:evenodd" />
    <path
       d="m 210.92567,101.3507 0.10028,1.42645 -1.1826,-0.7883 -0.28835,0.48799 1.2829,0.64232 -1.2829,0.6298 0.26328,0.488 1.19932,-0.77579 -0.0919,1.42645 0.59756,0 -0.0961,-1.42645 1.17426,0.77579 0.28416,-0.49634 -1.27872,-0.61312 1.28708,-0.63398 -0.29252,-0.51301 -1.18261,0.79663 0.10446,-1.42644 z"
       id="path125"
       inkscape:connector-curvature="0"
       style="fill:#ffffff;fill-rule:evenodd" />
    <path
       d="m 2.6010358,177.89908 0.1002922,1.42644 -1.1826122,-0.7883 -0.2883401,0.488 1.2829044,0.64232 -1.2829044,0.62979 0.263267,0.48801 1.1993277,-0.77579 -0.091935,1.42644 0.5975745,0 -0.096113,-1.42644 1.1742547,0.77579 0.2841611,-0.49634 -1.2787254,-0.61313 1.2870834,-0.63397 -0.2925191,-0.51301 -1.1826122,0.79663 0.104471,-1.42644 z"
       id="path127"
       inkscape:connector-curvature="0"
       style="fill:#ffffff;fill-rule:evenodd" />
    <path
       d="m 62.86149,140.07527 0.100292,1.42645 -1.182613,-0.7883 -0.288342,0.48799 1.282906,0.64232 -1.282906,0.62981 0.263268,0.48799 1.199329,-0.77579 -0.09193,1.42646 0.597572,0 -0.09611,-1.42646 1.174252,0.77579 0.284164,-0.49634 -1.278728,-0.61311 1.287082,-0.63399 -0.292518,-0.51301 -1.18261,0.79664 0.104469,-1.42645 z"
       id="path129"
       inkscape:connector-curvature="0"
       style="fill:#ffffff;fill-rule:evenodd" />
    <path
       d="m 37.356586,84.26789 0.100292,1.426453 -1.182613,-0.7883 -0.288342,0.487991 1.282906,0.642319 -1.282906,0.629807 0.263268,0.487991 1.199329,-0.775787 -0.09193,1.426452 0.597572,0 -0.09611,-1.426452 1.174255,0.775787 0.284161,-0.496338 -1.278728,-0.613121 1.287086,-0.633972 -0.292519,-0.513024 -1.182613,0.796647 0.104469,-1.426453 z"
       id="path131"
       inkscape:connector-curvature="0"
       style="fill:#ffffff;fill-rule:evenodd" />
    <path
       d="m 106.63329,67.06328 0.1003,1.426445 -1.18261,-0.7883 -0.28835,0.487992 1.28291,0.642318 -1.28291,0.629807 0.26327,0.487999 1.19932,-0.775787 -0.0919,1.426445 0.59758,0 -0.0961,-1.426445 1.17426,0.775787 0.28416,-0.496338 -1.27873,-0.613121 1.28709,-0.63398 -0.29252,-0.513016 -1.18262,0.796639 0.10448,-1.426445 z"
       id="path133"
       inkscape:connector-curvature="0"
       style="fill:#ffffff;fill-rule:evenodd" />
    <path
       d="m 238.36356,84.267395 0.10028,1.426453 -1.1826,-0.7883 -0.28835,0.487991 1.28292,0.642319 -1.28292,0.629807 0.26328,0.487991 1.19932,-0.775787 -0.0919,1.426452 0.59756,0 -0.0961,-1.426452 1.17426,0.775787 0.28416,-0.496338 -1.27872,-0.613121 1.28708,-0.633972 -0.29252,-0.513024 -1.18261,0.796647 0.10446,-1.426453 z"
       id="path135"
       inkscape:connector-curvature="0"
       style="fill:#ffffff;fill-rule:evenodd" />
    <path
       d="m 359.66455,143.6111 0.10028,1.42644 -1.18259,-0.7883 -0.28836,0.48799 1.2829,0.64232 -1.2829,0.6298 0.26328,0.488 1.19934,-0.77578 -0.0919,1.42644 0.59756,0 -0.0961,-1.42644 1.17426,0.77578 0.28415,-0.49633 -1.27872,-0.61313 1.28708,-0.63397 -0.29251,-0.51303 -1.18262,0.79665 0.10446,-1.42644 z"
       id="path137"
       inkscape:connector-curvature="0"
       style="fill:#ffffff;fill-rule:evenodd" />
    <path
       d="m 338.88184,132.6681 0.10028,1.42645 -1.18262,-0.7883 -0.28833,0.48799 1.2829,0.64232 -1.2829,0.62981 0.26328,0.48799 1.19931,-0.77579 -0.0919,1.42646 0.59756,0 -0.0961,-1.42646 1.17426,0.77579 0.28415,-0.49634 -1.27872,-0.61311 1.28708,-0.63399 -0.29251,-0.51301 -1.18262,0.79664 0.10446,-1.42645 z"
       id="path139"
       inkscape:connector-curvature="0"
       style="fill:#ffffff;fill-rule:evenodd" />
    <path
       d="m 253.64212,117.55124 0.1003,1.42645 -1.18262,-0.7883 -0.28833,0.48799 1.2829,0.64232 -1.2829,0.6298 0.26326,0.488 1.19932,-0.77579 -0.0919,1.42645 0.59758,0 -0.0961,-1.42645 1.17426,0.77579 0.28416,-0.49634 -1.27873,-0.61312 1.28708,-0.63398 -0.29251,-0.51301 -1.18262,0.79663 0.10448,-1.42644 z"
       id="path141"
       inkscape:connector-curvature="0"
       style="fill:#ffffff;fill-rule:evenodd" />
    <path
       d="m 266.89508,94.280235 0.10028,1.426445 -1.18262,-0.7883 -0.28833,0.487999 1.2829,0.642319 -1.2829,0.629807 0.26325,0.487991 1.19934,-0.775787 -0.0919,1.426445 0.59756,0 -0.0961,-1.426445 1.17426,0.775787 0.28418,-0.496338 -1.27872,-0.613121 1.28708,-0.633972 -0.29254,-0.513024 -1.18259,0.796639 0.10446,-1.426445 z"
       id="path143"
       inkscape:connector-curvature="0"
       style="fill:#ffffff;fill-rule:evenodd" />
    <path
       d="m 99.95626,143.61072 0.10029,1.42645 -1.182611,-0.7883 -0.288338,0.48799 1.282898,0.64232 -1.282898,0.62981 0.26326,0.48799 1.199329,-0.77579 -0.09193,1.42646 0.59757,0 -0.0961,-1.42646 1.17425,0.77579 0.28417,-0.49634 -1.27873,-0.61311 1.28708,-0.63399 -0.29252,-0.51301 -1.18261,0.79664 0.10447,-1.42645 z"
       id="path145"
       inkscape:connector-curvature="0"
       style="fill:#ffffff;fill-rule:evenodd" />
    <path
       d="m 182.87756,51.941425 0.1003,1.426445 -1.18262,-0.7883 -0.28835,0.487996 1.28292,0.642318 -1.28292,0.629803 0.26328,0.487995 1.19932,-0.775787 -0.0919,1.426449 0.59758,0 -0.0961,-1.426449 1.17426,0.775787 0.28415,-0.496334 -1.27872,-0.613125 1.28708,-0.633976 -0.29251,-0.513019 -1.18262,0.796642 0.10448,-1.426445 z"
       id="path147"
       inkscape:connector-curvature="0"
       style="fill:#ffffff;fill-rule:evenodd" />
    <path
       d="m 142.75801,143.6104 0.1003,1.42645 -1.18262,-0.7883 -0.28835,0.48799 1.28292,0.64232 -1.28292,0.62981 0.26328,0.48799 1.19932,-0.77579 -0.0919,1.42646 0.59758,0 -0.0961,-1.42646 1.17426,0.77579 0.28415,-0.49634 -1.27872,-0.61311 1.28708,-0.63399 -0.29251,-0.51301 -1.18262,0.79664 0.10448,-1.42645 z"
       id="path149"
       inkscape:connector-curvature="0"
       style="fill:#ffffff;fill-rule:evenodd" />
    <path
       d="m 182.878,128.15916 0.10028,1.42644 -1.1826,-0.7883 -0.28835,0.48799 1.2829,0.64232 -1.2829,0.6298 0.26326,0.48801 1.19934,-0.77579 -0.0919,1.42644 0.59756,0 -0.0961,-1.42644 1.17426,0.77579 0.28416,-0.49634 -1.27873,-0.61313 1.28709,-0.63397 -0.29253,-0.51301 -1.1826,0.79663 0.10446,-1.42644 z"
       id="path151"
       inkscape:connector-curvature="0"
       style="fill:#ffffff;fill-rule:evenodd" />
    <path
       d="m 238.34286,139.74104 0.1003,1.42645 -1.18262,-0.7883 -0.28835,0.48799 1.28292,0.64232 -1.28292,0.62981 0.26328,0.48799 1.19932,-0.77579 -0.0919,1.42646 0.59758,0 -0.0961,-1.42646 1.17426,0.77579 0.28415,-0.49634 -1.27872,-0.61311 1.28708,-0.63397 -0.29251,-0.51303 -1.18262,0.79664 0.10448,-1.42645 z"
       id="path153"
       inkscape:connector-curvature="0"
       style="fill:#ffffff;fill-rule:evenodd" />
    <path
       d="m 165.47123,58.699881 26.30514,-23.29061 -0.22592,-0.112949 -28.7705,18.768802 z"
       id="path11-0"
       inkscape:connector-curvature="0"
       style="fill:#00b2ff;fill-opacity:0.56150004;fill-rule:evenodd" />
    <path
       d="m 162.34882,56.331872 0,0 c 0,-1.058297 0.85791,-1.916215 1.91623,-1.916215 l 0,0 c 0.50821,0 0.9956,0.201882 1.35495,0.561241 0.35937,0.359361 0.56125,0.846764 0.56125,1.354974 l 0,0 c 0,1.058295 -0.85791,1.916213 -1.9162,1.916213 l 0,0 c -1.05832,0 -1.91623,-0.857918 -1.91623,-1.916213 z"
       id="path13-7"
       inkscape:connector-curvature="0"
       style="fill:#93ffcf;fill-rule:evenodd" />
    <path
       d="m 162.34882,56.331872 0,0 c 0,-1.058297 0.85791,-1.916215 1.91623,-1.916215 l 0,0 c 0.50821,0 0.9956,0.201882 1.35495,0.561241 0.35937,0.359361 0.56125,0.846764 0.56125,1.354974 l 0,0 c 0,1.058295 -0.85791,1.916213 -1.9162,1.916213 l 0,0 c -1.05832,0 -1.91623,-0.857918 -1.91623,-1.916213 z"
       id="path15-2"
       inkscape:connector-curvature="0"
       style="fill-rule:evenodd;stroke:#38e9d6;stroke-width:0.99999994;stroke-linecap:butt;stroke-linejoin:round" />
  </g>
</svg>
