<svg version="1.1" viewBox="0.0 0.0 382.4698162729659 161.91338582677164" fill="none" stroke="none" stroke-linecap="square" stroke-miterlimit="10" xmlns:xlink="http://www.w3.org/1999/xlink" xmlns="http://www.w3.org/2000/svg"><clipPath id="p.0"><path d="m0 0l382.46982 0l0 161.91339l-382.46982 0l0 -161.91339z" clip-rule="nonzero"/></clipPath><g clip-path="url(#p.0)"><path fill="#000000" d="m0 0l382.46982 0l0 161.91339l-382.46982 0z" fill-rule="evenodd"/><path fill="#00b2ff" fill-opacity="0.5615" d="m331.98755 73.1952l26.305145 -23.290611l-0.22592163 -0.11294937l-28.770508 18.768803z" fill-rule="evenodd"/><path fill="#93ffcf" d="m328.86514 70.82719l0 0c0 -1.0582962 0.85791016 -1.916214 1.9162292 -1.916214l0 0c0.5082092 0 0.99560547 0.20188141 1.35495 0.56124115c0.359375 0.35935974 0.5612488 0.8467636 0.5612488 1.3549728l0 0c0 1.0582962 -0.85791016 1.916214 -1.9161987 1.916214l0 0c-1.0583191 0 -1.9162292 -0.8579178 -1.9162292 -1.916214z" fill-rule="evenodd"/><path stroke="#38e9d6" stroke-width="1.0" stroke-linejoin="round" stroke-linecap="butt" d="m328.86514 70.82719l0 0c0 -1.0582962 0.85791016 -1.916214 1.9162292 -1.916214l0 0c0.5082092 0 0.99560547 0.20188141 1.35495 0.56124115c0.359375 0.35935974 0.5612488 0.8467636 0.5612488 1.3549728l0 0c0 1.0582962 -0.85791016 1.916214 -1.9161987 1.916214l0 0c-1.0583191 0 -1.9162292 -0.8579178 -1.9162292 -1.916214z" fill-rule="evenodd"/><path fill="#00b2ff" fill-opacity="0.5615" d="m302.86267 65.41157l26.305145 -23.290611l-0.22589111 -0.11294937l-28.770538 18.768806z" fill-rule="evenodd"/><path fill="#93ffcf" d="m299.7403 63.043556l0 0c0 -1.0582962 0.85791016 -1.9162178 1.9161987 -1.9162178l0 0c0.5082092 0 0.99560547 0.20188904 1.3549805 0.5612488c0.35934448 0.35935974 0.5612488 0.846756 0.5612488 1.354969l0 0c0 1.0582962 -0.85791016 1.916214 -1.9162292 1.916214l0 0c-1.0582886 0 -1.9161987 -0.8579178 -1.9161987 -1.916214z" fill-rule="evenodd"/><path stroke="#38e9d6" stroke-width="1.0" stroke-linejoin="round" stroke-linecap="butt" d="m299.7403 63.043556l0 0c0 -1.0582962 0.85791016 -1.9162178 1.9161987 -1.9162178l0 0c0.5082092 0 0.99560547 0.20188904 1.3549805 0.5612488c0.35934448 0.35935974 0.5612488 0.846756 0.5612488 1.354969l0 0c0 1.0582962 -0.85791016 1.916214 -1.9162292 1.916214l0 0c-1.0582886 0 -1.9161987 -0.8579178 -1.9161987 -1.916214z" fill-rule="evenodd"/><path fill="#00b2ff" fill-opacity="0.5615" d="m269.8606 56.118725l26.305145 -23.290607l-0.22589111 -0.11294937l-28.770538 18.768803z" fill-rule="evenodd"/><path fill="#93ffcf" d="m266.73822 53.750717l0 0c0 -1.0583 0.85791016 -1.9162178 1.9161987 -1.9162178l0 0c0.5082092 0 0.99560547 0.20188522 1.3549805 0.56124496c0.35934448 0.35936356 0.5612488 0.8467598 0.5612488 1.3549728l0 0c0 1.0582962 -0.85791016 1.9162178 -1.9162292 1.9162178l0 0c-1.0582886 0 -1.9161987 -0.8579216 -1.9161987 -1.9162178z" fill-rule="evenodd"/><path stroke="#38e9d6" stroke-width="1.0" stroke-linejoin="round" stroke-linecap="butt" d="m266.73822 53.750717l0 0c0 -1.0583 0.85791016 -1.9162178 1.9161987 -1.9162178l0 0c0.5082092 0 0.99560547 0.20188522 1.3549805 0.56124496c0.35934448 0.35936356 0.5612488 0.8467598 0.5612488 1.3549728l0 0c0 1.0582962 -0.85791016 1.9162178 -1.9162292 1.9162178l0 0c-1.0582886 0 -1.9161987 -0.8579216 -1.9161987 -1.9162178z" fill-rule="evenodd"/><path fill="#00b2ff" fill-opacity="0.5615" d="m40.306885 63.65773l26.305145 -23.290607l-0.22589111 -0.11294937l-28.770527 18.768803z" fill-rule="evenodd"/><path fill="#93ffcf" d="m37.184498 61.289722l0 0c0 -1.0583 0.8579178 -1.9162178 1.9162178 -1.9162178l0 0c0.50821304 0 0.9956093 0.20188522 1.354969 0.56124496c0.35935974 0.35936356 0.5612488 0.8467598 0.5612488 1.3549728l0 0c0 1.0582962 -0.8579216 1.9162178 -1.9162178 1.9162178l0 0c-1.0583 0 -1.9162178 -0.8579216 -1.9162178 -1.9162178z" fill-rule="evenodd"/><path stroke="#38e9d6" stroke-width="1.0" stroke-linejoin="round" stroke-linecap="butt" d="m37.184498 61.289722l0 0c0 -1.0583 0.8579178 -1.9162178 1.9162178 -1.9162178l0 0c0.50821304 0 0.9956093 0.20188522 1.354969 0.56124496c0.35935974 0.35936356 0.5612488 0.8467598 0.5612488 1.3549728l0 0c0 1.0582962 -0.8579216 1.9162178 -1.9162178 1.9162178l0 0c-1.0583 0 -1.9162178 -0.8579216 -1.9162178 -1.9162178z" fill-rule="evenodd"/><path fill="#ffffff" d="m256.97928 67.06376l0.10028076 1.426445l-1.1826019 -0.78829956l-0.28834534 0.48799896l1.282898 0.6423187l-1.282898 0.6298065l0.26327515 0.48799133l1.1993103 -0.77578735l-0.091918945 1.426445l0.5975647 0l-0.09609985 -1.426445l1.1742554 0.77578735l0.28414917 -0.4963379l-1.278717 -0.61312103l1.2870789 -0.63397217l-0.292511 -0.5130234l-1.1826172 0.7966385l0.10446167 -1.426445z" fill-rule="evenodd"/><path fill="#ffffff" d="m307.77206 39.733833l0.10028076 1.426445l-1.1825867 -0.78829956l-0.2883606 0.48799515l1.2829285 0.6423187l-1.2829285 0.6298065l0.26327515 0.48799515l1.1993408 -0.77578735l-0.09194946 1.426445l0.5975647 0l-0.09609985 -1.426445l1.1742554 0.77578735l0.28414917 -0.4963379l-1.278717 -0.61312103l1.2870789 -0.633976l-0.292511 -0.51301956l-1.1826172 0.7966385l0.10446167 -1.426445z" fill-rule="evenodd"/><path fill="#ffffff" d="m365.76178 35.8868l0.10028076 1.426445l-1.1826172 -0.78829956l-0.28833008 0.48799515l1.282898 0.6423187l-1.282898 0.6298065l0.26327515 0.48799133l1.1993103 -0.77578354l-0.091918945 1.426445l0.5975647 0l-0.09609985 -1.426445l1.1742554 0.77578354l0.28414917 -0.49633408l-1.278717 -0.61312103l1.2870789 -0.633976l-0.292511 -0.5130234l-1.1826172 0.7966423l0.10446167 -1.426445z" fill-rule="evenodd"/><path fill="#ffffff" d="m323.92642 94.280235l0.10031128 1.426445l-1.1826172 -0.78829956l-0.28833008 0.48799133l1.282898 0.6423187l-1.282898 0.6298065l0.26324463 0.48799896l1.1993408 -0.77578735l-0.09194946 1.426445l0.5975952 0l-0.09613037 -1.426445l1.1742554 0.77578735l0.2841797 -0.4963379l-1.2787476 -0.61312103l1.2871094 -0.6339798l-0.2925415 -0.51301575l-1.1826172 0.7966385l0.10449219 -1.426445z" fill-rule="evenodd"/><path fill="#ffffff" d="m136.11859 16.800337l0.10029602 1.426445l-1.1826172 -0.78829956l-0.28833008 0.48799515l1.282898 0.6423187l-1.282898 0.6298046l0.2632599 0.48799515l1.1993256 -0.77578735l-0.091934204 1.4264469l0.59757996 0l-0.09611511 -1.4264469l1.1742554 0.77578735l0.28416443 -0.49633598l-1.2787323 -0.61312294l1.2870941 -0.633976l-0.29252625 -0.51301956l-1.1826172 0.7966404l0.10447693 -1.426445z" fill-rule="evenodd"/><path fill="#ffffff" d="m13.179906 32.4688l0.100292206 1.426445l-1.1826115 -0.78829956l-0.28834057 0.48799515l1.2829046 0.6423187l-1.2829046 0.6298065l0.26326752 0.48799515l1.1993275 -0.77578735l-0.09193516 1.426445l0.5975752 0l-0.09611416 -1.426445l1.1742544 0.77578735l0.28416157 -0.4963379l-1.2787256 -0.61312103l1.2870836 -0.633976l-0.29251957 -0.51301956l-1.1826115 0.7966385l0.10447121 -1.426445z" fill-rule="evenodd"/><path fill="#ffffff" d="m109.648674 1.1720304l0.10028839 1.4264464l-1.1826096 -0.7882993l-0.2883377 0.48799467l1.282898 0.642318l-1.282898 0.6298053l0.2632599 0.4879949l1.1993332 -0.77578664l-0.091934204 1.4264462l0.5975723 0l-0.09611511 -1.4264462l1.1742554 0.77578664l0.28416443 -0.4963367l-1.2787247 -0.61312175l1.2870789 -0.6339762l-0.29251862 -0.51302004l-1.1826096 0.7966411l0.1044693 -1.4264464z" fill-rule="evenodd"/><path fill="#ffffff" d="m139.45802 59.72559l0.10028076 1.426445l-1.1826019 -0.78829956l-0.28834534 0.48799515l1.282898 0.6423187l-1.282898 0.6298065l0.2632599 0.48799515l1.1993408 -0.77578735l-0.091934204 1.426445l0.5975647 0l-0.09611511 -1.426445l1.1742554 0.77578735l0.28416443 -0.4963379l-1.2787323 -0.61312103l1.2870941 -0.633976l-0.29252625 -0.5130234l-1.1826019 0.7966423l0.10446167 -1.426445z" fill-rule="evenodd"/><path fill="#ffffff" d="m343.28168 13.264746l0.10031128 1.426446l-1.1826172 -0.7882986l-0.2883606 0.4879942l1.2829285 0.6423187l-1.2829285 0.6298046l0.26327515 0.4879942l1.1993408 -0.77578545l-0.09194946 1.4264469l0.5975647 0l-0.09609985 -1.4264469l1.1742554 0.77578545l0.28414917 -0.49633598l-1.278717 -0.61312103l1.2870789 -0.63397694l-0.292511 -0.51301956l-1.1826172 0.7966404l0.10446167 -1.426446z" fill-rule="evenodd"/><path fill="#ffffff" d="m303.4168 4.7084723l0.10031128 1.4264464l-1.1826172 -0.7882991l-0.28833008 0.48799467l1.282898 0.64231825l-1.282898 0.6298051l0.26324463 0.48799467l1.1993408 -0.7757864l-0.09194946 1.426446l0.5975952 0l-0.09613037 -1.426446l1.1742554 0.7757864l0.2841797 -0.49633646l-1.2787476 -0.6131215l1.2870789 -0.63397646l-0.292511 -0.51302004l-1.1826172 0.7966409l0.10449219 -1.4264464z" fill-rule="evenodd"/><path fill="#ffffff" d="m394.54752 19.807192l0.10028076 1.4264469l-1.1825867 -0.78829956l-0.2883606 0.48799515l1.282898 0.6423187l-1.282898 0.6298046l0.26327515 0.48799515l1.1993103 -0.77578735l-0.091918945 1.4264469l0.5975647 0l-0.09609985 -1.4264469l1.1742554 0.77578735l0.28414917 -0.4963379l-1.278717 -0.61312103l1.2870789 -0.633976l-0.292511 -0.51301956l-1.1826172 0.7966404l0.10446167 -1.4264469z" fill-rule="evenodd"/><path fill="#ffffff" d="m365.76227 119.95969l0.10031128 1.426445l-1.1826172 -0.78829956l-0.2883606 0.48799896l1.2829285 0.6423111l-1.2829285 0.6298065l0.26327515 0.48799896l1.1993408 -0.77578735l-0.09194946 1.426445l0.5975952 0l-0.09613037 -1.426445l1.1742554 0.77578735l0.28414917 -0.4963379l-1.278717 -0.61312103l1.2870789 -0.6339798l-0.292511 -0.51301575l-1.1826172 0.7966385l0.10449219 -1.426445z" fill-rule="evenodd"/><path fill="#ffffff" d="m365.7613 79.18833l0.10028076 1.4264526l-1.1826172 -0.78829956l-0.28833008 0.48799133l1.282898 0.6423187l-1.282898 0.6298065l0.26327515 0.48799133l1.1993103 -0.77578735l-0.091918945 1.4264526l0.5975647 0l-0.09609985 -1.4264526l1.1742554 0.77578735l0.28414917 -0.49633026l-1.278717 -0.61312866l1.2870789 -0.63397217l-0.292511 -0.5130234l-1.1826172 0.7966461l0.10446167 -1.4264526z" fill-rule="evenodd"/><path fill="#ffffff" d="m261.97092 19.80755l0.10028076 1.4264469l-1.1826172 -0.78829956l-0.28833008 0.48799515l1.282898 0.6423168l-1.282898 0.6298065l0.26327515 0.48799515l1.1993103 -0.77578735l-0.091918945 1.4264469l0.5975647 0l-0.09609985 -1.4264469l1.1742554 0.77578735l0.28414917 -0.4963379l-1.278717 -0.61312103l1.2870789 -0.633976l-0.292511 -0.51302147l-1.1826172 0.7966423l0.10446167 -1.4264469z" fill-rule="evenodd"/><path fill="#ffffff" d="m235.0035 1.1715032l0.10029602 1.4264463l-1.1826172 -0.7882993l-0.28834534 0.4879949l1.2829132 0.642318l-1.2829132 0.6298053l0.26327515 0.48799467l1.1993256 -0.77578664l-0.091934204 1.4264467l0.5975647 0l-0.09609985 -1.4264467l1.1742401 0.77578664l0.28416443 -0.49633646l-1.278717 -0.61312175l1.2870789 -0.6339762l-0.29252625 -0.5130203l-1.1826019 0.7966411l0.10446167 -1.4264463z" fill-rule="evenodd"/><path fill="#ffffff" d="m37.356552 13.264452l0.100292206 1.426446l-1.1826096 -0.78829956l-0.28834152 0.48799515l1.2829056 0.6423178l-1.2829056 0.62980556l0.26326752 0.4879942l1.1993256 -0.7757864l-0.091934204 1.426446l0.59757614 0l-0.09611511 -1.426446l1.1742554 0.7757864l0.2841606 -0.49633598l-1.2787247 -0.613122l1.2870827 -0.633976l-0.29251862 -0.5130205l-1.1826134 0.79664135l0.104473114 -1.426446z" fill-rule="evenodd"/><path fill="#ffffff" d="m62.859768 21.369656l0.100292206 1.4264469l-1.1826134 -0.78829956l-0.2883377 0.48799515l1.2829018 0.6423187l-1.2829018 0.6298046l0.26326752 0.48799515l1.1993256 -0.77578735l-0.091934204 1.4264469l0.59757614 0l-0.09611511 -1.4264469l1.1742554 0.77578735l0.28416443 -0.4963379l-1.2787285 -0.61312103l1.2870827 -0.633976l-0.29251862 -0.51301956l-1.1826134 0.7966404l0.104473114 -1.4264469z" fill-rule="evenodd"/><path fill="#ffffff" d="m70.59492 67.0639l0.10028839 1.426445l-1.1826096 -0.78829956l-0.2883377 0.48799133l1.2829056 0.6423187l-1.2829056 0.6298065l0.26326752 0.48799896l1.1993256 -0.77578735l-0.091934204 1.426445l0.5975723 0l-0.09611511 -1.426445l1.1742554 0.77578735l0.28416443 -0.4963379l-1.2787247 -0.61312103l1.2870789 -0.6339798l-0.29251862 -0.51301575l-1.1826096 0.7966385l0.1044693 -1.426445z" fill-rule="evenodd"/><path fill="#ffffff" d="m184.89542 16.393316l0.10029602 1.4264469l-1.1826172 -0.78829956l-0.28833008 0.48799515l1.282898 0.6423168l-1.282898 0.6298065l0.2632599 0.48799515l1.1993256 -0.77578735l-0.091934204 1.4264469l0.59757996 0l-0.09611511 -1.4264469l1.1742554 0.77578735l0.28416443 -0.4963379l-1.2787323 -0.61312103l1.2870941 -0.633976l-0.29252625 -0.51302147l-1.1826172 0.7966423l0.10447693 -1.4264469z" fill-rule="evenodd"/><path fill="#ffffff" d="m146.0927 35.88725l0.10028076 1.4264488l-1.1826019 -0.78829956l-0.28834534 0.48799515l1.282898 0.6423149l-1.282898 0.6298065l0.2632599 0.48799515l1.1993408 -0.77578735l-0.091934204 1.426445l0.5975647 0l-0.09611511 -1.426445l1.1742554 0.77578735l0.28416443 -0.4963379l-1.2787323 -0.61312103l1.2870941 -0.633976l-0.29252625 -0.51301956l-1.1826019 0.7966423l0.10446167 -1.4264488z" fill-rule="evenodd"/><path fill="#ffffff" d="m207.58717 44.67088l0.10029602 1.4264488l-1.1826172 -0.78829956l-0.28833008 0.48799515l1.282898 0.6423149l-1.282898 0.6298065l0.2632599 0.48799515l1.1993256 -0.77578735l-0.091934204 1.4264488l0.59757996 0l-0.09611511 -1.4264488l1.1742554 0.77578735l0.28416443 -0.4963379l-1.2787323 -0.61312103l1.2870789 -0.633976l-0.292511 -0.51301956l-1.1826172 0.7966423l0.10447693 -1.4264488z" fill-rule="evenodd"/><path fill="#ffffff" d="m269.72455 35.886723l0.10031128 1.426445l-1.1826172 -0.78829956l-0.2883606 0.48799515l1.2829285 0.6423187l-1.2829285 0.6298065l0.26327515 0.48799515l1.1993408 -0.77578735l-0.09194946 1.426445l0.5975952 0l-0.09613037 -1.426445l1.1742554 0.77578735l0.28414917 -0.4963379l-1.278717 -0.61312103l1.2870789 -0.633976l-0.292511 -0.51301956l-1.1826172 0.7966385l0.10449219 -1.426445z" fill-rule="evenodd"/><path fill="#ffffff" d="m9.842025 132.6692l0.100292206 1.4264526l-1.1826124 -0.78829956l-0.2883396 0.48799133l1.2829037 0.6423187l-1.2829037 0.6298065l0.26326656 0.48799133l1.1993275 -0.77578735l-0.091934204 1.4264526l0.59757423 0l-0.096113205 -1.4264526l1.1742544 0.77578735l0.28416157 -0.4963379l-1.2787256 -0.6131134l1.2870827 -0.6339874l-0.29251862 -0.51301575l-1.1826124 0.7966461l0.10447121 -1.4264526z" fill-rule="evenodd"/><path fill="#ffffff" d="m62.85901 111.40368l0.100292206 1.426445l-1.1826134 -0.78829956l-0.2883377 0.48799133l1.2829018 0.6423187l-1.2829018 0.6298065l0.2632637 0.48799896l1.1993294 -0.77578735l-0.091934204 1.426445l0.5975723 0l-0.0961113 -1.426445l1.1742516 0.77578735l0.28416443 -0.4963379l-1.2787247 -0.61312103l1.2870789 -0.6339798l-0.29251862 -0.5130234l-1.1826096 0.7966461l0.1044693 -1.426445z" fill-rule="evenodd"/><path fill="#ffffff" d="m167.6258 81.682556l0.10029602 1.426445l-1.1826172 -0.78829956l-0.28834534 0.48799133l1.2829132 0.6423187l-1.2829132 0.6298065l0.26327515 0.48799133l1.1993256 -0.77578735l-0.091934204 1.4264526l0.59757996 0l-0.09611511 -1.4264526l1.1742554 0.77578735l0.28414917 -0.49633026l-1.278717 -0.61312866l1.2870789 -0.63397217l-0.292511 -0.5130234l-1.1826172 0.7966461l0.10447693 -1.426445z" fill-rule="evenodd"/><path fill="#ffffff" d="m2.599666 97.8159l0.100292206 1.426445l-1.1826123 -0.78829956l-0.2883401 0.48799133l1.2829045 0.6423187l-1.2829045 0.6298065l0.26326704 0.48799133l1.1993276 -0.77578735l-0.09193444 1.4264526l0.59757423 0l-0.096113205 -1.4264526l1.1742544 0.77578735l0.2841611 -0.49633026l-1.2787254 -0.61312866l1.2870834 -0.63397217l-0.2925191 -0.5130234l-1.1826122 0.7966461l0.10447097 -1.426445z" fill-rule="evenodd"/><path fill="#ffffff" d="m84.34977 42.64705l0.10028839 1.426445l-1.1826096 -0.78829956l-0.2883377 0.48799515l1.2829056 0.6423187l-1.2829056 0.6298065l0.26326752 0.48799515l1.1993256 -0.77578735l-0.091934204 1.426445l0.5975723 0l-0.09611511 -1.426445l1.1742554 0.77578735l0.28416443 -0.4963379l-1.2787247 -0.61312103l1.2870789 -0.633976l-0.29251862 -0.5130234l-1.1826096 0.7966423l0.1044693 -1.426445z" fill-rule="evenodd"/><path fill="#ffffff" d="m159.07568 108.56925l0.10029602 1.426445l-1.1826172 -0.78829956l-0.28834534 0.48799896l1.2829132 0.6423187l-1.2829132 0.6298065l0.26327515 0.48799133l1.1993256 -0.77578735l-0.091934204 1.426445l0.59757996 0l-0.09611511 -1.426445l1.1742554 0.77578735l0.28414917 -0.4963379l-1.278717 -0.61312103l1.2870789 -0.63397217l-0.292511 -0.5130234l-1.1826172 0.7966385l0.10447693 -1.426445z" fill-rule="evenodd"/><path fill="#ffffff" d="m207.58633 79.18817l0.10029602 1.426445l-1.1826172 -0.78829956l-0.28834534 0.48799133l1.2829132 0.6423187l-1.2829132 0.6298065l0.26327515 0.48799896l1.1993256 -0.77578735l-0.091934204 1.426445l0.5975647 0l-0.09609985 -1.426445l1.1742401 0.77578735l0.28416443 -0.4963379l-1.278717 -0.61312103l1.2870789 -0.6339798l-0.29252625 -0.51301575l-1.1826019 0.7966385l0.10446167 -1.426445z" fill-rule="evenodd"/><path fill="#ffffff" d="m318.4469 139.74031l0.10028076 1.4264374l-1.1826172 -0.78829956l-0.28833008 0.4880066l1.282898 0.6423187l-1.282898 0.6298065l0.26327515 0.48799133l1.1993103 -0.77578735l-0.091918945 1.4264374l0.5975647 0l-0.09609985 -1.4264374l1.1742554 0.77578735l0.28414917 -0.4963379l-1.278717 -0.61312866l1.2870789 -0.63397217l-0.292511 -0.51301575l-1.1826172 0.79663086l0.10446167 -1.4264374z" fill-rule="evenodd"/><path fill="#ffffff" d="m297.53677 108.56875l0.10028076 1.4264526l-1.1826172 -0.78829956l-0.28833008 0.48799133l1.282898 0.6423187l-1.282898 0.6298065l0.26327515 0.48799133l1.1993103 -0.77578735l-0.091918945 1.4264526l0.5975647 0l-0.09609985 -1.4264526l1.1742554 0.77578735l0.28414917 -0.4963379l-1.278717 -0.61312103l1.2870789 -0.63397217l-0.292511 -0.5130234l-1.1826172 0.7966461l0.10446167 -1.4264526z" fill-rule="evenodd"/><path fill="#ffffff" d="m338.88242 55.47708l0.10028076 1.426445l-1.1826172 -0.78829956l-0.28833008 0.48799515l1.282898 0.6423187l-1.282898 0.6298065l0.26327515 0.48799133l1.1993103 -0.77578354l-0.091918945 1.426445l0.5975647 0l-0.09609985 -1.426445l1.1742554 0.77578354l0.28414917 -0.49633408l-1.278717 -0.61312103l1.2870789 -0.633976l-0.292511 -0.5130234l-1.1826172 0.7966423l0.10446167 -1.426445z" fill-rule="evenodd"/><path fill="#ffffff" d="m436.40033 124.6229l0.10028076 1.426445l-1.1826172 -0.78829193l-0.28833008 0.48799133l1.282898 0.6423187l-1.282898 0.6298065l0.26327515 0.48799133l1.1993103 -0.77578735l-0.091918945 1.426445l0.5975647 0l-0.09609985 -1.426445l1.1742249 0.77578735l0.2841797 -0.4963379l-1.278717 -0.61312103l1.2870789 -0.63397217l-0.2925415 -0.5130234l-1.1825867 0.7966385l0.10446167 -1.426445z" fill-rule="evenodd"/><path fill="#ffffff" d="m345.55356 97.81588l0.10031128 1.426445l-1.1826172 -0.78829956l-0.28833008 0.48799896l1.282898 0.6423187l-1.282898 0.6297989l0.26324463 0.48799896l1.1993408 -0.77578735l-0.09194946 1.426445l0.5975952 0l-0.09613037 -1.426445l1.1742554 0.77578735l0.2841797 -0.4963379l-1.2787476 -0.61312103l1.2871094 -0.6339798l-0.2925415 -0.51301575l-1.1826172 0.7966385l0.10449219 -1.426445z" fill-rule="evenodd"/><path fill="#ffffff" d="m284.06323 136.20369l0.10031128 1.4264374l-1.1826172 -0.78829956l-0.28833008 0.4880066l1.282898 0.64230347l-1.282898 0.6298065l0.26324463 0.4880066l1.1993408 -0.77578735l-0.09194946 1.4264374l0.5975952 0l-0.09613037 -1.4264374l1.1742554 0.77578735l0.2841797 -0.4963379l-1.2787476 -0.61312866l1.2871094 -0.63397217l-0.2925415 -0.51301575l-1.1826172 0.79663086l0.10449219 -1.4264374z" fill-rule="evenodd"/><path fill="#ffffff" d="m81.01314 90.33516l0.10029602 1.426445l-1.1826172 -0.78829956l-0.2883377 0.48799133l1.2829056 0.6423187l-1.2829056 0.6298065l0.26326752 0.48799896l1.1993256 -0.77578735l-0.091934204 1.426445l0.5975723 0l-0.09610748 -1.426445l1.1742477 0.77578735l0.28416443 -0.4963379l-1.2787247 -0.61312103l1.2870789 -0.6339798l-0.29251862 -0.51301575l-1.1826096 0.7966385l0.1044693 -1.426445z" fill-rule="evenodd"/><path fill="#ffffff" d="m188.23386 97.81611l0.10029602 1.4264526l-1.1826172 -0.78829956l-0.28833008 0.48799133l1.282898 0.6423187l-1.282898 0.6298065l0.2632599 0.48799133l1.1993256 -0.77578735l-0.091934204 1.426445l0.59757996 0l-0.09611511 -1.426445l1.1742554 0.77578735l0.28416443 -0.4963379l-1.2787323 -0.61312103l1.2870941 -0.63397217l-0.29252625 -0.5130234l-1.1826172 0.7966461l0.10447693 -1.4264526z" fill-rule="evenodd"/><path fill="#ffffff" d="m128.83743 90.33549l0.10028076 1.4264526l-1.1826019 -0.78829956l-0.28834534 0.48799133l1.2829132 0.6423187l-1.2829132 0.6298065l0.26326752 0.48799133l1.1993332 -0.77578735l-0.091934204 1.426445l0.5975647 0l-0.09611511 -1.426445l1.1742554 0.77578735l0.28416443 -0.4963379l-1.278717 -0.61312103l1.2870789 -0.63397217l-0.29252625 -0.5130234l-1.1826019 0.7966461l0.10446167 -1.4264526z" fill-rule="evenodd"/><path fill="#ffffff" d="m103.29437 114.936325l0.10029602 1.426445l-1.1826172 -0.78829956l-0.2883377 0.48799133l1.2829056 0.6423187l-1.2829056 0.6298065l0.26326752 0.48799133l1.1993256 -0.77578735l-0.091934204 1.4264526l0.5975723 0l-0.09610748 -1.4264526l1.1742554 0.77578735l0.2841568 -0.49633026l-1.2787247 -0.61312866l1.2870865 -0.63397217l-0.29251862 -0.5130234l-1.1826172 0.7966461l0.1044693 -1.426445z" fill-rule="evenodd"/><path fill="#ffffff" d="m238.34212 51.941177l0.10029602 1.426445l-1.1826172 -0.78829956l-0.28834534 0.48799515l1.2829132 0.6423187l-1.2829132 0.6298065l0.26327515 0.48799515l1.1993256 -0.77578735l-0.091934204 1.426445l0.59757996 0l-0.09611511 -1.426445l1.1742554 0.77578735l0.28416443 -0.4963379l-1.2787323 -0.61312103l1.2870789 -0.633976l-0.292511 -0.51301956l-1.1826172 0.7966385l0.10447693 -1.426445z" fill-rule="evenodd"/><path fill="#ffffff" d="m223.11926 21.36907l0.10029602 1.4264469l-1.1826172 -0.78829956l-0.28834534 0.48799515l1.2829132 0.6423168l-1.2829132 0.6298065l0.26327515 0.48799515l1.1993256 -0.77578735l-0.091934204 1.4264469l0.59757996 0l-0.09611511 -1.4264469l1.1742554 0.77578735l0.28414917 -0.4963379l-1.278717 -0.61312103l1.2870789 -0.633976l-0.292511 -0.51302147l-1.1826172 0.7966423l0.10447693 -1.4264469z" fill-rule="evenodd"/><path fill="#ffffff" d="m210.92479 136.20502l0.10029602 1.4264526l-1.1826019 -0.78829956l-0.28834534 0.48799133l1.282898 0.6423187l-1.282898 0.6298065l0.2632599 0.48799133l1.1993408 -0.77578735l-0.09194946 1.4264526l0.59757996 0l-0.09611511 -1.4264526l1.1742554 0.77578735l0.28416443 -0.49632263l-1.2787323 -0.61312866l1.2870941 -0.63397217l-0.29252625 -0.513031l-1.1826019 0.7966461l0.10446167 -1.4264526z" fill-rule="evenodd"/><path fill="#ffffff" d="m30.223473 117.55106l0.100292206 1.426445l-1.1826134 -0.78829956l-0.2883396 0.48799896l1.2829037 0.6423187l-1.2829037 0.6298065l0.26326752 0.48799133l1.1993275 -0.77578735l-0.091934204 1.426445l0.59757423 0l-0.096113205 -1.426445l1.1742535 0.77578735l0.28416252 -0.4963379l-1.2787266 -0.61312103l1.2870846 -0.63397217l-0.29252052 -0.5130234l-1.1826115 0.7966385l0.10447121 -1.426445z" fill-rule="evenodd"/><path fill="#ffffff" d="m300.39313 82.287575l0.10028076 1.426445l-1.1826172 -0.78829193l-0.28833008 0.48799133l1.282898 0.6423187l-1.282898 0.6298065l0.26327515 0.48799133l1.1993103 -0.77578735l-0.091918945 1.426445l0.5975647 0l-0.09609985 -1.426445l1.1742554 0.77578735l0.28414917 -0.4963379l-1.278717 -0.61312103l1.2870789 -0.63397217l-0.292511 -0.5130234l-1.1826172 0.7966385l0.10446167 -1.426445z" fill-rule="evenodd"/><path fill="#ffffff" d="m125.50033 117.55132l0.10028839 1.426445l-1.1826096 -0.78829956l-0.2883377 0.48799896l1.2829056 0.6423187l-1.2829056 0.6298065l0.26326752 0.48799133l1.1993256 -0.77578735l-0.091934204 1.426445l0.5975723 0l-0.09611511 -1.426445l1.1742554 0.77578735l0.28416443 -0.4963379l-1.2787247 -0.61312103l1.2870789 -0.63397217l-0.29251862 -0.5130234l-1.1826096 0.7966385l0.1044693 -1.426445z" fill-rule="evenodd"/><path fill="#ffffff" d="m210.92567 101.3507l0.10028076 1.426445l-1.1826019 -0.78829956l-0.28834534 0.48799133l1.282898 0.6423187l-1.282898 0.6298065l0.26327515 0.48799896l1.1993256 -0.77578735l-0.091934204 1.426445l0.5975647 0l-0.09611511 -1.426445l1.1742554 0.77578735l0.28416443 -0.4963379l-1.278717 -0.61312103l1.2870789 -0.6339798l-0.29252625 -0.51301575l-1.1826019 0.7966385l0.10446167 -1.426445z" fill-rule="evenodd"/><path fill="#ffffff" d="m2.6010358 177.89908l0.100292206 1.4264374l-1.1826122 -0.78829956l-0.2883401 0.4880066l1.2829044 0.6423187l-1.2829044 0.62979126l0.26326704 0.4880066l1.1993277 -0.77578735l-0.09193468 1.4264374l0.5975745 0l-0.09611344 -1.4264374l1.1742547 0.77578735l0.2841611 -0.4963379l-1.2787254 -0.61312866l1.2870834 -0.63397217l-0.2925191 -0.51301575l-1.1826122 0.79663086l0.10447097 -1.4264374z" fill-rule="evenodd"/><path fill="#ffffff" d="m62.86149 140.07527l0.100292206 1.4264526l-1.1826134 -0.78829956l-0.28834152 0.48799133l1.2829056 0.6423187l-1.2829056 0.6298065l0.26326752 0.48799133l1.1993294 -0.77578735l-0.091934204 1.4264526l0.5975723 0l-0.0961113 -1.4264526l1.1742516 0.77578735l0.28416443 -0.4963379l-1.2787285 -0.6131134l1.2870827 -0.6339874l-0.29251862 -0.51301575l-1.1826096 0.7966461l0.1044693 -1.4264526z" fill-rule="evenodd"/><path fill="#ffffff" d="m37.356586 84.26789l0.100292206 1.4264526l-1.1826134 -0.78829956l-0.28834152 0.48799133l1.2829056 0.6423187l-1.2829056 0.6298065l0.26326752 0.48799133l1.1993294 -0.77578735l-0.091934204 1.4264526l0.5975723 0l-0.0961113 -1.4264526l1.1742554 0.77578735l0.2841606 -0.4963379l-1.2787285 -0.61312103l1.2870865 -0.63397217l-0.29251862 -0.5130234l-1.1826134 0.7966461l0.1044693 -1.4264526z" fill-rule="evenodd"/><path fill="#ffffff" d="m106.63329 67.06328l0.10029602 1.426445l-1.1826096 -0.78829956l-0.28834534 0.48799133l1.2829056 0.6423187l-1.2829056 0.6298065l0.26326752 0.48799896l1.1993256 -0.77578735l-0.091934204 1.426445l0.59757996 0l-0.09611511 -1.426445l1.1742554 0.77578735l0.2841568 -0.4963379l-1.2787247 -0.61312103l1.2870865 -0.6339798l-0.29251862 -0.51301575l-1.1826172 0.7966385l0.10447693 -1.426445z" fill-rule="evenodd"/><path fill="#ffffff" d="m238.36356 84.267395l0.10028076 1.4264526l-1.1826019 -0.78829956l-0.28834534 0.48799133l1.2829132 0.6423187l-1.2829132 0.6298065l0.26327515 0.48799133l1.1993256 -0.77578735l-0.091934204 1.4264526l0.5975647 0l-0.09611511 -1.4264526l1.1742554 0.77578735l0.28416443 -0.4963379l-1.278717 -0.61312103l1.2870789 -0.63397217l-0.29252625 -0.5130234l-1.1826019 0.7966461l0.10446167 -1.4264526z" fill-rule="evenodd"/><path fill="#ffffff" d="m359.66455 143.6111l0.10028076 1.4264374l-1.1825867 -0.78829956l-0.2883606 0.48799133l1.282898 0.6423187l-1.282898 0.6298065l0.26327515 0.48799133l1.1993408 -0.7757721l-0.09194946 1.4264374l0.5975647 0l-0.09609985 -1.4264374l1.1742554 0.7757721l0.28414917 -0.49632263l-1.278717 -0.61312866l1.2870789 -0.63397217l-0.292511 -0.513031l-1.1826172 0.7966461l0.10446167 -1.4264374z" fill-rule="evenodd"/><path fill="#ffffff" d="m338.88184 132.6681l0.10028076 1.4264526l-1.1826172 -0.78829956l-0.28833008 0.48799133l1.282898 0.6423187l-1.282898 0.6298065l0.26327515 0.48799133l1.1993103 -0.77578735l-0.091918945 1.4264526l0.5975647 0l-0.09609985 -1.4264526l1.1742554 0.77578735l0.28414917 -0.4963379l-1.278717 -0.6131134l1.2870789 -0.6339874l-0.292511 -0.51301575l-1.1826172 0.7966461l0.10446167 -1.4264526z" fill-rule="evenodd"/><path fill="#ffffff" d="m253.64212 117.55124l0.10029602 1.426445l-1.1826172 -0.78829956l-0.28833008 0.48799133l1.282898 0.6423187l-1.282898 0.6298065l0.2632599 0.48799896l1.1993256 -0.77578735l-0.091934204 1.426445l0.59757996 0l-0.09611511 -1.426445l1.1742554 0.77578735l0.28416443 -0.4963379l-1.2787323 -0.61312103l1.2870789 -0.6339798l-0.292511 -0.51301575l-1.1826172 0.7966385l0.10447693 -1.426445z" fill-rule="evenodd"/><path fill="#ffffff" d="m266.89508 94.280235l0.10028076 1.426445l-1.1826172 -0.78829956l-0.28833008 0.48799896l1.282898 0.6423187l-1.282898 0.6298065l0.26324463 0.48799133l1.1993408 -0.77578735l-0.091918945 1.426445l0.5975647 0l-0.09613037 -1.426445l1.1742554 0.77578735l0.2841797 -0.4963379l-1.278717 -0.61312103l1.2870789 -0.63397217l-0.2925415 -0.5130234l-1.1825867 0.7966385l0.10446167 -1.426445z" fill-rule="evenodd"/><path fill="#ffffff" d="m99.95626 143.61072l0.10028839 1.4264526l-1.1826096 -0.78829956l-0.2883377 0.48799133l1.282898 0.6423187l-1.282898 0.6298065l0.2632599 0.48799133l1.1993332 -0.77578735l-0.091934204 1.4264526l0.5975723 0l-0.09611511 -1.4264526l1.1742554 0.77578735l0.28416443 -0.4963379l-1.2787247 -0.6131134l1.2870789 -0.6339874l-0.29251862 -0.51301575l-1.1826096 0.7966461l0.1044693 -1.4264526z" fill-rule="evenodd"/><path fill="#ffffff" d="m182.87756 51.941425l0.10029602 1.426445l-1.1826172 -0.78829956l-0.28834534 0.48799515l1.2829132 0.6423187l-1.2829132 0.6298027l0.26327515 0.48799515l1.1993256 -0.77578735l-0.091934204 1.4264488l0.59757996 0l-0.09611511 -1.4264488l1.1742554 0.77578735l0.28414917 -0.49633408l-1.278717 -0.61312485l1.2870789 -0.633976l-0.292511 -0.51301956l-1.1826172 0.7966423l0.10447693 -1.426445z" fill-rule="evenodd"/><path fill="#ffffff" d="m142.75801 143.6104l0.10029602 1.4264526l-1.1826172 -0.78829956l-0.28834534 0.48799133l1.2829132 0.6423187l-1.2829132 0.6298065l0.26327515 0.48799133l1.1993256 -0.77578735l-0.091934204 1.4264526l0.59757996 0l-0.09611511 -1.4264526l1.1742554 0.77578735l0.28414917 -0.4963379l-1.278717 -0.6131134l1.2870789 -0.6339874l-0.292511 -0.51301575l-1.1826172 0.7966461l0.10447693 -1.4264526z" fill-rule="evenodd"/><path fill="#ffffff" d="m182.878 128.15916l0.10028076 1.4264374l-1.1826019 -0.78829956l-0.28834534 0.48799133l1.282898 0.6423187l-1.282898 0.6298065l0.2632599 0.4880066l1.1993408 -0.77578735l-0.091934204 1.4264374l0.5975647 0l-0.09611511 -1.4264374l1.1742554 0.77578735l0.28416443 -0.4963379l-1.2787323 -0.61312866l1.2870941 -0.63397217l-0.29252625 -0.51301575l-1.1826019 0.79663086l0.10446167 -1.4264374z" fill-rule="evenodd"/><path fill="#ffffff" d="m238.34286 139.74104l0.10029602 1.4264526l-1.1826172 -0.78829956l-0.28834534 0.48799133l1.2829132 0.6423187l-1.2829132 0.6298065l0.26327515 0.48799133l1.1993256 -0.77578735l-0.091934204 1.4264526l0.59757996 0l-0.09611511 -1.4264526l1.1742554 0.77578735l0.28414917 -0.4963379l-1.278717 -0.6131134l1.2870789 -0.63397217l-0.292511 -0.513031l-1.1826172 0.7966461l0.10447693 -1.4264526z" fill-rule="evenodd"/></g></svg>