<?xml version="1.0" encoding="UTF-8" standalone="no"?>
<svg
   xmlns:dc="http://purl.org/dc/elements/1.1/"
   xmlns:cc="http://creativecommons.org/ns#"
   xmlns:rdf="http://www.w3.org/1999/02/22-rdf-syntax-ns#"
   xmlns:svg="http://www.w3.org/2000/svg"
   xmlns="http://www.w3.org/2000/svg"
   xmlns:sodipodi="http://sodipodi.sourceforge.net/DTD/sodipodi-0.dtd"
   xmlns:inkscape="http://www.inkscape.org/namespaces/inkscape"
   version="1.1"
   viewBox="0.0 0.0 300.0 127.0"
   fill="none"
   stroke="none"
   stroke-linecap="square"
   stroke-miterlimit="10"
   id="svg2"
   inkscape:version="0.91 r13725"
   sodipodi:docname="starfade.svg">
  <metadata
     id="metadata69">
    <rdf:RDF>
      <cc:Work
         rdf:about="">
        <dc:format>image/svg+xml</dc:format>
        <dc:type
           rdf:resource="http://purl.org/dc/dcmitype/StillImage" />
      </cc:Work>
    </rdf:RDF>
  </metadata>
  <defs
     id="defs67" />
  <sodipodi:namedview
     pagecolor="#ffffff"
     bordercolor="#666666"
     borderopacity="1"
     objecttolerance="10"
     gridtolerance="10"
     guidetolerance="10"
     inkscape:pageopacity="0"
     inkscape:pageshadow="2"
     inkscape:window-width="1600"
     inkscape:window-height="838"
     id="namedview65"
     showgrid="false"
     inkscape:zoom="3.84"
     inkscape:cx="167.0929"
     inkscape:cy="53.622039"
     inkscape:window-x="-8"
     inkscape:window-y="-8"
     inkscape:window-maximized="1"
     inkscape:current-layer="svg2" />
  <clipPath
     id="p.0">
    <path
       d="m0 0l300.0 0l0 127.0l-300.0 0l0 -127.0z"
       clip-rule="nonzero"
       id="path5" />
  </clipPath>
  <g
     clip-path="url(#p.0)"
     id="g7"
     transform="matrix(1.006138,0,0,0.927503,-1.0732606,25)">
    <path
       d="m 0,0 300,0 0,127 -300,0 z"
       id="path9"
       inkscape:connector-curvature="0"
       style="fill:#000000;fill-rule:evenodd" />
    <path
       d="m 19.040909,5.3386993 0.04622,0.6574497 -0.544973,-0.3633275 -0.132874,0.2249169 0.59119,0.2960449 -0.59119,0.2902774 0.121319,0.224917 0.552677,-0.3575607 -0.04237,0.6574497 0.275375,0 -0.04429,-0.6574497 0.54112,0.3575607 L 19.94406,6.440216 19.354797,6.157628 19.947913,5.8654279 19.813113,5.6289768 19.26814,5.996149 19.31628,5.3386993 Z"
       id="path11"
       inkscape:connector-curvature="0"
       style="fill:#ffffff;fill-rule:evenodd" />
    <path
       d="m 53.618336,41.189095 0.04622,0.657448 -0.544975,-0.363327 -0.132874,0.224918 0.59119,0.296044 -0.59119,0.290275 0.121319,0.224918 0.552677,-0.357559 -0.04237,0.657448 0.275375,0 -0.04429,-0.657448 0.541118,0.357559 0.130947,-0.228759 -0.589263,-0.282589 0.593116,-0.292202 -0.1348,-0.23645 -0.544971,0.367172 0.04814,-0.657448 z"
       id="path13"
       inkscape:connector-curvature="0"
       style="fill:#ffffff;fill-rule:evenodd" />
    <path
       d="m 9.012037,26.724525 0.046217,0.65745 -0.5449724,-0.363327 -0.1328736,0.224916 0.5911894,0.296045 -0.5911894,0.290278 0.1213188,0.224916 0.5526762,-0.357559 -0.042366,0.65745 0.2753754,0 -0.044291,-0.65745 0.5411215,0.357559 0.1309481,-0.228761 -0.5892639,-0.282587 0.5931148,-0.2922 -0.134799,-0.236453 -0.5449724,0.367173 0.048142,-0.65745 z"
       id="path15"
       inkscape:connector-curvature="0"
       style="fill:#ffffff;fill-rule:evenodd" />
    <path
       d="m 55.156395,10.165471 0.04621,0.65745 -0.544971,-0.363327 -0.132874,0.224916 0.59119,0.296044 -0.59119,0.290278 0.121319,0.224917 0.552677,-0.35756 -0.04237,0.657449 0.275375,0 -0.04429,-0.657449 0.541122,0.35756 0.130947,-0.228761 -0.589263,-0.282588 0.593116,-0.2922 -0.1348,-0.236452 -0.544971,0.367173 0.04814,-0.65745 z"
       id="path17"
       inkscape:connector-curvature="0"
       style="fill:#ffffff;fill-rule:evenodd" />
    <path
       d="m 94.77057,6.968621 0.04622,0.6574497 -0.544975,-0.3633275 -0.132874,0.2249169 0.591187,0.2960444 -0.591187,0.2902779 0.121315,0.2249165 0.552681,-0.3575602 -0.04237,0.6574497 0.275375,0 -0.0443,-0.6574497 0.541123,0.3575602 0.13095,-0.2287617 -0.589263,-0.282588 0.593116,-0.2921996 -0.134803,-0.2364511 -0.544968,0.3671722 0.04814,-0.6574497 z"
       id="path19"
       inkscape:connector-curvature="0"
       style="fill:#ffffff;fill-rule:evenodd" />
    <path
       d="m 35.04091,21.3387 0.04622,0.65745 -0.544971,-0.363327 -0.132874,0.224916 0.59119,0.296045 -0.59119,0.290278 0.121319,0.224916 0.552677,-0.357561 -0.04237,0.65745 0.275375,0 -0.04429,-0.65745 0.541122,0.357561 0.130947,-0.228761 -0.589263,-0.282589 0.593116,-0.292198 -0.1348,-0.236453 -0.544971,0.367173 0.04814,-0.65745 z"
       id="path21"
       inkscape:connector-curvature="0"
       style="fill:#ffffff;fill-rule:evenodd" />
    <path
       d="m 73.86506,19.708778 0.04621,0.65745 -0.544967,-0.363327 -0.132874,0.224916 0.591187,0.296045 -0.591187,0.290276 0.121315,0.224918 0.552681,-0.357561 -0.04237,0.65745 0.275375,0 -0.0443,-0.65745 0.541123,0.357561 0.13095,-0.228761 -0.589263,-0.282589 0.593109,-0.2922 -0.134796,-0.236451 -0.544976,0.367173 0.04815,-0.65745 z"
       id="path23"
       inkscape:connector-curvature="0"
       style="fill:#ffffff;fill-rule:evenodd" />
    <path
       d="m 89.86506,35.70878 0.04621,0.657448 -0.544967,-0.363327 -0.132874,0.224918 0.591187,0.296044 -0.591187,0.290279 0.121315,0.224914 0.552681,-0.357559 -0.04237,0.657452 0.275375,0 -0.0443,-0.657452 0.541123,0.357559 0.13095,-0.228759 -0.589263,-0.282589 0.593109,-0.292198 -0.134796,-0.236454 -0.544976,0.367172 0.04815,-0.657448 z"
       id="path25"
       inkscape:connector-curvature="0"
       style="fill:#ffffff;fill-rule:evenodd" />
    <path
       d="m 28.66558,42.724525 0.04622,0.657452 -0.544973,-0.363327 -0.132874,0.224914 0.59119,0.296047 -0.59119,0.290276 0.121319,0.224918 0.552677,-0.357563 -0.04237,0.657452 0.275375,0 -0.04429,-0.657452 0.54112,0.357563 0.130947,-0.228763 -0.589263,-0.282589 0.593116,-0.292198 -0.1348,-0.236451 -0.544973,0.367173 0.04814,-0.657452 z"
       id="path27"
       inkscape:connector-curvature="0"
       style="fill:#ffffff;fill-rule:evenodd" />
    <path
       d="m 201.20117,10.980323 0.0462,0.65745 -0.54497,-0.363327 -0.13287,0.224916 0.59118,0.296044 -0.59118,0.290278 0.12131,0.224917 0.55268,-0.35756 -0.0424,0.65745 0.27538,0 -0.0443,-0.65745 0.54112,0.35756 0.13095,-0.228761 -0.58926,-0.282588 0.59312,-0.2922 -0.13481,-0.236452 -0.54497,0.367173 0.0481,-0.65745 z"
       id="path29"
       inkscape:connector-curvature="0"
       style="fill:#ffffff;fill-rule:evenodd" />
    <path
       d="m 235.0934,37.48043 0.0462,0.657452 -0.54497,-0.363327 -0.13287,0.224914 0.59118,0.296047 -0.59118,0.290276 0.12132,0.224918 0.55267,-0.357563 -0.0424,0.657452 0.27538,0 -0.0443,-0.657452 0.54111,0.357563 0.13095,-0.228763 -0.58926,-0.282589 0.59312,-0.292198 -0.13481,-0.236451 -0.54497,0.367173 0.0481,-0.657452 z"
       id="path31"
       inkscape:connector-curvature="0"
       style="fill:#ffffff;fill-rule:evenodd" />
    <path
       d="m 241.04878,8.309828 0.0462,0.6574497 -0.54497,-0.363327 -0.13287,0.2249164 0.59118,0.2960444 -0.59118,0.2902775 0.12131,0.2249174 0.55267,-0.3575602 -0.0424,0.6574497 0.27538,0 -0.0443,-0.6574497 0.54112,0.3575602 0.13095,-0.2287617 -0.58926,-0.282588 0.59311,-0.2922001 -0.1348,-0.2364512 -0.54497,0.3671723 0.0481,-0.6574497 z"
       id="path33"
       inkscape:connector-curvature="0"
       style="fill:#ffffff;fill-rule:evenodd" />
    <path
       d="m 278.38474,10.388568 0.0462,0.65745 -0.54498,-0.363327 -0.13287,0.224916 0.59118,0.296045 -0.59118,0.290277 0.12131,0.224917 0.55267,-0.35756 -0.0424,0.65745 0.27539,0 -0.0443,-0.65745 0.54114,0.35756 0.13095,-0.228761 -0.58927,-0.282588 0.59311,-0.2922 -0.13479,-0.236452 -0.54499,0.367173 0.0482,-0.65745 z"
       id="path35"
       inkscape:connector-curvature="0"
       style="fill:#ffffff;fill-rule:evenodd" />
    <path
       d="m 216.51598,17.630037 0.0462,0.65745 -0.54498,-0.363327 -0.13288,0.224916 0.5912,0.296045 -0.5912,0.290278 0.12133,0.224916 0.55267,-0.357559 -0.0424,0.65745 0.27538,0 -0.0443,-0.65745 0.54112,0.357559 0.13095,-0.228761 -0.58926,-0.282587 0.59311,-0.2922 -0.1348,-0.236453 -0.54497,0.367173 0.0481,-0.65745 z"
       id="path37"
       inkscape:connector-curvature="0"
       style="fill:#ffffff;fill-rule:evenodd" />
    <path
       d="m 255.34012,16.000116 0.0462,0.65745 -0.54497,-0.363327 -0.13287,0.224916 0.59118,0.296045 -0.59118,0.290278 0.12132,0.224916 0.55267,-0.357561 -0.0424,0.65745 0.27538,0 -0.0443,-0.65745 0.54113,0.357561 0.13095,-0.228761 -0.58928,-0.282587 0.59312,-0.2922 -0.13479,-0.236453 -0.54499,0.367173 0.0481,-0.65745 z"
       id="path39"
       inkscape:connector-curvature="0"
       style="fill:#ffffff;fill-rule:evenodd" />
    <path
       d="m 264.14066,37.48043 0.0462,0.657452 -0.54498,-0.363327 -0.13287,0.224914 0.59121,0.296047 -0.59121,0.290276 0.12134,0.224918 0.55267,-0.357563 -0.0424,0.657452 0.27536,0 -0.0443,-0.657452 0.54111,0.357563 0.13095,-0.228763 -0.58927,-0.282589 0.59311,-0.292198 -0.13479,-0.236451 -0.54496,0.367173 0.0481,-0.657452 z"
       id="path41"
       inkscape:connector-curvature="0"
       style="fill:#ffffff;fill-rule:evenodd" />
    <path
       d="m 286.4451,50.078857 0.0462,0.657448 -0.54498,-0.363327 -0.13287,0.224918 0.59118,0.296044 -0.59118,0.290279 0.12131,0.224914 0.5527,-0.357559 -0.0424,0.657448 0.27539,0 -0.0443,-0.657448 0.54114,0.357559 0.13095,-0.228759 -0.58927,-0.282589 0.59311,-0.292198 -0.13479,-0.236454 -0.54499,0.367172 0.0482,-0.657448 z"
       id="path43"
       inkscape:connector-curvature="0"
       style="fill:#ffffff;fill-rule:evenodd" />
    <path
       d="m 287.98315,22.96862 0.0462,0.65745 -0.54498,-0.363327 -0.13287,0.224916 0.59118,0.296045 -0.59118,0.290278 0.12134,0.224916 0.55267,-0.357561 -0.0424,0.65745 0.27539,0 -0.0443,-0.65745 0.54111,0.357561 0.13095,-0.228761 -0.58927,-0.282587 0.59311,-0.2922 -0.13479,-0.236453 -0.54499,0.367173 0.0482,-0.65745 z"
       id="path45"
       inkscape:connector-curvature="0"
       style="fill:#ffffff;fill-rule:evenodd" />
    <path
       d="m 209.21677,41.094604 0.0462,0.657452 -0.54498,-0.363331 -0.13288,0.224918 0.59119,0.296044 -0.59119,0.290279 0.12133,0.224918 0.55267,-0.357563 -0.0424,0.657452 0.27538,0 -0.0443,-0.657452 0.54112,0.357563 0.13095,-0.228763 -0.58926,-0.282589 0.59311,-0.292198 -0.1348,-0.236451 -0.54497,0.367173 0.0482,-0.657452 z"
       id="path47"
       inkscape:connector-curvature="0"
       style="fill:#ffffff;fill-rule:evenodd" />
    <path
       d="m 125.52681,8.535307 0.0462,0.6574497 -0.54497,-0.363327 -0.13287,0.2249164 0.59119,0.2960444 -0.59119,0.2902775 0.12132,0.2249174 0.55268,-0.3575602 -0.0424,0.6574498 0.27538,0 -0.0443,-0.6574498 0.54112,0.3575602 0.13095,-0.2287617 -0.58926,-0.282588 0.59312,-0.2922001 -0.13481,-0.2364512 -0.54497,0.3671723 0.0481,-0.6574497 z"
       id="path49"
       inkscape:connector-curvature="0"
       style="fill:#ffffff;fill-rule:evenodd" />
    <path
       d="m 180.24335,9.350267 0.0462,0.65745 -0.54498,-0.3633273 -0.13288,0.2249164 0.59119,0.2960449 -0.59119,0.290277 0.12133,0.224917 0.55267,-0.35756 -0.0424,0.65745 0.27538,0 -0.0443,-0.65745 0.54112,0.35756 0.13095,-0.228761 -0.58926,-0.282588 0.59311,-0.2922004 -0.1348,-0.2364512 -0.54497,0.3671726 0.0481,-0.65745 z"
       id="path51"
       inkscape:connector-curvature="0"
       style="fill:#ffffff;fill-rule:evenodd" />
    <path
       d="m 151.18428,9.350267 0.0462,0.65745 -0.54497,-0.3633273 -0.13287,0.2249164 0.59118,0.2960449 -0.59118,0.290277 0.12132,0.224917 0.55267,-0.35756 -0.0424,0.65745 0.27538,0 -0.0443,-0.65745 0.54113,0.35756 0.13095,-0.228761 -0.58927,-0.282588 0.59311,-0.2922004 -0.13479,-0.2364512 -0.54499,0.3671726 0.0482,-0.65745 z"
       id="path53"
       inkscape:connector-curvature="0"
       style="fill:#ffffff;fill-rule:evenodd" />
    <path
       d="m 94.6273,55.619423 0.18898,-7.118111 0.188973,7.118111 z"
       id="path55"
       inkscape:connector-curvature="0"
       style="fill:#cfe2f3;fill-rule:evenodd" />
    <path
       d="m 94.6273,55.619423 0.18898,-7.118111 0.188973,7.118111 z"
       id="path57"
       inkscape:connector-curvature="0"
       style="fill-rule:evenodd;stroke:#000000;stroke-width:1;stroke-linecap:butt;stroke-linejoin:round" />
    <path
       d="m 125.52779,35.70878 0.0462,0.657448 -0.54498,-0.363327 -0.13287,0.224918 0.59119,0.296044 -0.59119,0.290279 0.12132,0.224914 0.55268,-0.357559 -0.0424,0.657452 0.27538,0 -0.0443,-0.657452 0.54111,0.357559 0.13095,-0.228759 -0.58926,-0.282589 0.59312,-0.292198 -0.13481,-0.236454 -0.54497,0.367172 0.0481,-0.657448 z"
       id="path59"
       inkscape:connector-curvature="0"
       style="fill:#ffffff;fill-rule:evenodd" />
    <path
       d="m 153.86539,39.75709 0.0462,0.657452 -0.54497,-0.363331 -0.13287,0.224918 0.59118,0.296044 -0.59118,0.290279 0.12132,0.224918 0.55267,-0.357563 -0.0424,0.657452 0.27538,0 -0.0443,-0.657452 0.54111,0.357563 0.13095,-0.228763 -0.58926,-0.282589 0.59312,-0.292198 -0.13481,-0.236451 -0.54497,0.367173 0.0481,-0.657452 z"
       id="path61"
       inkscape:connector-curvature="0"
       style="fill:#ffffff;fill-rule:evenodd" />
    <path
       d="m 182.49925,35.708534 0.0462,0.657452 -0.54498,-0.363327 -0.13288,0.224914 0.59119,0.296047 -0.59119,0.290276 0.12133,0.224918 0.55267,-0.357563 -0.0424,0.657452 0.27538,0 -0.0443,-0.657452 0.54112,0.357563 0.13095,-0.228763 -0.58926,-0.282589 0.59311,-0.292198 -0.1348,-0.236451 -0.54497,0.367173 0.0481,-0.657452 z"
       id="path63"
       inkscape:connector-curvature="0"
       style="fill:#ffffff;fill-rule:evenodd" />
  </g>
  <rect
     style="fill:#000000"
     id="rect3397"
     width="301.99353"
     height="26.957888"
     x="-1.1048543"
     y="-0.2423923" />
</svg>
