<svg version="1.1" viewBox="0.0 0.0 300.0 127.0" fill="none" stroke="none" stroke-linecap="square" stroke-miterlimit="10" xmlns:xlink="http://www.w3.org/1999/xlink" xmlns="http://www.w3.org/2000/svg"><clipPath id="p.0"><path d="m0 0l300.0 0l0 127.0l-300.0 0l0 -127.0z" clip-rule="nonzero"/></clipPath><g clip-path="url(#p.0)"><path fill="#000000" fill-opacity="0.0" d="m0 0l300.0 0l0 127.0l-300.0 0z" fill-rule="evenodd"/><path fill="#bf9000" d="m110.29921 33.04987l0 0c0 -8.836557 7.1634445 -16.0 16.0 -16.0l0 0c4.243469 0 8.313126 1.685709 11.313705 4.6862907c3.000595 3.0005817 4.6862946 7.070244 4.6862946 11.313709l0 0c0 8.8365555 -7.163437 16.0 -16.0 16.0l0 0c-8.8365555 0 -16.0 -7.1634445 -16.0 -16.0z" fill-rule="evenodd"/><path fill="#073763" d="m79.1916 87.49647l0 2.2920303l7.0271683 0l0 19.899681l2.5801773 0l0 -19.899681l7.0271683 0l0 -2.2920303z" fill-rule="evenodd"/><path fill="#073763" d="m105.1299 94.858284c1.3153839 0 2.327217 0.42332458 3.0354996 1.2699814c0.7082825 0.843277 1.0624237 2.0592804 1.0624237 3.648018l-8.696693 0c0.14165497 -1.5381393 0.6087799 -2.74234 1.4013824 -3.6126022c0.79597473 -0.87026215 1.8617706 -1.305397 3.1973877 -1.305397zm0.03035736 -2.1098785c-2.2260284 0 -4.000107 0.78930664 -5.322235 2.36792c-1.3187561 1.5786209 -1.9781265 3.7087402 -1.9781265 6.3903656c0 2.6613846 0.70996094 4.7409134 2.1299057 6.238571c1.4233017 1.4976654 3.364334 2.246498 5.8230896 2.246498c1.1231308 0 2.0809937 -0.0843277 2.8735962 -0.2529831c0.79597473 -0.1652832 1.6391678 -0.44019318 2.5295792 -0.8247299l0 -2.2464905c-1.7504654 0.7488327 -3.5211716 1.1232452 -5.312111 1.1232452c-1.6998749 0 -3.018631 -0.5059662 -3.9562607 -1.5178986c-0.93426514 -1.0119324 -1.4266815 -2.494423 -1.4772797 -4.4474487l11.458992 0l0 -1.5937958c0 -2.246498 -0.6070938 -4.054489 -1.8212967 -5.423973c-1.2141953 -1.3728561 -2.8634796 -2.0592804 -4.947853 -2.0592804z" fill-rule="evenodd"/><path fill="#073763" d="m123.03932 92.748405c-2.4789886 0 -4.3896637 0.7589493 -5.732025 2.2768478c-1.3389893 1.5178986 -2.0084915 3.6682587 -2.0084915 6.4510803c0 2.7119827 0.65937805 4.8100586 1.9781342 6.2942276c1.3221283 1.4807968 3.187271 2.221199 5.5954285 2.221199c1.6897583 0 3.0911484 -0.28839874 4.2041626 -0.86520386l0 -2.2313156c-1.4570389 0.59703827 -2.878662 0.8955612 -4.2648697 0.8955612c-1.6189346 0 -2.8415604 -0.5464401 -3.6678925 -1.6393356c-0.8229523 -1.0928879 -1.234436 -2.6613846 -1.234436 -4.70549c0 -4.310837 1.6897583 -6.466255 5.069275 -6.466255c0.5059204 0 1.0877228 0.07420349 1.7454147 0.2226181c0.6576843 0.14505005 1.2647858 0.3288803 1.8212967 0.55150604l0.77404785 -2.140236c-0.45532227 -0.23274994 -1.0826569 -0.4351349 -1.8820038 -0.6071625c-0.7993469 -0.17202759 -1.5986938 -0.25804138 -2.3980408 -0.25804138z" fill-rule="evenodd"/><path fill="#073763" d="m131.02267 86.06964l0 23.618538l2.519455 0l0 -8.697571c0 -2.1655426 0.4013672 -3.7239227 1.2040863 -4.6751404c0.8060913 -0.95121765 2.0843658 -1.4268265 3.8348389 -1.4268265c1.3153839 0 2.2816772 0.3339386 2.8988953 1.0018158c0.617218 0.6678772 0.925827 1.6798096 0.925827 3.0358047l0 10.761917l2.519455 0l0 -10.852989c0 -2.104828 -0.50927734 -3.639595 -1.5278625 -4.6043015c-1.0151978 -0.96808624 -2.5397034 -1.4521255 -4.573471 -1.4521255c-1.1737366 0 -2.219284 0.23105621 -3.1366882 0.69317627c-0.9140167 0.45874023 -1.618927 1.087822 -2.1147308 1.8872528l-0.15176392 0c0.080947876 -0.5666809 0.121414185 -1.280098 0.121414185 -2.1402435l0 -7.1493073z" fill-rule="evenodd"/><path fill="#073763" d="m157.96269 92.748405c-1.1433716 0 -2.1804962 0.22599792 -3.1113892 0.6779938c-0.9308777 0.44862366 -1.6543427 1.0827713 -2.1703796 1.9024353l-0.121414185 0l-0.40979004 -2.2768555l-2.0489655 0l0 16.6362l2.519455 0l0 -8.727928c0 -2.1655426 0.40473938 -3.7188644 1.2142029 -4.659958c0.8094635 -0.9411011 2.084381 -1.4116516 3.8247223 -1.4116516c1.3153839 0 2.2816772 0.3339386 2.8988953 1.0018158c0.617218 0.6678772 0.925827 1.6798096 0.925827 3.0358047l0 10.761917l2.5194702 0l0 -10.852989c0 -2.1250687 -0.5059204 -3.6699524 -1.517746 -4.634659c-1.0118408 -0.96808624 -2.5194702 -1.4521255 -4.522888 -1.4521255z" fill-rule="evenodd"/><path fill="#073763" d="m170.45375 86.87412c-0.42497253 0 -0.77911377 0.13492584 -1.0624237 0.40477753c-0.28330994 0.26647186 -0.42497253 0.68811035 -0.42497253 1.2649155c0 0.5666809 0.1416626 0.9900131 0.42497253 1.2699814c0.28330994 0.27658844 0.6374512 0.41488647 1.0624237 0.41488647c0.40472412 0 0.7538147 -0.13829803 1.0472412 -0.41488647c0.2934265 -0.27996826 0.44013977 -0.7033005 0.44013977 -1.2699814c0 -0.5666809 -0.14671326 -0.9866333 -0.44013977 -1.2598572c-0.2934265 -0.27322388 -0.6425171 -0.40983582 -1.0472412 -0.40983582zm-1.2749176 6.1778564l0 16.6362l2.5194702 0l0 -16.6362z" fill-rule="evenodd"/><path fill="#073763" d="m182.44395 94.58506c2.4891052 0 3.7336578 1.2497406 3.7336578 3.7492218c0 2.3881607 -1.2293854 3.5822449 -3.6881256 3.5822449c-1.1737213 0 -2.0894318 -0.29852295 -2.7471313 -0.8955612c-0.6576843 -0.5970459 -0.9865265 -1.4774246 -0.9865265 -2.6411514c0 -1.2547989 0.3187256 -2.2009583 0.95617676 -2.8384705c0.6374512 -0.63751984 1.5480957 -0.95628357 2.7319489 -0.95628357zm1.5936279 14.72364c1.5379791 0 2.5852356 0.17372131 3.141739 0.5211487c0.5565033 0.3508072 0.8347626 0.9765167 0.8347626 1.8771362c0 1.0827713 -0.5092926 1.9395447 -1.5278625 2.5703125c-1.015213 0.63414764 -2.5801697 0.95121765 -4.6949005 0.95121765c-1.416565 0 -2.5042877 -0.23274231 -3.263153 -0.69823456c-0.7588806 -0.46548462 -1.1383209 -1.1485443 -1.1383209 -2.0491638c0 -1.0220566 0.3187256 -1.8063049 0.956192 -2.352745c0.6374512 -0.54644775 1.5278625 -0.81967163 2.6712341 -0.81967163zm-1.4873962 -16.560295c-2.003418 0 -3.551529 0.49415588 -4.6443024 1.4824829c-1.0927734 0.9849472 -1.6391602 2.3881607 -1.6391602 4.2096405c0 1.0928955 0.26982117 2.0643463 0.8094635 2.9143753c0.5430145 0.85002136 1.2445526 1.4521255 2.104599 1.8062973c-0.69815063 0.4250183 -1.209137 0.86520386 -1.5329132 1.3205795c-0.3237915 0.45536804 -0.48568726 0.9866333 -0.48568726 1.5937958c0 0.53632355 0.14334106 1.0068741 0.43003845 1.411644c0.29005432 0.40477753 0.64756775 0.70329285 1.0725403 0.8955612c-1.1737366 0.2631073 -2.084381 0.7640152 -2.7319489 1.5027237c-0.64756775 0.7387161 -0.97135925 1.6140366 -0.97135925 2.625969c0 1.4774246 0.58854675 2.6209106 1.7656403 3.430458c1.180481 0.8095474 2.858429 1.2143173 5.0338745 1.2143173c2.8331146 0 4.988327 -0.4840393 6.4655914 -1.4521255c1.4772797 -0.9647064 2.2159119 -2.36792 2.2159119 -4.2096405c0 -1.4470673 -0.48399353 -2.5500793 -1.4519806 -3.3090286c-0.9645996 -0.7589493 -2.3474426 -1.1384277 -4.1484985 -1.1384277l-2.9444275 0c-0.9106598 0 -1.5531616 -0.107933044 -1.9275513 -0.3238144c-0.3743744 -0.21925354 -0.56155396 -0.55656433 -0.56155396 -1.0119324c0 -0.86014557 0.53627014 -1.5735626 1.6088104 -2.1402435c0.4350891 0.080955505 0.90052795 0.12142944 1.3963165 0.12142944c1.9427185 0 3.470581 -0.4857254 4.583603 -1.4571838c1.1130219 -0.97145844 1.6695251 -2.2717896 1.6695251 -3.901001c0 -0.71847534 -0.11129761 -1.3627396 -0.33390808 -1.9328003c-0.22259521 -0.5734253 -0.47555542 -1.0372314 -0.7588806 -1.3914032l3.0810394 -0.36429596l0 -1.5938034l-5.7522736 0c-0.69815063 -0.20238495 -1.4823303 -0.3035736 -2.3525085 -0.3035736z" fill-rule="evenodd"/><path fill="#073763" d="m194.0699 86.06964l0 23.618538l2.519455 0l0 -8.697571c0 -2.1655426 0.40135193 -3.7239227 1.2040863 -4.6751404c0.8060913 -0.95121765 2.0843658 -1.4268265 3.8348389 -1.4268265c1.3153839 0 2.2816772 0.3339386 2.8988953 1.0018158c0.617218 0.6678772 0.925827 1.6798096 0.925827 3.0358047l0 10.761917l2.519455 0l0 -10.852989c0 -2.104828 -0.5092926 -3.639595 -1.5278625 -4.6043015c-1.015213 -0.96808624 -2.5397034 -1.4521255 -4.5734863 -1.4521255c-1.1737213 0 -2.219284 0.23105621 -3.136673 0.69317627c-0.9140167 0.45874023 -1.618927 1.087822 -2.1147308 1.8872528l-0.15176392 0c0.080947876 -0.5666809 0.121414185 -1.280098 0.121414185 -2.1402435l0 -7.1493073z" fill-rule="evenodd"/><path fill="#073763" d="m214.39253 89.19651l-1.0624237 3.5518951l-2.3828583 1.047348l0 1.214325l2.3828583 0l0 9.896713c0 3.3899765 1.6088104 5.0849686 4.8264313 5.0849686c0.42497253 0 0.9022217 -0.04385376 1.4317474 -0.13155365c0.53289795 -0.0843277 0.9359436 -0.19226837 1.209137 -0.3238144l0 -1.9277344c-0.24284363 0.0708313 -0.5716858 0.1399765 -0.98654175 0.20744324c-0.4148407 0.064086914 -0.84487915 0.09613037 -1.2900848 0.09613037c-0.82969666 0 -1.4823303 -0.26815796 -1.9578857 -0.8044815c-0.47555542 -0.5363312 -0.7133484 -1.305397 -0.7133484 -2.3072128l0 -9.790459l4.8264465 0l0 -1.9580994l-4.8264465 0l0 -3.8554688z" fill-rule="evenodd"/><path fill="#04223f" d="m158.26772 32.417324l0 0c0 -8.82786 7.149338 -15.984253 15.968506 -15.984253l0 0c4.2351074 0 8.296768 1.6840496 11.291443 4.681679c2.9946747 2.9976292 4.677063 7.063286 4.677063 11.302574l0 0c0 8.827858 -7.149353 15.984249 -15.968506 15.984249l0 0c-8.819168 0 -15.968506 -7.156391 -15.968506 -15.984249z" fill-rule="evenodd"/><path fill="#06345e" d="m174.77428 16.43832l0 0c8.523453 0 15.433075 7.1493435 15.433075 15.968506c0 8.81916 -6.909622 15.968502 -15.433075 15.968502l0 0c4.857666 -3.7696533 7.7165375 -9.685749 7.7165375 -15.968502c0 -6.282757 -2.8588715 -12.198853 -7.7165375 -15.968506z" fill-rule="evenodd"/><path fill="#04223f" d="m103.08124 65.87959l-0.14766693 2.173378l-1.919693 0l0.13246918 -2.173378zm-2.3887558 -3.7757301l-0.18675232 3.0548897l-1.5201187 0l0 0.72084045l1.4810257 0l-0.13463593 2.173378l-1.3463898 0l0 0.7078171l1.2942734 0l-0.17372894 2.8942184l0.6797104 0l0.18675232 -2.8942184l1.9088287 0l-0.17372131 2.8942184l0.67970276 0l0.17372894 -2.8942184l1.4940567 0l0 -0.7078171l-1.4397659 0l0.13246918 -2.173378l1.3072968 0l0 -0.72084045l-1.266037 0l0.18675232 -3.0548897l-0.68187714 0l-0.17372894 3.0548897l-1.9196854 0l0.18675995 -3.0548897z" fill-rule="evenodd"/><path fill="#04223f" d="m106.576195 62.264534l0 0.73386765l1.1357422 0l0 6.895756l-1.1075134 0l0 0.73386383l2.933815 0l0 -0.73386383l-1.1075058 0l0 -3.3349762c0.83678436 -0.7729492 1.6062546 -1.1594238 2.308403 -1.1594238c0.44445038 0 0.7709122 0.111450195 0.9793854 0.33436584c0.20991516 0.22145844 0.31488037 0.55872345 0.31488037 1.0117798l0 3.1482544l-1.0944824 0l0 0.73386383l2.909935 0l0 -0.73386383l-1.0944824 0l0 -3.441368c0 -0.5688553 -0.15345764 -1.0088882 -0.46038055 -1.3200912c-0.3069229 -0.311203 -0.7629547 -0.46681213 -1.368103 -0.46681213c-0.40825653 0 -0.82592773 0.0933609 -1.253006 0.28009033c-0.42707825 0.1867218 -0.8411255 0.45739746 -1.2421494 0.812027l0 -3.4934692z" fill-rule="evenodd"/><path fill="#04223f" d="m117.77161 67.78591c0.57764435 0 1.2001724 0.057899475 1.867569 0.17369843l0 0.6665573c-0.8005905 0.95243835 -1.6815338 1.4286575 -2.6428223 1.4286575c-0.37351227 0 -0.6985321 -0.10639191 -0.97504425 -0.3191681c-0.2750702 -0.21422577 -0.4126053 -0.45957184 -0.4126053 -0.7360382c0 -0.32857513 0.16648865 -0.6130066 0.49946594 -0.85328674c0.33442688 -0.24028015 0.8889084 -0.36042023 1.6634369 -0.36042023zm0.2801361 -3.1200256c-0.7745285 0 -1.6417236 0.19541168 -2.6015625 0.5862274l0.18675232 0.72084045c0.35469818 -0.16934967 0.7390671 -0.30469513 1.153122 -0.4060135c0.41404724 -0.102775574 0.794075 -0.15415955 1.1400833 -0.15415955c0.5877762 0 1.0192032 0.099876404 1.2942657 0.2996292c0.27651978 0.19975281 0.41477203 0.55293274 0.41477203 1.0595474l0 0.45378113c-0.8005905 -0.1244812 -1.4274597 -0.1867218 -1.8805923 -0.1867218c-0.60515594 0 -1.1277847 0.089019775 -1.567894 0.26705933c-0.44010925 0.17803955 -0.77163696 0.41614532 -0.99458313 0.71432495c-0.2229538 0.29817963 -0.33442688 0.6202469 -0.33442688 0.9661865c0 0.31989288 0.09120178 0.6180725 0.2736206 0.8945389c0.1824112 0.27501678 0.43576813 0.49503326 0.76005554 0.66004944c0.325737 0.16500854 0.68839264 0.24751282 1.0879669 0.24751282c0.8990402 0 1.7886658 -0.42700195 2.6688843 -1.2810059l0 1.1203384l1.8002548 0l0 -0.73386383l-1.0923157 0l0 -3.280693c0 -0.65859985 -0.20050812 -1.14785 -0.601532 -1.4677429c-0.39956665 -0.31988525 -0.96852875 -0.4798355 -1.706871 -0.4798355z" fill-rule="evenodd"/><path fill="#04223f" d="m126.17654 64.665886c-0.60515594 0 -1.1458817 0.14257812 -1.6221848 0.42772675c-0.47485352 0.28370667 -0.84402466 0.6549835 -1.1075058 1.1138306c-0.26203918 0.4574051 -0.39305878 0.93940735 -0.39305878 1.446022c0 0.60504913 0.1375351 1.1456757 0.41259766 1.6218948c0.27651978 0.4747696 0.65509796 0.84604645 1.1357422 1.1138306c0.48065186 0.26633453 1.0184784 0.399498 1.6134949 0.399498c1.0684204 0 2.0608368 -0.35173035 2.9772491 -1.0552063l-0.29533386 -0.73386383c-0.3735199 0.32133484 -0.7803192 0.5797119 -1.2204361 0.77511597c-0.44010925 0.19541168 -0.8512573 0.2931137 -1.2334595 0.2931137c-0.5602722 0 -1.0409164 -0.108558655 -1.4419403 -0.32567596c-0.39957428 -0.2185669 -0.70214844 -0.50806427 -0.9077225 -0.8684845c-0.20413208 -0.36042023 -0.30619812 -0.75413513 -0.30619812 -1.1811371c0 -0.41687012 0.106407166 -0.7990036 0.31922913 -1.1464005c0.21426392 -0.34738922 0.5103226 -0.6231308 0.88817596 -0.82722473c0.37786102 -0.20409393 0.8027649 -0.3061447 1.2747269 -0.3061447c0.8179703 0 1.4983978 0.22219086 2.0412903 0.66656494l0 0.92059326l0.7340088 0l0 -2.334053l-0.7340088 0l0 0.64051056c-0.37350464 -0.24028015 -0.7115555 -0.4067459 -1.0141296 -0.49938202c-0.30257416 -0.09408569 -0.6760864 -0.14112854 -1.1205368 -0.14112854z" fill-rule="evenodd"/><path fill="#04223f" d="m130.67259 62.264534l0 0.73386765l1.1335754 0l0 6.895756l-1.1075134 0l0 0.73386383l1.828476 0l0 -2.4947128l0.76005554 -0.56017303c0.3474579 0.30252075 0.74775696 0.6810379 1.2008972 1.1355362c0.45458984 0.45306396 0.8150635 0.8482208 1.0814514 1.1854858l-0.73399353 0l0 0.73386383l2.8295746 0l0 -0.73386383l-1.2551727 0c-0.6485901 -0.7729492 -1.1958313 -1.3685913 -1.6417236 -1.7869034l-0.9728699 -0.9075699l2.0673523 -1.6284027l1.2812347 0l0 -0.7316971l-2.8816986 0l0 0.7316971l0.614563 0l-2.3496704 1.8281555l0 -5.134903z" fill-rule="evenodd"/><path fill="#04223f" d="m140.01347 63.117817l0 1.7217674l-0.94898987 0l0 0.7316971l0.94898987 0l0 3.508667c0 0.5254364 0.19326782 0.9415817 0.5798187 1.2484436c0.38653564 0.3068695 0.90483093 0.46029663 1.5548553 0.46029663c0.38220215 0 0.797699 -0.057899475 1.2464905 -0.1736908c0.4487915 -0.11579895 0.97576904 -0.3068695 1.5809174 -0.57320404l-0.080337524 -0.72084045c-0.78178406 0.31121063 -1.3377075 0.5116806 -1.6677856 0.6014252c-0.3286438 0.08829498 -0.6398926 0.13244629 -0.9337921 0.13244629c-0.5066986 0 -0.8939667 -0.099876404 -1.1618042 -0.2996292c-0.26637268 -0.20119476 -0.39956665 -0.53266907 -0.39956665 -0.99440765l0 -3.1895065l3.4441376 0l0 -0.7316971l-3.4441376 0l0 -1.7217674z" fill-rule="evenodd"/><path fill="#04223f" d="m146.60295 62.264534l0 0.73386765l1.1357422 0l0 6.895756l-1.1075134 0l0 0.73386383l2.9338226 0l0 -0.73386383l-1.1075134 0l0 -3.3349762c0.83677673 -0.7729492 1.606247 -1.1594238 2.3083954 -1.1594238c0.444458 0 0.7709198 0.111450195 0.9793854 0.33436584c0.20993042 0.22145844 0.31488037 0.55872345 0.31488037 1.0117798l0 3.1482544l-1.0944824 0l0 0.73386383l2.9099426 0l0 -0.73386383l-1.0944824 0l0 -3.441368c0 -0.5688553 -0.15345764 -1.0088882 -0.46038818 -1.3200912c-0.30691528 -0.311203 -0.76293945 -0.46681213 -1.3680878 -0.46681213c-0.40826416 0 -0.825943 0.0933609 -1.2530212 0.28009033c-0.42707825 0.1867218 -0.8411255 0.45739746 -1.2421417 0.812027l0 -3.4934692z" fill-rule="evenodd"/><path fill="#04223f" d="m158.13062 65.41278c0.64134216 0 1.166153 0.15995026 1.5744019 0.4798355c0.40971375 0.31989288 0.64134216 0.7201233 0.6949158 1.2006836l-4.655899 0c0.08831787 -0.49793243 0.35035706 -0.90250397 0.78611755 -1.213707c0.43577576 -0.311203 0.96925354 -0.46681213 1.6004639 -0.46681213zm0.013031006 -0.74689484c-0.5950165 0 -1.1350098 0.12882996 -1.6200104 0.3864746c-0.48498535 0.25765228 -0.86790466 0.6202469 -1.1487732 1.0877762c-0.2794037 0.46608734 -0.41911316 0.9973068 -0.41911316 1.5936661c0 0.9249344 0.2866516 1.6653137 0.85995483 2.2211456c0.5747528 0.5558319 1.373169 0.83374023 2.3952637 0.83374023c0.48065186 0 0.9851837 -0.07309723 1.5135956 -0.21929169c0.5298767 -0.14763641 1.043808 -0.35462952 1.5418396 -0.62096405l-0.22584534 -0.70780945c-0.4632721 0.25764465 -0.94392395 0.46029663 -1.4419403 0.60793304c-0.49801636 0.14619446 -0.9468231 0.21929169 -1.3463898 0.21929169c-0.9250946 0 -1.577301 -0.22001648 -1.956604 -0.6600418c-0.3778534 -0.44003296 -0.5711212 -0.9669113 -0.5798187 -1.5806427l5.4702454 0c-0.008682251 -0.987175 -0.28230286 -1.760849 -0.8208618 -2.321022c-0.5371094 -0.5601654 -1.2776184 -0.84025574 -2.2215424 -0.84025574z" fill-rule="evenodd"/><path fill="#04223f" d="m166.883 64.665886c-0.4357605 0 -0.86935425 0.08685303 -1.3007812 0.26054382c-0.431427 0.17224884 -0.82954407 0.42338562 -1.1943817 0.75341034l0 -0.84025574l-1.826294 0l0 0.74689484l1.1074982 0l0 4.307678l-1.1074982 0l0 0.73386383l2.9338074 0l0 -0.73386383l-1.1075134 0l0 -3.4153137c0.2852173 -0.30252075 0.6413574 -0.55799866 1.0684357 -0.7664337c0.42707825 -0.20843506 0.8317108 -0.3126526 1.213913 -0.3126526c0.4357605 0 0.7644043 0.0933609 0.9859009 0.2800827c0.22294617 0.1867218 0.33442688 0.44437408 0.33442688 0.7729492l0 3.441368l-1.0923157 0l0 0.73386383l2.9077606 0l0 -0.73386383l-1.0944824 0l0 -3.4674225c0 -1.1738968 -0.6094818 -1.760849 -1.828476 -1.760849z" fill-rule="evenodd"/><path fill="#04223f" d="m173.62231 61.904114l0 1.6414299l0.94680786 0l0 -1.6414299zm-1.8154602 2.9354706l0 0.7316971l2.0282745 0l0 4.322876l-2.3474884 0l0 0.73386383l5.3898926 0l0 -0.73386383l-2.3084106 0l0 -5.054573z" fill-rule="evenodd"/><path fill="#04223f" d="m181.72104 65.39976c0.49801636 0 0.92437744 0.09118652 1.279068 0.2735672c0.35614014 0.18093872 0.62542725 0.4248352 0.8078308 0.7316971c0.18241882 0.3068695 0.2736206 0.6426773 0.2736206 1.0074463c0 0.3734436 -0.10494995 0.71360016 -0.31488037 1.020462c-0.20846558 0.3068695 -0.49295044 0.5493164 -0.85343933 0.72735596c-0.35902405 0.17803955 -0.7607727 0.26705933 -1.2052307 0.26705933c-0.42707825 0 -0.82302856 -0.089019775 -1.187851 -0.26705933c-0.36483765 -0.17803955 -0.65437317 -0.4183197 -0.8686371 -0.72084045c-0.21281433 -0.30252075 -0.31922913 -0.635437 -0.31922913 -0.9987564c0 -0.38357544 0.10858154 -0.7309723 0.32574463 -1.0421753c0.21859741 -0.31121063 0.51031494 -0.5551071 0.8751526 -0.7316971c0.3648224 -0.17803955 0.7607727 -0.26705933 1.187851 -0.26705933zm-0.013031006 -0.73387146c-0.6051483 0 -1.1437073 0.12882996 -1.6156616 0.3864746c-0.47050476 0.25765228 -0.83750916 0.5999832 -1.1009979 1.0269852c-0.26203918 0.42700195 -0.39305115 0.8807831 -0.39305115 1.3613434c0 0.48925018 0.12449646 0.94085693 0.37350464 1.3548355c0.24900818 0.412529 0.6065979 0.7432785 1.0727692 0.9922409c0.46762085 0.2489624 1.0170288 0.3734436 1.6482391 0.3734436c0.48065186 0 0.9410248 -0.08467102 1.381134 -0.25402832c0.44010925 -0.16934967 0.7897339 -0.40962982 1.0488739 -0.72084045l0 1.7087402c0 0.5688553 -0.17155457 0.97776794 -0.5146637 1.2267303c-0.34165955 0.24897003 -0.9265442 0.37345123 -1.7546387 0.37345123c-0.3460083 0 -0.679718 -0.024612427 -1.0011139 -0.07382202c-0.3199463 -0.04776764 -0.8223114 -0.1563263 -1.5070801 -0.3256836l-0.14549255 0.72084045c1.1292267 0.26633453 2.1071625 0.39950562 2.9338074 0.39950562c0.87153625 0 1.54039 -0.1939621 2.0065613 -0.5818863c0.4676056 -0.3864746 0.701416 -0.9126282 0.701416 -1.5784683l0 -5.4844666l0.8273773 0l0 -0.7316971l-1.5461731 0l0 0.7729492c-0.26782227 -0.2938385 -0.6174469 -0.524704 -1.0488739 -0.6926117c-0.431427 -0.1693573 -0.886734 -0.25403595 -1.3659363 -0.25403595z" fill-rule="evenodd"/><path fill="#04223f" d="m186.6297 62.264534l0 0.73386765l1.1357422 0l0 6.895756l-1.1075134 0l0 0.73386383l2.9338226 0l0 -0.73386383l-1.1075134 0l0 -3.3349762c0.836792 -0.7729492 1.6062622 -1.1594238 2.3084106 -1.1594238c0.44444275 0 0.77090454 0.111450195 0.9793854 0.33436584c0.20991516 0.22145844 0.31488037 0.55872345 0.31488037 1.0117798l0 3.1482544l-1.0944824 0l0 0.73386383l2.9099274 0l0 -0.73386383l-1.0944824 0l0 -3.441368c0 -0.5688553 -0.15345764 -1.0088882 -0.46037292 -1.3200912c-0.30691528 -0.311203 -0.7629547 -0.46681213 -1.368103 -0.46681213c-0.40826416 0 -0.82592773 0.0933609 -1.253006 0.28009033c-0.42707825 0.1867218 -0.8411255 0.45739746 -1.242157 0.812027l0 -3.4934692z" fill-rule="evenodd"/><path fill="#04223f" d="m196.05093 63.117817l0 1.7217674l-0.94898987 0l0 0.7316971l0.94898987 0l0 3.508667c0 0.5254364 0.19326782 0.9415817 0.5798187 1.2484436c0.38653564 0.3068695 0.9048157 0.46029663 1.5548553 0.46029663c0.38220215 0 0.797699 -0.057899475 1.2464905 -0.1736908c0.4487915 -0.11579895 0.97576904 -0.3068695 1.5809174 -0.57320404l-0.08035278 -0.72084045c-0.7817688 0.31121063 -1.3376923 0.5116806 -1.6677704 0.6014252c-0.3286438 0.08829498 -0.63990784 0.13244629 -0.9337921 0.13244629c-0.5066986 0 -0.8939667 -0.099876404 -1.1618042 -0.2996292c-0.26637268 -0.20119476 -0.39956665 -0.53266907 -0.39956665 -0.99440765l0 -3.1895065l3.4441376 0l0 -0.7316971l-3.4441376 0l0 -1.7217674z" fill-rule="evenodd"/></g></svg>