<?xml version="1.0" encoding="UTF-8" standalone="no"?>
<svg
   xmlns:dc="http://purl.org/dc/elements/1.1/"
   xmlns:cc="http://creativecommons.org/ns#"
   xmlns:rdf="http://www.w3.org/1999/02/22-rdf-syntax-ns#"
   xmlns:svg="http://www.w3.org/2000/svg"
   xmlns="http://www.w3.org/2000/svg"
   xmlns:sodipodi="http://sodipodi.sourceforge.net/DTD/sodipodi-0.dtd"
   xmlns:inkscape="http://www.inkscape.org/namespaces/inkscape"
   version="1.1"
   viewBox="0 0 1423 340"
   stroke-miterlimit="10"
   id="svg2"
   inkscape:version="0.91 r13725"
   sodipodi:docname="worldfooterformobile.svg"
   width="1423"
   height="340"
   style="fill:none;stroke:none;stroke-linecap:square;stroke-miterlimit:10">
  <metadata
     id="metadata35">
    <rdf:RDF>
      <cc:Work
         rdf:about="">
        <dc:format>image/svg+xml</dc:format>
        <dc:type
           rdf:resource="http://purl.org/dc/dcmitype/StillImage" />
        <dc:title />
      </cc:Work>
    </rdf:RDF>
  </metadata>
  <defs
     id="defs33" />
  <sodipodi:namedview
     pagecolor="#ffffff"
     bordercolor="#666666"
     borderopacity="1"
     objecttolerance="10"
     gridtolerance="10"
     guidetolerance="10"
     inkscape:pageopacity="0"
     inkscape:pageshadow="2"
     inkscape:window-width="640"
     inkscape:window-height="480"
     id="namedview31"
     showgrid="false"
     inkscape:zoom="0.28622172"
     inkscape:cx="725.67623"
     inkscape:cy="276.22547"
     inkscape:window-x="635"
     inkscape:window-y="224"
     inkscape:window-maximized="0"
     inkscape:current-layer="svg2"
     units="in" />
  <clipPath
     id="p.0">
    <path
       d="m 0,0 1423,0 0,329 L 0,329 0,0 Z"
       id="path5"
       inkscape:connector-curvature="0"
       style="clip-rule:nonzero" />
  </clipPath>
  <g
     clip-path="url(#p.0)"
     id="g7"
     transform="matrix(0.72501403,0,0,0.70430289,-143.24559,0.24767035)">
    <path
       d="m 0,0 1423,0 0,329 -1423,0 z"
       id="path9"
       inkscape:connector-curvature="0"
       style="fill:#000000;fill-opacity:0;fill-rule:evenodd" />
    <path
       d="m 241.61005,518.94727 0,0 c 0,-259.51266 210.37659,-469.88925 469.88928,-469.88925 l 0,0 c 124.62238,0 244.14056,49.506046 332.26187,137.62738 88.1214,88.12134 137.6274,207.63953 137.6274,332.26187 l 0,0 c 0,259.5127 -210.37658,469.88928 -469.88927,469.88928 l 0,0 c -259.5127,0 -469.88928,-210.37659 -469.88928,-469.88928 z"
       id="path11"
       inkscape:connector-curvature="0"
       style="fill:#6d9eeb;fill-rule:evenodd" />
    <path
       d="m 572.6587,70.280304 39.40839,-10.914433 38.80279,-6.668442 23.0401,-2.4258 29.7052,-1.820187 35.16907,18.797443 -17.58289,27.891685 0.60559,39.40504 -14.55145,13.34024 -15.15704,30.91975 -1.03388,81.34964 -38.98346,-28.59769 -36.37695,-4.85495 -59.41711,30.31415 -43.651,-32.13098 -7.28074,-52.74527 13.34354,-40.02069 -23.04007,-29.70852 29.10294,-14.551464 z"
       id="path13"
       inkscape:connector-curvature="0"
       style="fill:#93c47d;fill-rule:evenodd" />
    <path
       d="m 831.54584,64.82415 -25.16138,56.55962 -1.21124,17.2784 20.30981,30.013 15.15705,19.83135 57.59692,17.58287 43.04871,10.4828 101.70969,-29.66168 -55.0239,-47.94387 -87.91431,-49.71719 z"
       id="path15"
       inkscape:connector-curvature="0"
       style="fill:#93c47d;fill-rule:evenodd" />
    <path
       d="m 814.9633,102.20567 0,0 c 11.34247,-24.259334 58.77289,-26.056965 105.9389,-4.015126 l 0,0 c 47.16595,22.041836 76.20667,59.576346 64.86426,83.835666 l 0,0 c -11.34247,24.25933 -58.77295,26.05695 -105.9389,4.01511 l 0,0 C 832.66154,163.9995 803.62083,126.46499 814.9633,102.20567 Z"
       id="path17"
       inkscape:connector-curvature="0"
       style="fill:#93c47d;fill-rule:evenodd" />
    <path
       d="m 515.5512,222.1076 4.28082,37.57217 4.75592,-6.65878 0.95014,-5.70604 -2.37799,-23.30446 z"
       id="path19"
       inkscape:connector-curvature="0"
       style="fill:#93c47d;fill-rule:evenodd" />
    <path
       d="m 525.5381,229.71654 11.90546,39.95012 6.64569,30.91339 23.77954,18.07349 30.43829,26.63256 31.38849,12.36744 34.24408,3.80316 32.34119,-2.85303 15.22052,-14.2677 -7.61157,-6.65881 -14.2677,-6.65879 -14.26777,-4.75589 -13.31756,-2.85302 16.17059,-36.14698 -15.21783,0 -10.46454,11.41468 -11.41474,2.85302 -12.3648,0 -16.1706,1.9029 -0.95013,-16.1706 1.90027,-15.21786 -4.28088,-7.13385 6.65881,-20.45145 21.40417,-19.97638 -68.47241,-14.74278 z"
       id="path21"
       inkscape:connector-curvature="0"
       style="fill:#93c47d;fill-rule:evenodd" />
    <path
       d="m 964.96313,240.31647 0,0 c 11.34241,-24.25932 25.79535,-41.47162 32.28155,-38.44475 l 0,0 c 3.11472,1.45355 3.93822,7.47542 2.28913,16.74085 -1.64899,9.26542 -5.63544,21.01544 -11.08228,32.66517 l 0,0 c -11.34246,24.25934 -25.79541,41.47162 -32.28155,38.44477 l 0,0 c -3.11475,-1.45356 -3.93817,-7.47544 -2.28919,-16.74085 1.64905,-9.26544 5.6355,-21.01546 11.08234,-32.66519 z"
       id="path23"
       inkscape:connector-curvature="0"
       style="fill:#93c47d;fill-rule:evenodd" />
    <path
       d="m 826.5958,164.55905 19.02496,52.31364 23.77954,81.8047 34.24225,-42.80452 35.19586,69.43813 68.48789,-32.33844 116.9972,50.40982 10.9345,-27.34296 -15.2174,-28.5408 -14.9797,-24.49222 z"
       id="path25"
       inkscape:connector-curvature="0"
       style="fill:#93c47d;fill-rule:evenodd" />
    <path
       d="m 890.71924,231.25552 0,0 c 11.34247,-24.25932 58.77289,-26.05695 105.9389,-4.01511 l 0,0 c 47.16596,22.04183 76.20676,59.57633 64.86416,83.83566 l 0,0 c -11.3424,24.25931 -58.7728,26.05695 -105.93886,4.01511 l 0,0 c -47.16596,-22.04184 -76.20667,-59.57632 -64.8642,-83.83566 z"
       id="path27"
       inkscape:connector-curvature="0"
       style="fill:#93c47d;fill-rule:evenodd" />
    <path
       d="m 1119.1959,336.16522 0,0 c 18.1461,-22.00916 -10.6925,-83.44301 -64.4131,-137.21632 l 0,0 C 1001.0624,145.1756 942.80295,119.42567 924.65683,141.43483 l 0,0 c -18.14618,22.00917 10.69251,83.44301 64.41297,137.21632 l 0,0 c 53.7205,53.77331 111.9799,79.52322 130.1261,57.51407 z"
       id="path29"
       inkscape:connector-curvature="0"
       style="fill:#93c47d;fill-rule:evenodd" />
  </g>
</svg>
