<svg version="1.1" viewBox="0.0 0.0 1423.0 329.0" fill="none" stroke="none" stroke-linecap="square" stroke-miterlimit="10" xmlns:xlink="http://www.w3.org/1999/xlink" xmlns="http://www.w3.org/2000/svg"><clipPath id="p.0"><path d="m0 0l1423.0 0l0 329.0l-1423.0 0l0 -329.0z" clip-rule="nonzero"/></clipPath><g clip-path="url(#p.0)"><path fill="#000000" fill-opacity="0.0" d="m0 0l1423.0 0l0 329.0l-1423.0 0z" fill-rule="evenodd"/><path fill="#6d9eeb" d="m241.61005 518.94727l0 0c0 -259.51266 210.37659 -469.88925 469.88928 -469.88925l0 0c124.622375 0 244.14056 49.506046 332.2619 137.62738c88.12134 88.12134 137.62732 207.63953 137.62732 332.26187l0 0c0 259.5127 -210.37653 469.88928 -469.88922 469.88928l0 0c-259.5127 0 -469.88928 -210.37659 -469.88928 -469.88928z" fill-rule="evenodd"/><path fill="#93c47d" d="m572.6587 70.280304l39.408386 -10.914433l38.802795 -6.668442l23.0401 -2.4258003l29.7052 -1.8201866l35.169067 18.797443l-17.582886 27.891685l0.6055908 39.405037l-14.551453 13.3402405l-15.157043 30.919754l-1.0338745 81.34964l-38.98346 -28.597687l-36.376953 -4.85495l-59.417114 30.314148l-43.651 -32.13098l-7.280731 -52.74527l13.343536 -40.02069l-23.04007 -29.708527l29.102936 -14.55146z" fill-rule="evenodd"/><path fill="#93c47d" d="m831.54584 64.82415l-25.161377 56.559624l-1.2112427 17.278397l20.309814 30.013l15.157043 19.831345l57.596924 17.58287l43.048706 10.482803l101.709656 -29.661682l-55.023865 -47.943863l-87.91431 -49.717194z" fill-rule="evenodd"/><path fill="#93c47d" d="m814.9633 102.205666l0 0c11.342468 -24.25933 58.77289 -26.056961 105.9389 -4.0151215l0 0c47.165955 22.041832 76.206665 59.576347 64.86426 83.83567l0 0c-11.342468 24.259323 -58.77295 26.056946 -105.9389 4.015106l0 0c-47.166016 -22.041824 -76.206726 -59.576332 -64.86426 -83.835655z" fill-rule="evenodd"/><path fill="#93c47d" d="m515.5512 222.1076l4.2808228 37.572174l4.7559204 -6.658783l0.9501343 -5.7060394l-2.3779907 -23.304459z" fill-rule="evenodd"/><path fill="#93c47d" d="m525.5381 229.71654l11.905457 39.95012l6.645691 30.913391l23.779541 18.073486l30.438293 26.632568l31.388489 12.367432l34.24408 3.8031616l32.341187 -2.8530273l15.22052 -14.2677l-7.6115723 -6.6588135l-14.2677 -6.658783l-14.267761 -4.75589l-13.317566 -2.8530273l16.170593 -36.146973l-15.217834 0l-10.464539 11.414673l-11.414734 2.8530273l-12.364807 0l-16.170593 1.9028931l-0.9501343 -16.170593l1.9002686 -15.217865l-4.280884 -7.13385l6.6588135 -20.451447l21.404175 -19.97638l-68.47241 -14.742783z" fill-rule="evenodd"/><path fill="#93c47d" d="m964.96313 240.31647l0 0c11.342407 -24.259323 25.79535 -41.47162 32.281555 -38.444748l0 0c3.114746 1.4535522 3.9381714 7.475418 2.2891235 16.740845c-1.6489868 9.265427 -5.635437 21.015442 -11.082275 32.665176l0 0c-11.342468 24.259338 -25.79541 41.47162 -32.281555 38.444763l0 0c-3.114746 -1.4535522 -3.9381714 -7.4754333 -2.2891846 -16.740845c1.6490479 -9.265442 5.635498 -21.015457 11.082336 -32.66519z" fill-rule="evenodd"/><path fill="#93c47d" d="m826.5958 164.55905l19.024963 52.313644l23.779541 81.8047l34.24225 -42.80452l35.19586 69.438126l68.487854 -32.33844l116.99719 50.40982l10.93457 -27.342957l-15.217407 -28.540802l-14.979736 -24.492218z" fill-rule="evenodd"/><path fill="#93c47d" d="m890.71924 231.25552l0 0c11.342468 -24.259323 58.77289 -26.056946 105.9389 -4.015106l0 0c47.165955 22.041824 76.206726 59.576324 64.8642 83.83566l0 0c-11.342407 24.259308 -58.77289 26.056946 -105.9389 4.015106l0 0c-47.165955 -22.04184 -76.206665 -59.576324 -64.8642 -83.83566z" fill-rule="evenodd"/><path fill="#93c47d" d="m1119.1959 336.16522l0 0c18.146118 -22.009155 -10.692505 -83.44301 -64.413086 -137.21632l0 0c-53.720398 -53.7733 -111.97986 -79.52323 -130.12598 -57.51407l0 0c-18.14618 22.00917 10.692505 83.44301 64.412964 137.21632l0 0c53.72046 53.773315 111.97986 79.523224 130.1261 57.51407z" fill-rule="evenodd"/></g></svg>